{
.appVersion = "3236";
.formatVersion = 3;
DisplayStrings = (
Q,
a,
"æ",
a,
X,
"giaoaeaga ginger minimum ahahaha",
l,
Zabcdefghij,
"æ",
"àáâãäāăắặằẳẵǎấậầẩẫạảåąæ",
g,
"ħ",
"ħ",
"gaga àáâãäāăắặằẳẵǎấậầẩẫạảåąæğġģǧĝḡ/uni00670303"
);
customParameters = (
{
name = panose;
value = (
2,
4,
6,
3,
5,
4,
5,
2,
2,
4
);
},
{
name = unicodeRanges;
value = (
0,
1,
2,
7,
9,
29,
32,
33,
57
);
},
{
name = fsType;
value = (
);
},
{
name = "Family Alignment Zones";
value = (
{
pos = 729;
size = 20;
},
{
pos = 669;
size = 15;
},
{
pos = 646;
size = 13;
},
{
pos = 549;
size = 14;
},
{
pos = 527;
size = 13;
},
{
pos = 475;
size = 13;
},
{
pos = 0;
size = -15;
},
{
pos = -239;
size = -10;
}
);
},
{
name = blueScale;
value = 0.0375000014901;
},
{
name = glyphOrder;
value = (
.notdef,
space,
A,
B,
C,
D,
E,
F,
G,
H,
I,
J,
K,
L,
M,
N,
O,
P,
Q,
R,
S,
T,
U,
V,
W,
X,
Y,
Z,
a,
b,
c,
d,
e,
f,
g,
h,
i,
j,
k,
l,
m,
n,
o,
p,
q,
r,
s,
t,
u,
v,
w,
x,
y,
z,
Agrave,
Aacute,
Acircumflex,
Atilde,
Adieresis,
Amacron,
Abreve,
uni1EAE,
uni1EB6,
uni1EB0,
uni1EB2,
uni1EB4,
uni01CD,
uni1EA4,
uni1EAC,
uni1EA6,
uni1EA8,
uni1EAA,
uni1EA0,
uni1EA2,
Aring,
Aogonek,
AE,
Ccedilla,
Cacute,
Ccaron,
Ccircumflex,
Cdotaccent,
Dcaron,
Dcroat,
uni1E0C,
uni1E0E,
Egrave,
Eacute,
Ecircumflex,
Ecaron,
Edieresis,
Emacron,
Edotaccent,
Eogonek,
Ebreve,
uni1EBE,
uni1EC6,
uni1EC0,
uni1EC2,
uni1EC4,
uni1EB8,
uni1EBA,
uni1EBC,
Gbreve,
Gdotaccent,
uni0122,
Gcaron,
Gcircumflex,
uni1E20,
uni00470303,
Hbar,
uni1E2A,
Hcircumflex,
uni1E24,
Igrave,
Iacute,
Icircumflex,
Idieresis,
Imacron,
Idotaccent,
Iogonek,
uni01CF,
uni1ECA,
uni1EC8,
Itilde,
Jcircumflex,
uni0136,
Lacute,
Lcaron,
uni013B,
Ldot,
uni1E36,
uni1E38,
uni1E3A,
Lslash,
uni1E3E,
uni1E42,
Nacute,
Ncaron,
uni01F8,
Ntilde,
uni0145,
uni1E44,
uni1E46,
uni1E48,
Ograve,
Oacute,
uni014E,
Ocircumflex,
Otilde,
Odieresis,
Omacron,
Ohungarumlaut,
uni01D1,
uni1ED0,
uni1ED8,
uni1ED2,
uni1ED4,
uni1ED6,
uni1ECC,
uni1ECE,
Ohorn,
uni1EDA,
uni1EE2,
uni1EDC,
uni1EDE,
uni1EE0,
Oslash,
OE,
Racute,
Rcaron,

glyphs = (
{
glyphname = .notdef;
layers = (
{
hints = (
{
horizontal = 1;
place = (618,51);
type = Stem;
},
{
horizontal = 1;
place = (0,51);
type = Stem;
},
{
place = (499,61);
type = Stem;
},
{
place = (80,61);
type = Stem;
}
);
layerId = m01;
shapes = (
{
closed = 1;
nodes = (
(80,0,l),
(560,0,l),
(560,669,l),
(80,669,l)
);
},
{
closed = 1;
nodes = (
(174,51,l),
(320,285,l),
(466,51,l)
);
},
{
closed = 1;
nodes = (
(141,571,l),
(289,335,l),
(141,98,l)
);
},
{
closed = 1;
nodes = (
(351,335,l),
(499,571,l),
(499,98,l)
);
},
{
closed = 1;
nodes = (
(174,618,l),
(466,618,l),
(320,384,l)
);
}
);
width = 640;
}
);
note = .notdef;
},
{
glyphname = A;
kernLeft = A;
kernRight = A;
layers = (
{
anchors = (
{
name = bottom;
pos = (312,-22);
},
{
name = ogonek;
pos = (560,0);
},
{
name = top;
pos = (322,691);
}
);
hints = (
{
horizontal = 1;
place = (674,-20);
target = down;
type = TopGhost;
},
{
horizontal = 1;
place = (217,47);
type = Stem;
},
{
horizontal = 1;
place = (0,47);
type = Stem;
},
{
horizontal = 1;
place = (0,45.5);
type = Stem;
},
{
place = (5,648);
type = Stem;
},
{
place = (5,229);
type = Stem;
}
);
layerId = m01;
shapes = (
{
closed = 1;
nodes = (
(309,562,l),
(409,264,l),
(208,264,l)
);
},
{
closed = 1;
nodes = (
(5,0,l),
(234,0,l),
(234,41,l),
(136,54,l),
(192,217,l),
(424,217,l),
(479,53,l),
(381,41,l),
(381,0,l),
(653,0,l),
(653,41,l),
(578,50,l),
(365,674,l),
(302,674,l),
(89,54,l),
(5,41,l)
);
}
);
width = 664;
}
);
note = A;
unicode = 65;
},
{
glyphname = B;
kernLeft = B;
kernRight = B;
layers = (
{
anchors = (
{
name = bottom;
pos = (331,-22);
},
{
name = top;
pos = (300,691);
}
);
hints = (
{
horizontal = 1;
place = (623,46);
type = Stem;
},
{
horizontal = 1;
place = (622.5,46.5);
type = Stem;
},
{
horizontal = 1;
place = (323,46);
type = Stem;
},
{
horizontal = 1;
place = (0,47);
type = Stem;
},
{
horizontal = 1;
place = (0,46.5);
type = Stem;
},
{
place = (486,100);
type = Stem;
},
{
place = (458,94);
type = Stem;
},
{
place = (138,95);
type = Stem;
}
);
layerId = m01;
shapes = (
{
closed = 1;
nodes = (
(138,310,ls),
(138,223,o),
(138,136,o),
(136,52,c),
(44,41,l),
(44,0,l),
(319,0,ls),
(511,0,o),
(586,92,o),
(586,183,cs),
(586,264,o),
(530,329,o),
(397,348,c),
(508,371,o),
(552,435,o),
(552,506,cs),
(552,601,o),
(473,669,o),
(334,669,cs),
(44,669,l),
(44,628,l),
(136,617,l),
(138,531,o),
(138,445,o),
(138,359,cs)
);
},
{
closed = 1;
nodes = (
(288,323,ls),
(426,323,o),
(486,276,o),
(486,183,cs),
(486,95,o),
(424,47,o),
(296,47,cs),
(235,47,l),
(233,132,o),
(233,218,o),
(233,323,c)
);
},
{
closed = 1;
nodes = (
(304,623,ls),
(406,623,o),
(458,590,o),
(458,499,cs),
(458,408,o),
(406,369,o),
(285,369,cs),
(233,369,l),
(233,448,o),
(233,537,o),
(235,623,c)
);
}
);
width = 629;
}
);
note = B;
unicode = 66;
},
{
glyphname = C;
kernLeft = C;
kernRight = C;
layers = (
{
anchors = (
{
name = bottom;
pos = (379,0);
},
{
name = bottom_;
pos = (378,-22);
},
{
name = top;
pos = (371,691);
}
);
hints = (
{
horizontal = 1;
place = (634,50);
type = Stem;
},
{
horizontal = 1;
place = (-15,50);
type = Stem;
},
{
place = (47,109);
type = Stem;
}
);
layerId = m01;
shapes = (
{
closed = 1;
nodes = (
(254,35,o),
(156,139,o),
(156,335,cs),
(156,530,o),
(264,634,o),
(398,634,cs),
(430,634,o),
(464,627,o),
(500,607,c),
(520,491,l),
(582,491,l),
(578,636,l),
(511,675,o),
(440,684,o),
(385,684,cs),
(191,684,o),
(47,537,o),
(47,335,cs),
(47,129,o),
(184,-15,o),
(386,-15,cs),
(457,-15,o),
(526,-1,o),
(588,33,c),
(592,178,l),
(530,178,l),
(510,62,l),
(471,43,o),
(429,35,o),
(391,35,cs)
);
}
);
width = 631;
}
);
note = C;
unicode = 67;
},
{
glyphname = D;
kernLeft = B;
kernRight = D;
layers = (
{
anchors = (
{
name = bottom;
pos = (332,-22);
},
{
name = top;
pos = (330,691);
}
);
hints = (
{
horizontal = 1;
place = (623,46);
type = Stem;
},
{
horizontal = 1;
place = (622.5,46.5);
type = Stem;
},
{
horizontal = 1;
place = (0,47);
type = Stem;
},
{
horizontal = 1;
place = (0,46.5);
type = Stem;
},
{
place = (554,109);
type = Stem;
},
{
place = (138,95);
type = Stem;
}
);
layerId = m01;
shapes = (
{
closed = 1;
nodes = (
(138,322,ls),
(138,225,o),
(138,137,o),
(136,52,c),
(44,41,l),
(44,0,l),
(320,0,ls),
(515,0,o),
(663,118,o),
(663,334,cs),
(663,551,o),
(531,669,o),
(339,669,cs),
(44,669,l),
(44,628,l),
(136,617,l),
(138,531,o),
(138,445,o),
(138,359,cs)
);
},
{
closed = 1;
nodes = (
(233,359,ls),
(233,448,o),
(233,537,o),
(235,623,c),
(323,623,ls),
(468,623,o),
(554,522,o),
(554,334,cs),
(554,152,o),
(468,47,o),
(314,47,cs),
(235,47,l),
(233,135,o),
(233,224,o),
(233,322,cs)
);
}
);
width = 710;
}
);
note = D;
unicode = 68;
},
{
glyphname = E;
kernLeft = B;
kernRight = E;
layers = (
{
anchors = (
{
name = bottom;
pos = (351,-22);
},
{
name = ogonek;
pos = (481,0);
},
{
name = top;
pos = (326,691);
}
);
hints = (
{
horizontal = 1;
place = (622.5,46.5);
type = Stem;
},
{
horizontal = 1;
place = (619,50);
type = Stem;
},
{
horizontal = 1;
place = (492,177);
type = Stem;
},
{
horizontal = 1;
place = (318,47);
type = Stem;
},
{
horizontal = 1;
place = (0,178);
type = Stem;
},
{
horizontal = 1;
place = (0,50);
type = Stem;
},
{
horizontal = 1;
place = (0,46.5);
type = Stem;
},
{
place = (490,75.5);
type = Stem;
},
{
place = (470,75.5);
type = Stem;
},
{
place = (394,46);
type = Stem;
},
{
place = (138,95);
type = Stem;
}
);
layerId = m01;
shapes = (
{
closed = 1;
nodes = (
(138,310,ls),
(138,223,o),
(138,136,o),
(136,52,c),
(44,41,l),
(44,0,l),
(562,0,l),
(569,178,l),
(512,178,l),
(490,50,l),
(235,50,l),
(233,133,o),
(233,218,o),
(233,318,c),
(381,318,l),
(394,224,l),
(440,224,l),
(440,460,l),
(394,460,l),
(380,365,l),
(233,365,l),
(233,447,o),
(233,534,o),
(235,619,c),
(470,619,l),
(492,492,l),
(549,492,l),
(542,669,l),
(44,669,l),
(44,628,l),
(136,617,l),
(138,531,o),
(138,445,o),
(138,359,cs)
);
}
);
width = 603;
}
);
note = E;
unicode = 69;
},
{
glyphname = F;
kernLeft = B;
kernRight = F;
layers = (
{
anchors = (
{
name = bottom;
pos = (184,-22);
},
{
name = top;
pos = (331,691);
}
);
hints = (
{
horizontal = 1;
place = (622.5,46.5);
type = Stem;
},
{
horizontal = 1;
place = (619,50);
type = Stem;
},
{
horizontal = 1;
place = (492,177);
type = Stem;
},
{
horizontal = 1;
place = (318,47);
type = Stem;
},
{
horizontal = 1;
place = (0,46.5);
type = Stem;
},
{
place = (470,75.5);
type = Stem;
},
{
place = (402,46);
type = Stem;
},
{
place = (388,60);
type = Stem;
},
{
place = (138,95);
type = Stem;
}
);
layerId = m01;
shapes = (
{
closed = 1;
nodes = (
(138,310,ls),
(138,223,o),
(138,136,o),
(136,52,c),
(44,41,l),
(44,0,l),
(328,0,l),
(328,41,l),
(235,52,l),
(233,134,o),
(233,219,o),
(233,318,c),
(388,318,l),
(402,214,l),
(448,214,l),
(448,460,l),
(402,460,l),
(388,365,l),
(233,365,l),
(233,447,o),
(233,534,o),
(235,619,c),
(470,619,l),
(492,492,l),
(549,492,l),
(542,669,l),
(44,669,l),
(44,628,l),
(136,617,l),
(138,531,o),
(138,445,o),
(138,359,cs)
);
}
);
width = 579;
}
);
note = F;
unicode = 70;
},
{
glyphname = G;
kernLeft = C;
kernRight = G;
layers = (
{
anchors = (
{
name = bottom;
pos = (394,-22);
},
{
name = top;
pos = (379,691);
}
);
hints = (
{
horizontal = 1;
place = (634,50);
type = Stem;
},
{
horizontal = 1;
place = (275,43);
type = Stem;
},
{
horizontal = 1;
place = (273.5,44.5);
type = Stem;
},
{
horizontal = 1;
place = (-15,51);
type = Stem;
},
{
place = (510,94);
type = Stem;
},
{
place = (47,109);
type = Stem;
}
);
layerId = m01;
shapes = (
{
closed = 1;
nodes = (
(604,88,ls),
(604,150,o),
(605,212,o),
(606,272,c),
(667,278,l),
(667,318,l),
(404,318,l),
(404,278,l),
(508,269,l),
(509,209,o),
(510,148,o),
(510,88,cs),
(510,56,l),
(475,42,o),
(443,36,o),
(403,36,cs),
(250,36,o),
(156,144,o),
(156,335,cs),
(156,526,o),
(259,634,o),
(397,634,cs),
(438,634,o),
(475,625,o),
(511,605,c),
(531,491,l),
(593,491,l),
(589,637,l),
(533,669,o),
(470,684,o),
(388,684,cs),
(184,684,o),
(47,536,o),
(47,335,cs),
(47,133,o),
(183,-15,o),
(384,-15,cs),
(467,-15,o),
(535,8,o),
(604,44,c)
);
}
);
width = 682;
}
);
note = G;
unicode = 71;
},
{
glyphname = H;
kernLeft = B;
kernRight = H;
layers = (
{
anchors = (
{
name = bottom;
pos = (394,-22);
},
{
name = top;
pos = (394,691);
}
);
hints = (
{
horizontal = 1;
place = (623,46);
type = Stem;
},
{
horizontal = 1;
place = (622.5,46.5);
type = Stem;
},
{
horizontal = 1;
place = (319,47);
type = Stem;
},
{
horizontal = 1;
place = (0,46.5);
type = Stem;
},
{
horizontal = 1;
place = (0,46);
type = Stem;
},
{
place = (556,94);
type = Stem;
},
{
place = (138,95);
type = Stem;
}
);
layerId = m01;
shapes = (
{
closed = 1;
nodes = (
(138,310,ls),
(138,223,o),
(138,136,o),
(136,52,c),
(44,41,l),
(44,0,l),
(326,0,l),
(326,41,l),
(235,51,l),
(233,133,o),
(233,217,o),
(233,319,c),
(556,319,l),
(556,226,o),
(556,137,o),
(554,52,c),
(462,41,l),
(462,0,l),
(744,0,l),
(744,41,l),
(652,52,l),
(650,138,o),
(650,224,o),
(650,310,cs),
(650,359,ls),
(650,446,o),
(650,533,o),
(652,617,c),
(744,628,l),
(744,669,l),
(462,669,l),
(462,628,l),
(554,617,l),
(556,536,o),
(556,454,o),
(556,366,c),
(233,366,l),
(233,446,o),
(233,533,o),
(235,618,c),
(326,628,l),
(326,669,l),
(44,669,l),
(44,628,l),
(136,617,l),
(138,531,o),
(138,445,o),
(138,359,cs)
);
}
);
width = 789;
}
);
note = H;
unicode = 72;
},
{
glyphname = I;
kernLeft = B;
kernRight = H;
layers = (
{
anchors = (
{
name = bottom;
pos = (185,-22);
},
{
name = ogonek;
pos = (225,0);
},
{
name = top;
pos = (185,691);
}
);
hints = (
{
horizontal = 1;
place = (622.5,46.5);
type = Stem;
},
{
horizontal = 1;
place = (0,46.5);
type = Stem;
},
{
place = (138,95);
type = Stem;
}
);
layerId = m01;
shapes = (
{
closed = 1;
nodes = (
(138,310,ls),
(138,223,o),
(138,136,o),
(136,52,c),
(44,41,l),
(44,0,l),
(327,0,l),
(327,41,l),
(235,52,l),
(233,138,o),
(233,224,o),
(233,310,cs),
(233,359,ls),
(233,446,o),
(233,533,o),
(235,617,c),
(327,628,l),
(327,669,l),
(44,669,l),
(44,628,l),
(136,617,l),
(138,531,o),
(138,445,o),
(138,359,cs)
);
}
);
width = 371;
}
);
note = I;
unicode = 73;
},
{
glyphname = J;
kernLeft = J;
kernRight = J;
layers = (
{
anchors = (
{
name = bottom;
pos = (95,-164);
},
{
name = top;
pos = (197,691);
}
);
hints = (
{
horizontal = 1;
place = (622.5,46.5);
type = Stem;
},
{
horizontal = 1;
place = (-163,99);
type = Stem;
},
{
place = (158,88);
type = Stem;
}
);
layerId = m01;
shapes = (
{
closed = 1;
nodes = (
(47,628,l),
(149,617,l),
(153,169,o),
(158,67,o),
(158,7,cs),
(158,-51,o),
(148,-87,o),
(119,-115,c),
(94,-95,ls),
(65,-73,o),
(44,-64,o),
(19,-64,cs),
(-13,-64,o),
(-37,-77,o),
(-43,-114,c),
(-33,-152,o),
(6,-163,o),
(44,-163,cs),
(128,-163,o),
(212,-114,o),
(232,-14,cs),
(243,37,o),
(246,90,o),
(246,204,cs),
(246,360,ls),
(246,447,o),
(246,533,o),
(248,617,c),
(340,628,l),
(340,669,l),
(47,669,l)
);
}
);
width = 374;
}
);
note = J;
unicode = 74;
},
{
glyphname = K;
kernLeft = B;
kernRight = K;
layers = (
{
anchors = (
{
name = bottom;
pos = (364,-22);
},
{
name = top;
pos = (356,691);
}
);
hints = (
{
horizontal = 1;
place = (628,41);
type = Stem;
},
{
horizontal = 1;
place = (622.5,46.5);
type = Stem;
},
{
horizontal = 1;
place = (0,46.5);
type = Stem;
},
{
horizontal = 1;
place = (0,46);
type = Stem;
},
{
place = (417,230);
type = Stem;
},
{
place = (138,91);
type = Stem;
}
);
layerId = m01;
shapes = (
{
closed = 1;
nodes = (
(138,310,ls),
(138,223,o),
(138,136,o),
(136,52,c),
(44,41,l),
(44,0,l),
(326,0,l),
(326,41,l),
(231,52,l),
(229,114,o),
(229,175,o),
(229,229,c),
(328,348,l),
(487,51,l),
(405,41,l),
(405,0,l),
(662,0,l),
(662,41,l),
(585,51,l),
(383,414,l),
(550,615,l),
(647,628,l),
(647,669,l),
(417,669,l),
(417,628,l),
(489,614,l),
(229,296,l),
(229,359,ls),
(229,446,o),
(229,532,o),
(231,617,c),
(326,628,l),
(326,669,l),
(44,669,l),
(44,628,l),
(136,617,l),
(138,531,o),
(138,445,o),
(138,359,cs)
);
}
);
width = 667;
}
);
note = K;
unicode = 75;
},
{
glyphname = L;
kernLeft = B;
kernRight = L;
layers = (
{
anchors = (
{
name = bottom;
pos = (326,-22);
},
{
name = top;
pos = (193,691);
}
);
hints = (
{
horizontal = 1;
place = (622.5,46.5);
type = Stem;
},
{
horizontal = 1;
place = (0,188);
type = Stem;
},
{
horizontal = 1;
place = (0,50);
type = Stem;
},
{
horizontal = 1;
place = (0,46.5);
type = Stem;
},
{
place = (462,85);
type = Stem;
},
{
place = (138,95);
type = Stem;
}
);
layerId = m01;
shapes = (
{
closed = 1;
nodes = (
(138,309,ls),
(138,224,o),
(138,138,o),
(136,52,c),
(44,41,l),
(44,0,l),
(542,0,l),
(552,188,l),
(491,188,l),
(462,50,l),
(235,50,l),
(233,135,o),
(233,219,o),
(233,290,cs),
(233,359,ls),
(233,445,o),
(233,531,o),
(235,617,c),
(327,628,l),
(327,669,l),
(44,669,l),
(44,628,l),
(136,617,l),
(138,533,o),
(138,446,o),
(138,359,cs)
);
}
);
width = 596;
}
);
note = L;
unicode = 76;
},
{
glyphname = M;
kernLeft = M;
kernRight = H;
layers = (
{
anchors = (
{
name = bottom;
pos = (425,-22);
},
{
name = top;
pos = (440,691);
}
);
hints = (
{
horizontal = 1;
place = (622.5,46.5);
type = Stem;
},
{
horizontal = 1;
place = (0,46.5);
type = Stem;
},
{
place = (671,92);
type = Stem;
},
{
place = (129,52);
type = Stem;
}
);
layerId = m01;
shapes = (
{
closed = 1;
nodes = (
(39,0,l),
(263,0,l),
(263,41,l),
(181,54,l),
(181,369,l),
(175,558,l),
(404,0,l),
(454,0,l),
(671,558,l),
(671,309,ls),
(671,223,o),
(671,136,o),
(669,52,c),
(585,41,l),
(585,0,l),
(857,0,l),
(857,41,l),
(765,52,l),
(763,138,o),
(763,224,o),
(763,310,cs),
(763,359,ls),
(763,446,o),
(763,533,o),
(765,617,c),
(857,628,l),
(857,669,l),
(660,669,l),
(448,119,l),
(224,669,l),
(39,669,l),
(39,628,l),
(129,617,l),
(129,54,l),
(39,41,l)
);
}
);
width = 902;
}
);
note = M;
unicode = 77;
},
{
glyphname = N;
kernLeft = M;
kernRight = N;
layers = (
{
anchors = (
{
name = bottom;
pos = (376,-22);
},
{
name = top;
pos = (363,691);
}
);
hints = (
{
horizontal = 1;
place = (628,41);
type = Stem;
},
{
horizontal = 1;
place = (624,45);
type = Stem;
},
{
horizontal = 1;
place = (0,41);
type = Stem;
},
{
horizontal = 1;
place = (-7,21);
target = up;
type = BottomGhost;
},
{
place = (559,51);
type = Stem;
},
{
place = (454,156);
type = Stem;
},
{
place = (124,157);
type = Stem;
},
{
place = (124,51);
type = Stem;
}
);
layerId = m01;
shapes = (
{
closed = 1;
nodes = (
(454,628,l),
(559,615,l),
(559,173,l),
(198,669,l),
(44,669,l),
(44,628,l),
(115,620,l),
(124,608,l),
(124,53,l),
(39,41,l),
(39,0,l),
(281,0,l),
(281,41,l),
(175,55,l),
(175,538,l),
(575,-7,l),
(610,-7,l),
(610,615,l),
(695,628,l),
(695,669,l),
(454,669,l)
);
}
);
width = 735;
}
);
note = N;
unicode = 78;
},
{
glyphname = O;
kernLeft = C;
kernRight = O;
layers = (
{
anchors = (
{
name = bottom;
pos = (353,-22);
},
{
name = ogonek;
pos = (444,0);
},
{
name = top;
pos = (353,691);
},
{
name = topright;
pos = (504,658);
}
);
hints = (
{
horizontal = 1;
place = (634,50);
type = Stem;
},
{
horizontal = 1;
place = (-15,50);
type = Stem;
},
{
place = (550,110);
type = Stem;
},
{
place = (47,109);
type = Stem;
}
);
layerId = m01;
shapes = (
{
closed = 1;
nodes = (
(156,485,o),
(215,634,o),
(354,634,cs),
(493,634,o),
(550,485,o),
(550,335,cs),
(550,184,o),
(493,35,o),
(354,35,cs),
(215,35,o),
(156,184,o),
(156,335,cs)
);
},
{
closed = 1;
nodes = (
(199,684,o),
(47,554,o),
(47,335,cs),
(47,106,o),
(198,-15,o),
(354,-15,cs),
(509,-15,o),
(660,115,o),
(660,335,cs),
(660,563,o),
(508,684,o),
(354,684,cs)
);
}
);
width = 707;
}
);
note = O;
unicode = 79;
},
{
glyphname = P;
kernLeft = B;
kernRight = P;
layers = (
{
anchors = (
{
name = bottom;
pos = (185,-22);
},
{
name = top;
pos = (293,691);
}
);
hints = (
{
horizontal = 1;
place = (623,46);
type = Stem;
},
{
horizontal = 1;
place = (622.5,46.5);
type = Stem;
},
{
horizontal = 1;
place = (264,47);
type = Stem;
},
{
horizontal = 1;
place = (0,46.5);
type = Stem;
},
{
place = (468,99);
type = Stem;
},
{
place = (138,95);
type = Stem;
}
);
layerId = m01;
shapes = (
{
closed = 1;
nodes = (
(138,310,ls),
(138,223,o),
(138,136,o),
(136,52,c),
(44,41,l),
(44,0,l),
(328,0,l),
(328,41,l),
(235,52,l),
(233,124,o),
(233,192,o),
(233,264,c),
(285,264,ls),
(490,264,o),
(567,358,o),
(567,470,cs),
(567,587,o),
(482,669,o),
(313,669,cs),
(44,669,l),
(44,628,l),
(136,617,l),
(138,531,o),
(138,445,o),
(138,359,cs)
);
},
{
closed = 1;
nodes = (
(295,623,ls),
(415,623,o),
(468,567,o),
(468,470,cs),
(468,376,o),
(420,311,o),
(299,311,cs),
(233,311,l),
(233,359,ls),
(233,448,o),
(233,537,o),
(235,623,c)
);
}
);
width = 589;
}
);
note = P;
unicode = 80;
},
{
glyphname = Q;
kernLeft = C;
kernRight = O;
layers = (
{
anchors = (
{
name = top;
pos = (353,691);
}
);
hints = (
{
horizontal = 1;
place = (634,50);
type = Stem;
},
{
horizontal = 1;
place = (-10,45);
type = Stem;
},
{
horizontal = 1;
place = (-12,47);
type = Stem;
},
{
horizontal = 1;
place = (-216,56);
type = Stem;
},
{
place = (550,110);
type = Stem;
},
{
place = (302,94);
type = Stem;
},
{
place = (47,109);
type = Stem;
}
);
layerId = m01;
shapes = (
{
closed = 1;
nodes = (
(156,485,o),
(215,634,o),
(354,634,cs),
(493,634,o),
(550,485,o),
(550,335,cs),
(550,184,o),
(493,35,o),
(354,35,cs),
(215,35,o),
(156,184,o),
(156,335,cs)
);
},
{
closed = 1;
nodes = (
(199,684,o),
(47,554,o),
(47,335,cs),
(47,132,o),
(166,13,o),
(302,-10,c),
(302,-118,o),
(373,-216,o),
(500,-216,cs),
(541,-216,o),
(589,-206,o),
(623,-184,c),
(612,-148,l),
(580,-157,o),
(554,-160,o),
(534,-160,cs),
(451,-160,o),
(399,-107,o),
(396,-12,c),
(535,9,o),
(660,135,o),
(660,335,cs),
(660,563,o),
(508,684,o),
(354,684,cs)
);
}
);
width = 707;
}
);
note = Q;
unicode = 81;
},
{
glyphname = R;
kernLeft = B;
kernRight = R;
layers = (
{
anchors = (
{
name = bottom;
pos = (356,-22);
},
{
name = top;
pos = (307,691);
}
);
hints = (
{
horizontal = 1;
place = (623,46);
type = Stem;
},
{
horizontal = 1;
place = (622.5,46.5);
type = Stem;
},
{
horizontal = 1;
place = (310,45);
type = Stem;
},
{
horizontal = 1;
place = (0,46.5);
type = Stem;
},
{
horizontal = 1;
place = (-10,55.5);
type = Stem;
},
{
place = (468,99);
type = Stem;
},
{
place = (138,95);
type = Stem;
}
);
layerId = m01;
shapes = (
{
closed = 1;
nodes = (
(321,623,ls),
(424,623,o),
(468,577,o),
(468,493,cs),
(468,413,o),
(418,355,o),
(310,355,cs),
(233,355,l),
(233,450,o),
(233,535,o),
(235,623,c)
);
},
{
closed = 1;
nodes = (
(138,310,ls),
(138,223,o),
(138,136,o),
(136,52,c),
(44,41,l),
(44,0,l),
(327,0,l),
(327,41,l),
(235,52,l),
(233,132,o),
(233,214,o),
(233,310,c),
(282,310,ls),
(363,310,o),
(400,295,o),
(419,214,cs),
(459,54,ls),
(471,6,o),
(499,-10,o),
(562,-10,cs),
(593,-10,o),
(617,-6,o),
(637,0,c),
(637,41,l),
(560,50,l),
(517,198,ls),
(494,277,o),
(458,313,o),
(399,325,c),
(511,345,o),
(567,416,o),
(567,494,cs),
(567,604,o),
(477,669,o),
(324,669,cs),
(44,669,l),
(44,628,l),
(136,617,l),
(138,531,o),
(138,445,o),
(138,359,cs)
);
}
);
width = 651;
}
);
note = R;
unicode = 82;
},
{
glyphname = S;
kernLeft = S;
kernRight = S;
layers = (
{
anchors = (
{
name = bottom;
pos = (243,0);
},
{
name = bottom_;
pos = (245,-22);
},
{
name = top;
pos = (258,691);
}
);
hints = (
{
horizontal = 1;
place = (634,50);
type = Stem;
},
{
horizontal = 1;
place = (-15,50);
type = Stem;
},
{
place = (387,85);
type = Stem;
},
{
place = (53,84);
type = Stem;
}
);
layerId = m01;
shapes = (
{
closed = 1;
nodes = (
(189,35,o),
(159,43,o),
(128,60,c),
(108,178,l),
(46,178,l),
(40,38,l),
(86,8,o),
(160,-15,o),
(235,-15,cs),
(374,-15,o),
(472,57,o),
(472,175,cs),
(472,270,o),
(421,328,o),
(290,379,cs),
(250,394,ls),
(178,422,o),
(137,459,o),
(137,521,cs),
(137,595,o),
(196,634,o),
(272,634,cs),
(303,634,o),
(328,628,o),
(354,614,c),
(375,501,l),
(436,501,l),
(442,632,l),
(399,664,o),
(345,684,o),
(278,684,cs),
(150,684,o),
(53,614,o),
(53,499,cs),
(53,397,o),
(122,338,o),
(225,298,cs),
(264,282,ls),
(349,249,o),
(387,220,o),
(387,156,cs),
(387,79,o),
(326,35,o),
(232,35,cs)
);
}
);
width = 512;
}
);
note = S;
unicode = 83;
},
{
glyphname = T;
kernLeft = T;
kernRight = T;
layers = (
{
anchors = (
{
name = bottom;
pos = (302,0);
},
{
name = bottom_;
pos = (302,-22);
},
{
name = top;
pos = (302,691);
}
);
hints = (
{
horizontal = 1;
place = (619,50);
type = Stem;
},
{
horizontal = 1;
place = (491,178);
type = Stem;
},
{
horizontal = 1;
place = (0,46.5);
type = Stem;
},
{
place = (504,76);
type = Stem;
},
{
place = (255,94);
type = Stem;
},
{
place = (24,76);
type = Stem;
}
);
layerId = m01;
shapes = (
{
closed = 1;
nodes = (
(255,310,ls),
(255,223,o),
(255,137,o),
(253,52,c),
(151,41,l),
(151,0,l),
(453,0,l),
(453,41,l),
(351,52,l),
(349,138,o),
(349,224,o),
(349,310,cs),
(349,359,ls),
(349,447,o),
(349,534,o),
(351,619,c),
(504,619,l),
(526,491,l),
(584,491,l),
(576,669,l),
(28,669,l),
(20,491,l),
(78,491,l),
(100,619,l),
(253,619,l),
(255,532,o),
(255,445,o),
(255,359,cs)
);
}
);
width = 604;
}
);
note = T;
unicode = 84;
},
{
glyphname = U;
kernLeft = U;
kernRight = U;
layers = (
{
anchors = (
{
name = bottom;
pos = (374,-22);
},
{
name = ogonek;
pos = (452,0);
},
{
name = top;
pos = (381,691);
},
{
name = topright;
pos = (584,679);
}
);
hints = (
{
horizontal = 1;
place = (628,41);
type = Stem;
},
{
horizontal = 1;
place = (623,46);
type = Stem;
},
{
horizontal = 1;
place = (622.5,46.5);
type = Stem;
},
{
horizontal = 1;
place = (622,47);
type = Stem;
},
{
horizontal = 1;
place = (-15,71);
type = Stem;
},
{
place = (555,51);
type = Stem;
},
{
place = (453,153);
type = Stem;
},
{
place = (124,94);
type = Stem;
}
);
layerId = m01;
shapes = (
{
closed = 1;
nodes = (
(218,360,ls),
(218,447,o),
(218,532,o),
(220,616,c),
(322,628,l),
(322,669,l),
(39,669,l),
(39,628,l),
(122,618,l),
(124,532,o),
(124,446,o),
(124,360,cs),
(124,252,ls),
(124,65,o),
(222,-15,o),
(367,-15,cs),
(504,-15,o),
(606,63,o),
(606,274,cs),
(606,617,l),
(693,628,l),
(693,669,l),
(453,669,l),
(453,628,l),
(555,615,l),
(555,298,ls),
(555,121,o),
(497,56,o),
(384,56,cs),
(282,56,o),
(218,110,o),
(218,281,cs)
);
}
);
width = 727;
}
);
note = U;
unicode = 85;
},
{
glyphname = V;
kernLeft = V;
kernRight = V;
layers = (
{
anchors = (
{
name = bottom;
pos = (346,-22);
},
{
name = top;
pos = (349,691);
}
);
hints = (
{
horizontal = 1;
place = (628,41);
type = Stem;
},
{
horizontal = 1;
place = (623.5,45.5);
type = Stem;
},
{
horizontal = 1;
place = (619.5,49.5);
type = Stem;
},
{
horizontal = 1;
place = (619,50);
type = Stem;
},
{
horizontal = 1;
place = (-7,21);
target = up;
type = BottomGhost;
},
{
place = (434,231);
type = Stem;
},
{
place = (15,650);
type = Stem;
}
);
layerId = m01;
shapes = (
{
closed = 1;
nodes = (
(323,-7,l),
(367,-7,l),
(578,616,l),
(665,628,l),
(665,669,l),
(434,669,l),
(434,624,l),
(522,614,l),
(360,135,l),
(192,615,l),
(288,624,l),
(288,669,l),
(15,669,l),
(15,628,l),
(90,619,l)
);
}
);
width = 674;
}
);
note = V;
unicode = 86;
},
{
glyphname = W;
kernLeft = W;
kernRight = W;
layers = (
{
anchors = (
{
name = bottom;
pos = (499,-22);
},
{
name = top;
pos = (501,691);
}
);
hints = (
{
horizontal = 1;
place = (628,41);
type = Stem;
},
{
horizontal = 1;
place = (623,46);
type = Stem;
},
{
horizontal = 1;
place = (622.5,46.5);
type = Stem;
},
{
horizontal = 1;
place = (622,47);
type = Stem;
},
{
horizontal = 1;
place = (-7,21);
target = up;
type = BottomGhost;
},
{
place = (726,227);
type = Stem;
},
{
place = (15,938);
type = Stem;
}
);
layerId = m01;
shapes = (
{
closed = 1;
nodes = (
(657,-7,l),
(700,-7,l),
(869,616,l),
(953,628,l),
(953,669,l),
(726,669,l),
(726,628,l),
(817,615,l),
(690,153,l),
(541,616,l),
(642,628,l),
(642,669,l),
(370,669,l),
(370,628,l),
(470,616,l),
(318,157,l),
(195,617,l),
(287,628,l),
(287,669,l),
(15,669,l),
(15,628,l),
(98,618,l),
(278,-7,l),
(321,-7,l),
(484,512,l)
);
}
);
width = 962;
}
);
note = W;
unicode = 87;
},
{
glyphname = X;
kernLeft = X;
kernRight = X;
layers = (
{
anchors = (
{
name = bottom;
pos = (312,-22);
},
{
name = top;
pos = (324,691);
}
);
hints = (
{
horizontal = 1;
place = (628,41);
type = Stem;
},
{
horizontal = 1;
place = (623,46);
type = Stem;
},
{
horizontal = 1;
place = (622.5,46.5);
type = Stem;
},
{
horizontal = 1;
place = (0,46.5);
type = Stem;
},
{
horizontal = 1;
place = (0,46);
type = Stem;
},
{
place = (388,229);
type = Stem;
},
{
place = (10,629);
type = Stem;
},
{
place = (10,229);
type = Stem;
}
);
layerId = m01;
shapes = (
{
closed = 1;
nodes = (
(19,628,l),
(107,618,l),
(284,324,l),
(105,53,l),
(10,41,l),
(10,0,l),
(239,0,l),
(239,41,l),
(161,52,l),
(308,284,l),
(448,52,l),
(356,41,l),
(356,0,l),
(639,0,l),
(639,41,l),
(553,51,l),
(365,363,l),
(529,617,l),
(617,628,l),
(617,669,l),
(388,669,l),
(388,628,l),
(473,616,l),
(340,404,l),
(212,618,l),
(300,628,l),
(300,669,l),
(19,669,l)
);
}
);
width = 648;
}
);
note = X;
unicode = 88;
},
{
glyphname = Y;
kernLeft = Y;
kernRight = Y;
layers = (
{
anchors = (
{
name = bottom;
pos = (316,-22);
},
{
name = top;
pos = (336,691);
}
);
hints = (
{
horizontal = 1;
place = (628,41);
type = Stem;
},
{
horizontal = 1;
place = (623.5,45.5);
type = Stem;
},
{
horizontal = 1;
place = (622.5,46.5);
type = Stem;
},
{
horizontal = 1;
place = (0,46.5);
type = Stem;
},
{
place = (394,229);
type = Stem;
},
{
place = (271,94);
type = Stem;
}
);
layerId = m01;
shapes = (
{
closed = 1;
nodes = (
(394,628,l),
(484,616,l),
(341,314,l),
(202,617,l),
(297,628,l),
(297,669,l),
(15,669,l),
(15,628,l),
(94,619,l),
(271,259,l),
(271,182,o),
(271,114,o),
(269,52,c),
(167,41,l),
(167,0,l),
(469,0,l),
(469,41,l),
(367,52,l),
(365,116,o),
(365,185,o),
(365,263,c),
(535,615,l),
(623,628,l),
(623,669,l),
(394,669,l)
);
}
);
width = 633;
}
);
note = Y;
unicode = 89;
},
{
glyphname = Z;
kernLeft = Z;
kernRight = Z;
layers = (
{
anchors = (
{
name = bottom;
pos = (283,-22);
},
{
name = top;
pos = (284,691);
}
);
hints = (
{
horizontal = 1;
place = (619,50);
type = Stem;
},
{
horizontal = 1;
place = (491,178);
type = Stem;
},
{
horizontal = 1;
place = (0,178);
type = Stem;
},
{
horizontal = 1;
place = (0,50);
type = Stem;
},
{
place = (20,511);
type = Stem;
}
);
layerId = m01;
shapes = (
{
closed = 1;
nodes = (
(91,491,l),
(118,619,l),
(399,619,l),
(20,36,l),
(20,0,l),
(523,0,l),
(531,178,l),
(470,178,l),
(443,50,l),
(132,50,l),
(509,634,l),
(509,669,l),
(38,669,l),
(30,491,l)
);
}
);
width = 551;
}
);
note = Z;
unicode = 90;
},
{
color = 8;
glyphname = a;
kernLeft = a;
kernRight = a;
lastChange = "2024-07-03 16:45:42 +0000";
layers = (
{
anchors = (
{
name = bottom;
pos = (259,-22);
},
{
name = ogonek;
pos = (447,0);
},
{
name = top;
pos = (284,507);
}
);
hints = (
{
horizontal = 1;
place = (442,46);
type = Stem;
},
{
horizontal = 1;
place = (-10,52);
type = Stem;
},
{
horizontal = 1;
place = (-13,66);
type = Stem;
},
{
place = (326,82);
type = Stem;
},
{
place = (324,84);
type = Stem;
},
{
place = (45,89);
type = Stem;
}
);
layerId = m01;
shapes = (
{
closed = 1;
nodes = (
(135,372,o),
(201,431,o),
(282,431,cs),
(318,431,o),
(349,420,o),
(390,378,c),
(390,106,l),
(351,62,o),
(318,44,o),
(274,44,cs),
(195,44,o),
(135,107,o),
(135,232,cs)
);
},
{
closed = 1;
nodes = (
(309,-13,o),
(356,12,o),
(396,70,c),
(407,22,o),
(434,-10,o),
(482,-10,cs),
(518,-10,o),
(545,3,o),
(569,42,c),
(549,64,l),
(538,51,o),
(527,42,o),
(510,42,cs),
(488,42,o),
(474,58,o),
(474,101,cs),
(474,343,l),
(477,478,l),
(461,488,l),
(395,421,l),
(358,470,o),
(315,488,o),
(273,488,cs),
(138,488,o),
(45,383,o),
(45,226,cs),
(45,74,o),
(127,-13,o),
(244,-13,cs)
);
}
);
width = 569;
}
);
note = a;
unicode = 97;
},
{
glyphname = b;
kernLeft = b;
kernRight = b;
layers = (
{
anchors = (
{
name = bottom;
pos = (326,-22);
},
{
name = top;
pos = (132,738);
}
);
hints = (
{
horizontal = 1;
place = (739,-20);
target = down;
type = TopGhost;
},
{
horizontal = 1;
place = (731,-20);
target = down;
type = TopGhost;
},
{
horizontal = 1;
place = (431,57);
type = Stem;
},
{
horizontal = 1;
place = (-10,59);
type = Stem;
},
{
horizontal = 1;
place = (-13,57);
type = Stem;
},
{
horizontal = 1;
place = (0,21);
target = up;
type = BottomGhost;
},
{
horizontal = 1;
place = (-10,21);
target = up;
type = BottomGhost;
},
{
place = (442,90);
type = Stem;
},
{
place = (107,84);
type = Stem;
},
{
place = (107,81);
type = Stem;
}
);
layerId = m01;
shapes = (
{
closed = 1;
nodes = (
(273,44,o),
(232,60,o),
(191,99,c),
(191,373,l),
(245,418,o),
(284,431,o),
(315,431,cs),
(390,431,o),
(442,362,o),
(442,234,cs),
(442,105,o),
(381,44,o),
(310,44,cs)
);
},
{
closed = 1;
nodes = (
(30,0,l),
(180,-10,l),
(188,57,l),
(231,3,o),
(279,-13,o),
(326,-13,cs),
(443,-13,o),
(532,88,o),
(532,242,cs),
(532,397,o),
(448,488,o),
(342,488,cs),
(287,488,o),
(236,464,o),
(188,411,c),
(188,589,l),
(192,731,l),
(178,739,l),
(25,694,l),
(25,659,l),
(107,649,l),
(107,210,ls),
(107,165,o),
(106,99,o),
(105,49,c),
(30,36,l)
);
}
);
width = 577;
}
);
note = b;
unicode = 98;
},
{
glyphname = c;
kernLeft = c;
kernRight = c;
layers = (
{
anchors = (
{
name = bottom;
pos = (275,0);
},
{
name = bottom_;
pos = (275,-22);
},
{
name = top;
pos = (274,507);
}
);
hints = (
{
horizontal = 1;
place = (442,46);
type = Stem;
},
{
horizontal = 1;
place = (-13,65);
type = Stem;
},
{
place = (42,88);
type = Stem;
}
);
layerId = m01;
shapes = (
{
closed = 1;
nodes = (
(294,442,o),
(312,440,o),
(331,434,c),
(349,368,ls),
(356,340,o),
(370,320,o),
(404,320,cs),
(429,320,o),
(445,332,o),
(450,358,c),
(437,432,o),
(363,488,o),
(273,488,cs),
(153,488,o),
(42,394,o),
(42,236,cs),
(42,82,o),
(130,-13,o),
(267,-13,cs),
(361,-13,o),
(425,32,o),
(453,115,c),
(428,128,l),
(397,79,o),
(347,52,o),
(290,52,cs),
(196,52,o),
(130,120,o),
(130,246,cs),
(130,374,o),
(192,442,o),
(277,442,cs)
);
}
);
width = 488;
}
);
note = c;
unicode = 99;
},
{
glyphname = d;
kernLeft = c;
kernRight = d;
layers = (
{
anchors = (
{
name = bottom;
pos = (287,-22);
},
{
name = top;
pos = (398,738);
}
);
hints = (
{
horizontal = 1;
place = (739,-20);
target = down;
type = TopGhost;
},
{
horizontal = 1;
place = (731,-20);
target = down;
type = TopGhost;
},
{
horizontal = 1;
place = (431,57);
type = Stem;
},
{
horizontal = 1;
place = (-10,58);
type = Stem;
},
{
horizontal = 1;
place = (-13,57);
type = Stem;
},
{
horizontal = 1;
place = (0,21);
target = up;
type = BottomGhost;
},
{
horizontal = 1;
place = (-10,21);
target = up;
type = BottomGhost;
},
{
place = (389,81);
type = Stem;
},
{
place = (386,84);
type = Stem;
},
{
place = (45,90);
type = Stem;
}
);
layerId = m01;
shapes = (
{
closed = 1;
nodes = (
(135,371,o),
(199,431,o),
(273,431,cs),
(306,431,o),
(340,419,o),
(386,379,c),
(386,102,l),
(349,60,o),
(318,44,o),
(274,44,cs),
(194,44,o),
(135,104,o),
(135,235,cs)
);
},
{
closed = 1;
nodes = (
(551,0,l),
(551,36,l),
(470,48,l),
(470,589,l),
(474,731,l),
(460,739,l),
(304,694,l),
(304,659,l),
(389,649,l),
(389,423,l),
(348,471,o),
(306,488,o),
(258,488,cs),
(136,488,o),
(45,386,o),
(45,233,cs),
(45,87,o),
(127,-13,o),
(249,-13,cs),
(311,-13,o),
(354,13,o),
(389,60,c),
(396,-10,l)
);
}
);
width = 567;
}
);
note = d;
unicode = 100;
},
{
glyphname = e;
kernLeft = c;
kernRight = e;
layers = (
{
anchors = (
{
name = bottom;
pos = (284,-22);
},
{
name = ogonek;
pos = (344,0);
},
{
name = top;
pos = (276,507);
}
);
hints = (
{
horizontal = 1;
place = (442,46);
type = Stem;
},
{
horizontal = 1;
place = (240,42);
type = Stem;
},
{
horizontal = 1;
place = (-13,65);
type = Stem;
},
{
place = (378,83);
type = Stem;
},
{
place = (45,92);
type = Stem;
},
{
place = (45,90);
type = Stem;
}
);
layerId = m01;
shapes = (
{
closed = 1;
nodes = (
(331,442,o),
(378,391,o),
(378,334,cs),
(378,305,o),
(367,282,o),
(319,282,cs),
(137,282,l),
(148,398,o),
(213,442,o),
(269,442,cs)
);
},
{
closed = 1;
nodes = (
(150,488,o),
(45,386,o),
(45,233,cs),
(45,80,o),
(133,-13,o),
(268,-13,cs),
(359,-13,o),
(423,32,o),
(460,103,c),
(436,122,l),
(400,80,o),
(361,52,o),
(297,52,cs),
(201,52,o),
(137,117,o),
(135,240,c),
(454,240,l),
(458,253,o),
(461,273,o),
(461,296,cs),
(461,417,o),
(379,488,o),
(275,488,cs)
);
}
);
width = 510;
}
);
note = e;
unicode = 101;
},
{
glyphname = f;
kernLeft = f;
kernRight = f;
layers = (
{
anchors = (
{
name = bottom;
pos = (159,-22);
},
{
name = top;
pos = (294,750);
}
);
hints = (
{
horizontal = 1;
place = (650,99);
type = Stem;
},
{
horizontal = 1;
place = (422,55);
type = Stem;
},
{
horizontal = 1;
place = (422,53);
type = Stem;
},
{
horizontal = 1;
place = (0,36);
type = Stem;
},
{
place = (118,82);
type = Stem;
},
{
place = (117,85);
type = Stem;
}
);
layerId = m01;
shapes = (
{
closed = 1;
nodes = (
(117,210,ls),
(117,157,o),
(116,103,o),
(115,50,c),
(36,36,l),
(36,0,l),
(294,0,l),
(294,36,l),
(204,51,l),
(203,104,o),
(202,157,o),
(202,210,cs),
(202,422,l),
(338,422,l),
(338,475,l),
(200,475,l),
(197,571,o),
(211,628,o),
(231,664,cs),
(240,679,o),
(252,692,o),
(265,702,c),
(293,680,ls),
(317,660,o),
(340,650,o),
(365,650,cs),
(402,650,o),
(424,669,o),
(426,695,c),
(416,734,o),
(377,749,o),
(330,749,cs),
(284,749,o),
(233,735,o),
(189,688,cs),
(146,642,o),
(128,584,o),
(118,477,c),
(34,466,l),
(34,422,l),
(117,422,l)
);
}
);
width = 354;
}
);
note = f;
unicode = 102;
},
{
color = 8;
glyphname = g;
kernLeft = g;
kernRight = g;
lastChange = "2024-07-03 16:45:47 +0000";
layers = (
{
anchors = (
{
name = bottom;
pos = (246,-239);
},
{
name = top;
pos = (279,507);
}
);
hints = (
{
horizontal = 1;
place = (478,-20);
target = down;
type = TopGhost;
},
{
horizontal = 1;
place = (447,41);
type = Stem;
},
{
horizontal = 1;
place = (415,34);
type = Stem;
},
{
horizontal = 1;
place = (160,40);
type = Stem;
},
{
horizontal = 1;
place = (-14,77);
type = Stem;
},
{
horizontal = 1;
place = (-239,46);
type = Stem;
},
{
horizontal = 1;
place = (-4,21);
target = up;
type = BottomGhost;
},
{
place = (480,15);
type = Stem;
},
{
place = (415,75);
type = Stem;
},
{
place = (339,81);
type = Stem;
},
{
place = (68,72);
type = Stem;
},
{
place = (59,81);
type = Stem;
},
{
place = (36,82);
type = Stem;
}
);
layerId = m01;
shapes = (
{
closed = 1;
nodes = (
(135,371,o),
(201,431,o),
(282,431,cs),
(318,431,o),
(349,420,o),
(390,378,c),
(390,106,l),
(351,62,o),
(318,44,o),
(274,44,cs),
(195,44,o),
(135,107,o),
(135,232,cs)
);
},
{
closed = 1;
nodes = (
(306,-13,o),
(352,10,o),
(390,62,c),
(389,-51,o),
(381,-103,o),
(359,-140,cs),
(333,-186,o),
(284,-204,o),
(246,-204,cs),
(222,-204,o),
(199,-203,o),
(176,-198,c),
(162,-147,ls),
(148,-97,o),
(136,-74,o),
(103,-74,cs),
(80,-74,o),
(64,-85,o),
(52,-108,c),
(69,-207,o),
(143,-249,o),
(235,-249,cs),
(316,-249,o),
(377,-224,o),
(420,-169,cs),
(462,-117,o),
(474,-51,o),
(474,104,cs),
(474,343,l),
(477,478,l),
(461,488,l),
(395,421,l),
(358,470,o),
(315,488,o),
(273,488,cs),
(138,488,o),
(45,383,o),
(45,226,cs),
(45,73,o),
(127,-13,o),
(244,-13,cs)
);
}
);
width = 542;
}
);
note = g;
unicode = 103;
},
{
glyphname = h;
kernLeft = b;
kernRight = h;
layers = (
{
anchors = (
{
name = bottom;
pos = (314,-22);
},
{
name = top;
pos = (138,738);
}
);
hints = (
{
horizontal = 1;
place = (739,-20);
target = down;
type = TopGhost;
},
{
horizontal = 1;
place = (731,-20);
target = down;
type = TopGhost;
},
{
horizontal = 1;
place = (416,72);
type = Stem;
},
{
horizontal = 1;
place = (0,36);
type = Stem;
},
{
place = (414,85);
type = Stem;
},
{
place = (107,84);
type = Stem;
},
{
place = (107,81);
type = Stem;
}
);
layerId = m01;
shapes = (
{
closed = 1;
nodes = (
(107,210,ls),
(107,166,o),
(106,100,o),
(105,50,c),
(30,36,l),
(30,0,l),
(262,0,l),
(262,36,l),
(193,50,l),
(192,100,o),
(191,166,o),
(191,210,cs),
(191,351,l),
(242,397,o),
(283,416,o),
(332,416,cs),
(391,416,o),
(414,387,o),
(414,295,cs),
(414,210,ls),
(414,164,o),
(413,99,o),
(412,49,c),
(339,36,l),
(339,0,l),
(571,0,l),
(571,36,l),
(501,50,l),
(500,100,o),
(499,164,o),
(499,210,cs),
(499,303,ls),
(499,434,o),
(457,488,o),
(371,488,cs),
(308,488,o),
(237,450,o),
(188,395,c),
(188,589,l),
(192,731,l),
(178,739,l),
(25,694,l),
(25,659,l),
(107,649,l)
);
}
);
width = 601;
}
);
note = h;
unicode = 104;
},
{
glyphname = i;
kernLeft = i;
kernRight = i;
layers = (
{
anchors = (
{
name = bottom;
pos = (156,-22);
},
{
name = ogonek;
pos = (187,0);
},
{
name = top;
pos = (153,707);
}
);
hints = (
{
horizontal = 1;
place = (488,-20);
target = down;
type = TopGhost;
},
{
horizontal = 1;
place = (478,-20);
target = down;
type = TopGhost;
},
{
horizontal = 1;
place = (598,128);
type = Stem;
},
{
horizontal = 1;
place = (0,36);
type = Stem;
},
{
place = (112,83);
type = Stem;
},
{
place = (86,134);
type = Stem;
}
);
layerId = m01;
shapes = (
{
closed = 1;
nodes = (
(190,598,o),
(220,625,o),
(220,662,cs),
(220,701,o),
(190,726,o),
(153,726,cs),
(115,726,o),
(86,701,o),
(86,662,cs),
(86,625,o),
(115,598,o),
(153,598,cs)
);
},
{
closed = 1;
nodes = (
(267,36,l),
(197,50,l),
(196,100,o),
(195,166,o),
(195,210,cs),
(195,342,l),
(198,478,l),
(183,488,l),
(29,427,l),
(29,392,l),
(109,383,l),
(111,343,o),
(112,312,o),
(112,257,cs),
(112,210,ls),
(112,166,o),
(111,100,o),
(110,50,c),
(35,36,l),
(35,0,l),
(267,0,l)
);
}
);
width = 298;
}
);
note = i;
unicode = 105;
},
{
glyphname = j;
kernLeft = j;
kernRight = j;
layers = (
{
anchors = (
{
name = bottom;
pos = (54,-251);
},
{
name = top;
pos = (152,707);
}
);
hints = (
{
horizontal = 1;
place = (488,-20);
target = down;
type = TopGhost;
},
{
horizontal = 1;
place = (478,-20);
target = down;
type = TopGhost;
},
{
horizontal = 1;
place = (598,128);
type = Stem;
},
{
horizontal = 1;
place = (-249,98);
type = Stem;
},
{
place = (111,81);
type = Stem;
},
{
place = (85,135);
type = Stem;
}
);
layerId = m01;
shapes = (
{
closed = 1;
nodes = (
(190,598,o),
(220,625,o),
(220,662,cs),
(220,701,o),
(190,726,o),
(152,726,cs),
(115,726,o),
(85,701,o),
(85,662,cs),
(85,625,o),
(115,598,o),
(152,598,cs)
);
},
{
closed = 1;
nodes = (
(111,102,ls),
(111,-48,o),
(106,-129,o),
(90,-172,cs),
(86,-184,o),
(80,-192,o),
(74,-199,c),
(51,-181,ls),
(25,-161,o),
(3,-151,o),
(-24,-151,cs),
(-53,-151,o),
(-74,-164,o),
(-83,-192,c),
(-82,-218,o),
(-54,-249,o),
(6,-249,cs),
(65,-249,o),
(100,-228,o),
(133,-193,cs),
(185,-136,o),
(192,-63,o),
(192,100,cs),
(192,342,l),
(195,478,l),
(180,488,l),
(29,427,l),
(29,392,l),
(108,383,l),
(110,343,o),
(111,312,o),
(111,257,cs)
);
}
);
width = 277;
}
);
note = j;
unicode = 106;
},
{
glyphname = k;
kernLeft = b;
kernRight = k;
layers = (
{
anchors = (
{
name = bottom;
pos = (307,-22);
},
{
name = top;
pos = (150,738);
}
);
hints = (
{
horizontal = 1;
place = (739,-20);
target = down;
type = TopGhost;
},
{
horizontal = 1;
place = (731,-20);
target = down;
type = TopGhost;
},
{
horizontal = 1;
place = (436,39);
type = Stem;
},
{
horizontal = 1;
place = (0,36);
type = Stem;
},
{
place = (289,232);
type = Stem;
},
{
place = (107,84);
type = Stem;
}
);
layerId = m01;
shapes = (
{
closed = 1;
nodes = (
(25,694,l),
(25,659,l),
(107,649,l),
(107,210,ls),
(107,158,o),
(106,103,o),
(105,50,c),
(25,36,l),
(25,0,l),
(273,0,l),
(273,36,l),
(193,50,l),
(192,93,o),
(191,137,o),
(191,180,c),
(257,248,l),
(411,0,l),
(547,0,l),
(547,36,l),
(481,48,l),
(317,309,l),
(427,422,l),
(521,436,l),
(521,475,l),
(289,475,l),
(289,436,l),
(362,418,l),
(191,240,l),
(191,589,l),
(195,731,l),
(181,739,l)
);
}
);
width = 547;
}
);
note = k;
unicode = 107;
},
{
glyphname = l;
kernLeft = b;
kernRight = d;
layers = (
{
anchors = (
{
name = bottom;
pos = (152,-22);
},
{
name = top;
pos = (144,738);
}
);
hints = (
{
horizontal = 1;
place = (739,-20);
target = down;
type = TopGhost;
},
{
horizontal = 1;
place = (731,-20);
target = down;
type = TopGhost;
},
{
horizontal = 1;
place = (0,36);
type = Stem;
},
{
place = (107,84);
type = Stem;
}
);
layerId = m01;
shapes = (
{
closed = 1;
nodes = (
(25,694,l),
(25,659,l),
(107,649,l),
(107,210,ls),
(107,157,o),
(106,104,o),
(105,50,c),
(25,36,l),
(25,0,l),
(273,0,l),
(273,36,l),
(193,50,l),
(192,103,o),
(191,157,o),
(191,210,cs),
(191,589,l),
(195,731,l),
(181,739,l)
);
}
);
width = 298;
}
);
note = l;
unicode = 108;
},
{
glyphname = m;
kernLeft = m;
kernRight = h;
layers = (
{
anchors = (
{
name = bottom;
pos = (459,-22);
},
{
name = top;
pos = (452,507);
}
);
hints = (
{
horizontal = 1;
place = (478,-20);
target = down;
type = TopGhost;
},
{
horizontal = 1;
place = (416,72);
type = Stem;
},
{
horizontal = 1;
place = (0,36);
type = Stem;
},
{
place = (716,84);
type = Stem;
},
{
place = (416,84);
type = Stem;
},
{
place = (116,85);
type = Stem;
}
);
layerId = m01;
shapes = (
{
closed = 1;
nodes = (
(608,488,o),
(542,457,o),
(490,394,c),
(474,460,o),
(435,488,o),
(372,488,cs),
(311,488,o),
(245,451,o),
(197,398,c),
(189,478,l),
(174,488,l),
(34,427,l),
(34,392,l),
(113,383,l),
(115,343,o),
(116,313,o),
(116,258,cs),
(116,210,ls),
(116,165,o),
(115,100,o),
(114,50,c),
(40,36,l),
(40,0,l),
(272,0,l),
(272,36,l),
(203,50,l),
(202,100,o),
(201,166,o),
(201,210,cs),
(201,356,l),
(250,398,o),
(288,416,o),
(334,416,cs),
(393,416,o),
(416,386,o),
(416,295,cs),
(416,210,ls),
(416,164,o),
(415,99,o),
(414,50,c),
(340,36,l),
(340,0,l),
(572,0,l),
(572,36,l),
(502,50,l),
(501,100,o),
(500,164,o),
(500,210,cs),
(500,303,ls),
(500,321,o),
(499,338,o),
(498,353,c),
(549,399,o),
(590,416,o),
(632,416,cs),
(690,416,o),
(716,390,o),
(716,297,cs),
(716,210,ls),
(716,164,o),
(715,99,o),
(714,50,c),
(640,36,l),
(640,0,l),
(872,0,l),
(872,36,l),
(802,50,l),
(801,100,o),
(800,164,o),
(800,210,cs),
(800,313,ls),
(800,437,o),
(753,488,o),
(672,488,cs)
);
}
);
width = 901;
}
);
note = m;
unicode = 109;
},
{
glyphname = n;
kernLeft = m;
kernRight = h;
layers = (
{
anchors = (
{
name = bottom;
pos = (313,-22);
},
{
name = top;
pos = (310,507);
}
);
hints = (
{
horizontal = 1;
place = (478,-20);
target = down;
type = TopGhost;
},
{
horizontal = 1;
place = (416,72);
type = Stem;
},
{
horizontal = 1;
place = (0,36);
type = Stem;
},
{
place = (420,84);
type = Stem;
},
{
place = (116,85);
type = Stem;
}
);
layerId = m01;
shapes = (
{
closed = 1;
nodes = (
(314,488,o),
(246,451,o),
(197,397,c),
(189,478,l),
(174,488,l),
(34,427,l),
(34,392,l),
(113,383,l),
(115,343,o),
(116,313,o),
(116,258,cs),
(116,210,ls),
(116,165,o),
(115,100,o),
(114,50,c),
(40,36,l),
(40,0,l),
(272,0,l),
(272,36,l),
(203,50,l),
(202,100,o),
(201,166,o),
(201,210,cs),
(201,356,l),
(252,398,o),
(291,416,o),
(337,416,cs),
(396,416,o),
(420,387,o),
(420,295,cs),
(420,210,ls),
(420,164,o),
(419,99,o),
(418,50,c),
(344,36,l),
(344,0,l),
(576,0,l),
(576,36,l),
(506,50,l),
(505,100,o),
(504,164,o),
(504,210,cs),
(504,303,ls),
(504,434,o),
(462,488,o),
(376,488,cs)
);
}
);
width = 606;
}
);
note = n;
unicode = 110;
},
{
glyphname = o;
kernLeft = c;
kernRight = b;
layers = (
{
anchors = (
{
name = bottom;
pos = (275,-22);
},
{
name = ogonek;
pos = (351,0);
},
{
name = top;
pos = (274,507);
},
{
name = topright;
pos = (393,480);
}
);
hints = (
{
horizontal = 1;
place = (442,46);
type = Stem;
},
{
horizontal = 1;
place = (-13,45);
type = Stem;
},
{
place = (409,95);
type = Stem;
},
{
place = (45,95);
type = Stem;
}
);
layerId = m01;
shapes = (
{
closed = 1;
nodes = (
(390,-13,o),
(504,70,o),
(504,235,cs),
(504,401,o),
(389,488,o),
(274,488,cs),
(158,488,o),
(45,401,o),
(45,235,cs),
(45,70,o),
(157,-13,o),
(274,-13,cs)
);
},
{
closed = 1;
nodes = (
(187,32,o),
(140,101,o),
(140,235,cs),
(140,370,o),
(187,442,o),
(274,442,cs),
(360,442,o),
(409,370,o),
(409,235,cs),
(409,101,o),
(360,32,o),
(274,32,cs)
);
}
);
width = 549;
}
);
note = o;
unicode = 111;
},
{
glyphname = p;
kernLeft = p;
kernRight = b;
layers = (
{
anchors = (
{
name = bottom;
pos = (162,-251);
},
{
name = top;
pos = (304,507);
}
);
hints = (
{
horizontal = 1;
place = (478,-20);
target = down;
type = TopGhost;
},
{
horizontal = 1;
place = (431,57);
type = Stem;
},
{
horizontal = 1;
place = (-13,57);
type = Stem;
},
{
horizontal = 1;
place = (-239,35);
type = Stem;
},
{
place = (448,90);
type = Stem;
},
{
place = (117,85);
type = Stem;
},
{
place = (117,82);
type = Stem;
}
);
layerId = m01;
shapes = (
{
closed = 1;
nodes = (
(448,102,o),
(387,44,o),
(312,44,cs),
(275,44,o),
(239,59,o),
(202,95,c),
(202,376,l),
(253,418,o),
(292,431,o),
(323,431,cs),
(396,431,o),
(448,359,o),
(448,231,cs)
);
},
{
closed = 1;
nodes = (
(117,-28,ls),
(117,-82,o),
(116,-135,o),
(115,-190,c),
(35,-204,l),
(35,-239,l),
(292,-239,l),
(292,-204,l),
(201,-189,l),
(200,-134,o),
(199,-80,o),
(199,-27,cs),
(199,53,l),
(241,3,o),
(286,-13,o),
(332,-13,cs),
(449,-13,o),
(538,85,o),
(538,239,cs),
(538,394,o),
(454,488,o),
(347,488,cs),
(294,488,o),
(243,465,o),
(196,414,c),
(190,478,l),
(175,488,l),
(35,427,l),
(35,392,l),
(114,383,l),
(116,343,o),
(117,313,o),
(117,258,cs)
);
}
);
width = 583;
}
);
note = p;
unicode = 112;
},
{
glyphname = q;
kernLeft = c;
kernRight = q;
layers = (
{
anchors = (
{
name = bottom;
pos = (428,-251);
},
{
name = top;
pos = (301,507);
}
);
hints = (
{
horizontal = 1;
place = (478,-20);
target = down;
type = TopGhost;
},
{
horizontal = 1;
place = (431,57);
type = Stem;
},
{
horizontal = 1;
place = (-13,57);
type = Stem;
},
{
horizontal = 1;
place = (-239,35);
type = Stem;
},
{
place = (393,81);
type = Stem;
},
{
place = (390,84);
type = Stem;
},
{
place = (45,90);
type = Stem;
}
);
layerId = m01;
shapes = (
{
closed = 1;
nodes = (
(135,370,o),
(199,431,o),
(273,431,cs),
(307,431,o),
(342,418,o),
(390,376,c),
(390,107,l),
(351,62,o),
(318,44,o),
(274,44,cs),
(194,44,o),
(135,103,o),
(135,234,cs)
);
},
{
closed = 1;
nodes = (
(474,343,l),
(477,478,l),
(461,488,l),
(393,419,l),
(349,471,o),
(303,488,o),
(255,488,cs),
(136,488,o),
(45,385,o),
(45,232,cs),
(45,86,o),
(127,-13,o),
(249,-13,cs),
(308,-13,o),
(354,11,o),
(393,66,c),
(393,-27,ls),
(393,-80,o),
(392,-135,o),
(391,-189,c),
(299,-204,l),
(299,-239,l),
(556,-239,l),
(556,-204,l),
(476,-190,l),
(475,-135,o),
(474,-81,o),
(474,-27,cs)
);
}
);
width = 557;
}
);
note = q;
unicode = 113;
},
{
glyphname = r;
kernLeft = m;
kernRight = r;
layers = (
{
anchors = (
{
name = bottom;
pos = (164,-22);
},
{
name = top;
pos = (242,507);
}
);
hints = (
{
horizontal = 1;
place = (478,-20);
target = down;
type = TopGhost;
},
{
horizontal = 1;
place = (378,110);
type = Stem;
},
{
horizontal = 1;
place = (0,36);
type = Stem;
},
{
place = (116,85);
type = Stem;
}
);
layerId = m01;
shapes = (
{
closed = 1;
nodes = (
(42,0,l),
(285,0,l),
(285,36,l),
(203,51,l),
(202,101,o),
(201,166,o),
(201,210,cs),
(201,285,l),
(218,342,o),
(244,384,o),
(284,414,c),
(296,403,ls),
(315,387,o),
(334,378,o),
(357,378,cs),
(397,378,o),
(416,404,o),
(416,451,c),
(404,473,o),
(374,488,o),
(344,488,cs),
(290,488,o),
(233,440,o),
(200,360,c),
(189,478,l),
(174,488,l),
(34,427,l),
(34,392,l),
(113,383,l),
(115,343,o),
(116,313,o),
(116,258,cs),
(116,210,ls),
(116,165,o),
(115,99,o),
(114,49,c),
(42,36,l)
);
}
);
width = 423;
}
);
note = r;
unicode = 114;
},
{
glyphname = s;
kernLeft = s;
kernRight = s;
layers = (
{
anchors = (
{
name = bottom;
pos = (215,0);
},
{
name = bottom_;
pos = (218,-22);
},
{
name = top;
pos = (226,507);
}
);
hints = (
{
horizontal = 1;
place = (442,46);
type = Stem;
},
{
horizontal = 1;
place = (-13,45);
type = Stem;
},
{
place = (314,81);
type = Stem;
},
{
place = (54,80);
type = Stem;
}
);
layerId = m01;
shapes = (
{
closed = 1;
nodes = (
(329,-13,o),
(395,54,o),
(395,130,cs),
(395,193,o),
(357,240,o),
(257,277,cs),
(226,288,ls),
(158,313,o),
(134,330,o),
(134,374,cs),
(134,415,o),
(166,442,o),
(227,442,cs),
(251,442,o),
(274,436,o),
(296,425,c),
(312,345,l),
(364,345,l),
(368,447,l),
(325,473,o),
(282,488,o),
(228,488,cs),
(116,488,o),
(54,420,o),
(54,347,cs),
(54,279,o),
(102,239,o),
(175,212,cs),
(221,195,ls),
(284,173,o),
(314,151,o),
(314,108,cs),
(314,63,o),
(278,32,o),
(202,32,cs),
(171,32,o),
(145,37,o),
(121,48,c),
(102,135,l),
(47,135,l),
(51,25,l),
(100,0,o),
(144,-13,o),
(200,-13,cs)
);
}
);
width = 434;
}
);
note = s;
unicode = 115;
},
{
glyphname = t;
kernLeft = t;
kernRight = t;
layers = (
{
anchors = (
{
name = bottom;
pos = (194,0);
},
{
name = bottom_;
pos = (194,-22);
},
{
name = top;
pos = (162,638);
}
);
hints = (
{
horizontal = 1;
place = (422,55);
type = Stem;
},
{
horizontal = 1;
place = (422,53);
type = Stem;
},
{
horizontal = 1;
place = (-13,52);
type = Stem;
},
{
place = (92,89.5);
type = Stem;
},
{
place = (92,85);
type = Stem;
}
);
layerId = m01;
shapes = (
{
closed = 1;
nodes = (
(177,422,l),
(313,422,l),
(313,475,l),
(179,475,l),
(184,611,l),
(124,611,l),
(98,477,l),
(9,466,l),
(9,422,l),
(92,422,l),
(92,186,ls),
(92,147,o),
(91,126,o),
(91,101,cs),
(91,23,o),
(135,-13,o),
(205,-13,cs),
(256,-13,o),
(297,6,o),
(323,40,c),
(299,66,l),
(274,48,o),
(254,39,o),
(232,39,cs),
(198,39,o),
(177,61,o),
(177,112,cs)
);
}
);
width = 325;
}
);
note = t;
unicode = 116;
},
{
glyphname = u;
kernLeft = u;
kernRight = u;
layers = (
{
anchors = (
{
name = bottom;
pos = (300,-22);
},
{
name = ogonek;
pos = (494,0);
},
{
name = top;
pos = (283,507);
},
{
name = topright;
pos = (453,471);
}
);
hints = (
{
horizontal = 1;
place = (481,-20);
target = down;
type = TopGhost;
},
{
horizontal = 1;
place = (417,64);
type = Stem;
},
{
horizontal = 1;
place = (416,65);
type = Stem;
},
{
horizontal = 1;
place = (-8,58);
type = Stem;
},
{
horizontal = 1;
place = (-13,71);
type = Stem;
},
{
horizontal = 1;
place = (0,21);
target = up;
type = BottomGhost;
},
{
horizontal = 1;
place = (-8,21);
target = up;
type = BottomGhost;
},
{
place = (405,76);
type = Stem;
},
{
place = (398.5,82.5);
type = Stem;
},
{
place = (94.5,82.5);
type = Stem;
}
);
layerId = m01;
shapes = (
{
closed = 1;
nodes = (
(549,0,l),
(549,36,l),
(481,50,l),
(481,331,l),
(484,471,l),
(474,481,l),
(329,467,l),
(329,431,l),
(400,417,l),
(397,123,l),
(351,80,o),
(303,58,o),
(257,58,cs),
(203,58,o),
(177,89,o),
(177,176,cs),
(177,331,l),
(182,471,l),
(172,481,l),
(25,467,l),
(25,431,l),
(96,416,l),
(93,167,ls),
(92,35,o),
(142,-13,o),
(223,-13,cs),
(283,-13,o),
(346,15,o),
(400,81,c),
(410,-8,l)
);
}
);
width = 583;
}
);
note = u;
unicode = 117;
},
{
glyphname = v;
kernLeft = v;
kernRight = v;
layers = (
{
anchors = (
{
name = bottom;
pos = (254,-22);
},
{
name = top;
pos = (264,507);
}
);
hints = (
{
horizontal = 1;
place = (436,39);
type = Stem;
},
{
horizontal = 1;
place = (-6,21);
target = up;
type = BottomGhost;
},
{
place = (306,190);
type = Stem;
}
);
layerId = m01;
shapes = (
{
closed = 1;
nodes = (
(306,436,l),
(388,422,l),
(276,102,l),
(154,423,l),
(242,436,l),
(242,475,l),
(0,475,l),
(0,436,l),
(54,426,l),
(236,-6,l),
(279,-6,l),
(441,423,l),
(496,436,l),
(496,475,l),
(306,475,l)
);
}
);
width = 505;
}
);
note = v;
unicode = 118;
},
{
glyphname = w;
kernLeft = v;
kernRight = v;
layers = (
{
anchors = (
{
name = bottom;
pos = (388,-22);
},
{
name = top;
pos = (392,507);
}
);
hints = (
{
horizontal = 1;
place = (436,39);
type = Stem;
},
{
horizontal = 1;
place = (-6,21);
target = up;
type = BottomGhost;
},
{
place = (571,183);
type = Stem;
},
{
place = (291,221);
type = Stem;
},
{
place = (0,228);
type = Stem;
}
);
layerId = m01;
shapes = (
{
closed = 1;
nodes = (
(571,436,l),
(645,422,l),
(552,119,l),
(438,423,l),
(512,436,l),
(512,475,l),
(291,475,l),
(291,436,l),
(365,424,l),
(253,117,l),
(150,424,l),
(228,436,l),
(228,475,l),
(0,475,l),
(0,436,l),
(57,426,l),
(218,-6,l),
(255,-6,l),
(387,348,l),
(517,-6,l),
(554,-6,l),
(700,423,l),
(754,436,l),
(754,475,l),
(571,475,l)
);
}
);
width = 764;
}
);
note = w;
unicode = 119;
},
{
glyphname = x;
kernLeft = x;
kernRight = x;
layers = (
{
anchors = (
{
name = bottom;
pos = (253,-22);
},
{
name = top;
pos = (269,507);
}
);
hints = (
{
horizontal = 1;
place = (436,39);
type = Stem;
},
{
horizontal = 1;
place = (0,36);
type = Stem;
},
{
place = (316,187);
type = Stem;
},
{
place = (17,223);
type = Stem;
},
{
place = (10,200);
type = Stem;
}
);
layerId = m01;
shapes = (
{
closed = 1;
nodes = (
(316,436,l),
(382,423,l),
(275,286,l),
(179,425,l),
(240,436,l),
(240,475,l),
(17,475,l),
(17,436,l),
(86,425,l),
(220,229,l),
(74,48,l),
(10,36,l),
(10,0,l),
(210,0,l),
(210,36,l),
(135,49,l),
(245,192,l),
(343,49,l),
(272,36,l),
(272,0,l),
(516,0,l),
(516,36,l),
(440,50,l),
(301,249,l),
(444,425,l),
(503,436,l),
(503,475,l),
(316,475,l)
);
}
);
width = 526;
}
);
note = x;
unicode = 120;
},
{
glyphname = y;
kernLeft = y;
kernRight = v;
layers = (
{
anchors = (
{
name = bottom;
pos = (124,-254);
},
{
name = top;
pos = (271,507);
}
);
hints = (
{
horizontal = 1;
place = (439,36);
type = Stem;
},
{
horizontal = 1;
place = (435,40);
type = Stem;
},
{
horizontal = 1;
place = (433,42);
type = Stem;
},
{
horizontal = 1;
place = (-249,110);
type = Stem;
},
{
place = (317,195);
type = Stem;
},
{
place = (0,512);
type = Stem;
}
);
layerId = m01;
shapes = (
{
closed = 1;
nodes = (
(174,-249,o),
(230,-174,o),
(297,3,cs),
(458,428,l),
(512,439,l),
(512,475,l),
(317,475,l),
(317,439,l),
(404,427,l),
(281,87,l),
(156,428,l),
(244,438,l),
(244,475,l),
(4,475,l),
(4,439,l),
(59,431,l),
(240,-26,l),
(236,-38,ls),
(217,-92,o),
(188,-146,o),
(146,-182,c),
(141,-177,ls),
(114,-149,o),
(93,-139,o),
(67,-139,cs),
(36,-139,o),
(7,-154,o),
(0,-183,c),
(0,-222,o),
(42,-249,o),
(92,-249,cs)
);
}
);
width = 512;
}
);
note = y;
unicode = 121;
},
{
glyphname = z;
kernLeft = z;
kernRight = z;
layers = (
{
anchors = (
{
name = bottom;
pos = (241,-22);
},
{
name = top;
pos = (239,507);
}
);
hints = (
{
horizontal = 1;
place = (432,43);
type = Stem;
},
{
horizontal = 1;
place = (323,152);
type = Stem;
},
{
horizontal = 1;
place = (0,163);
type = Stem;
},
{
horizontal = 1;
place = (0,42);
type = Stem;
},
{
place = (29,402);
type = Stem;
}
);
layerId = m01;
shapes = (
{
closed = 1;
nodes = (
(43,475,l),
(35,325,l),
(87,321,l),
(114,432,l),
(315,432,l),
(29,35,l),
(29,0,l),
(421,0,l),
(431,163,l),
(379,163,l),
(349,42,l),
(131,42,l),
(416,439,l),
(416,475,l)
);
}
);
width = 456;
}
);
note = z;
unicode = 122;
},
{
glyphname = Agrave;
kernLeft = A;
kernRight = A;
layers = (
{
hints = (
{
horizontal = 1;
place = (674,-20);
target = down;
type = TopGhost;
},
{
horizontal = 1;
place = (217,47);
type = Stem;
},
{
horizontal = 1;
place = (0,47);
type = Stem;
},
{
horizontal = 1;
place = (0,45.5);
type = Stem;
},
{
place = (5,648);
type = Stem;
},
{
place = (5,229);
type = Stem;
}
);
layerId = m01;
shapes = (
{
closed = 1;
nodes = (
(309,562,l),
(409,264,l),
(208,264,l)
);
},
{
closed = 1;
nodes = (
(5,0,l),
(234,0,l),
(234,41,l),
(136,54,l),
(192,217,l),
(424,217,l),
(479,53,l),
(381,41,l),
(381,0,l),
(653,0,l),
(653,41,l),
(578,50,l),
(365,674,l),
(302,674,l),
(89,54,l),
(5,41,l)
);
},
{
closed = 1;
nodes = (
(397,745,l),
(367,777,o),
(336,808,o),
(303,839,cs),
(275,867,o),
(258,877,o),
(241,877,cs),
(220,877,o),
(203,863,o),
(203,843,cs),
(203,825,o),
(215,808,o),
(253,787,cs),
(294,765,o),
(336,742,o),
(379,720,c)
);
}
);
width = 664;
}
);
note = Agrave;
unicode = 192;
},
{
glyphname = Aacute;
kernLeft = A;
kernRight = A;
layers = (
{
hints = (
{
horizontal = 1;
place = (674,-20);
target = down;
type = TopGhost;
},
{
horizontal = 1;
place = (217,47);
type = Stem;
},
{
horizontal = 1;
place = (0,47);
type = Stem;
},
{
horizontal = 1;
place = (0,45.5);
type = Stem;
},
{
place = (5,648);
type = Stem;
},
{
place = (5,229);
type = Stem;
}
);
layerId = m01;
shapes = (
{
closed = 1;
nodes = (
(309,562,l),
(409,264,l),
(208,264,l)
);
},
{
closed = 1;
nodes = (
(5,0,l),
(234,0,l),
(234,41,l),
(136,54,l),
(192,217,l),
(424,217,l),
(479,53,l),
(381,41,l),
(381,0,l),
(653,0,l),
(653,41,l),
(578,50,l),
(365,674,l),
(302,674,l),
(89,54,l),
(5,41,l)
);
},
{
closed = 1;
nodes = (
(284,720,l),
(326,742,o),
(368,765,o),
(410,788,cs),
(448,809,o),
(460,825,o),
(460,843,cs),
(460,863,o),
(443,877,o),
(422,877,cs),
(405,877,o),
(388,867,o),
(360,839,cs),
(328,809,o),
(297,778,o),
(266,745,c)
);
}
);
width = 664;
}
);
note = Aacute;
unicode = 193;
},
{
glyphname = Acircumflex;
kernLeft = A;
kernRight = A;
layers = (
{
hints = (
{
horizontal = 1;
place = (674,-20);
target = down;
type = TopGhost;
},
{
horizontal = 1;
place = (217,47);
type = Stem;
},
{
horizontal = 1;
place = (0,47);
type = Stem;
},
{
horizontal = 1;
place = (0,45.5);
type = Stem;
},
{
place = (5,648);
type = Stem;
},
{
place = (5,229);
type = Stem;
}
);
layerId = m01;
shapes = (
{
closed = 1;
nodes = (
(309,562,l),
(409,264,l),
(208,264,l)
);
},
{
closed = 1;
nodes = (
(5,0,l),
(234,0,l),
(234,41,l),
(136,54,l),
(192,217,l),
(424,217,l),
(479,53,l),
(381,41,l),
(381,0,l),
(653,0,l),
(653,41,l),
(578,50,l),
(365,674,l),
(302,674,l),
(89,54,l),
(5,41,l)
);
},
{
closed = 1;
nodes = (
(349,837,l),
(315,837,l),
(184,722,l),
(203,697,l),
(332,771,l),
(461,697,l),
(480,722,l)
);
}
);
width = 664;
}
);
note = Acircumflex;
unicode = 194;
},
{
glyphname = Atilde;
kernLeft = A;
kernRight = A;
layers = (
{
hints = (
{
horizontal = 1;
place = (674,-20);
target = down;
type = TopGhost;
},
{
horizontal = 1;
place = (804,59);
type = Stem;
},
{
horizontal = 1;
place = (723,58);
type = Stem;
},
{
horizontal = 1;
place = (217,47);
type = Stem;
},
{
horizontal = 1;
place = (0,47);
type = Stem;
},
{
horizontal = 1;
place = (0,45.5);
type = Stem;
},
{
place = (5,648);
type = Stem;
},
{
place = (5,229);
type = Stem;
}
);
layerId = m01;
shapes = (
{
closed = 1;
nodes = (
(309,562,l),
(409,264,l),
(208,264,l)
);
},
{
closed = 1;
nodes = (
(5,0,l),
(234,0,l),
(234,41,l),
(136,54,l),
(192,217,l),
(424,217,l),
(479,53,l),
(381,41,l),
(381,0,l),
(653,0,l),
(653,41,l),
(578,50,l),
(365,674,l),
(302,674,l),
(89,54,l),
(5,41,l)
);
},
{
closed = 1;
nodes = (
(181,725,l),
(196,774,o),
(217,804,o),
(249,804,cs),
(279,804,o),
(300,777,o),
(325,756,cs),
(347,739,o),
(370,723,o),
(407,723,cs),
(468,723,o),
(498,774,o),
(511,851,c),
(481,861,l),
(466,812,o),
(446,781,o),
(413,781,cs),
(383,781,o),
(362,809,o),
(337,829,cs),
(314,847,o),
(292,863,o),
(256,863,cs),
(195,863,o),
(163,812,o),
(151,734,c)
);
}
);
width = 664;
}
);
note = Atilde;
unicode = 195;
},
{
glyphname = Adieresis;
kernLeft = A;
kernRight = A;
layers = (
{
hints = (
{
horizontal = 1;
place = (674,-20);
target = down;
type = TopGhost;
},
{
horizontal = 1;
place = (744,110);
type = Stem;
},
{
horizontal = 1;
place = (217,47);
type = Stem;
},
{
horizontal = 1;
place = (0,47);
type = Stem;
},
{
horizontal = 1;
place = (0,45.5);
type = Stem;
},
{
place = (386,115);
type = Stem;
},
{
place = (162,115);
type = Stem;
},
{
place = (5,229);
type = Stem;
}
);
layerId = m01;
shapes = (
{
closed = 1;
nodes = (
(309,562,l),
(409,264,l),
(208,264,l)
);
},
{
closed = 1;
nodes = (
(5,0,l),
(234,0,l),
(234,41,l),
(136,54,l),
(192,217,l),
(424,217,l),
(479,53,l),
(381,41,l),
(381,0,l),
(653,0,l),
(653,41,l),
(578,50,l),
(365,674,l),
(302,674,l),
(89,54,l),
(5,41,l)
);
},
{
closed = 1;
nodes = (
(252,744,o),
(277,767,o),
(277,799,cs),
(277,831,o),
(252,854,o),
(220,854,cs),
(189,854,o),
(162,831,o),
(162,799,cs),
(162,767,o),
(189,744,o),
(220,744,cs)
);
},
{
closed = 1;
nodes = (
(474,744,o),
(501,767,o),
(501,799,cs),
(501,831,o),
(474,854,o),
(443,854,cs),
(411,854,o),
(386,831,o),
(386,799,cs),
(386,767,o),
(411,744,o),
(443,744,cs)
);
}
);
width = 664;
}
);
note = Adieresis;
unicode = 196;
},
{
glyphname = Amacron;
kernLeft = A;
kernRight = A;
layers = (
{
hints = (
{
horizontal = 1;
place = (674,-20);
target = down;
type = TopGhost;
},
{
horizontal = 1;
place = (758,63);
type = Stem;
},
{
horizontal = 1;
place = (217,47);
type = Stem;
},
{
horizontal = 1;
place = (0,47);
type = Stem;
},
{
horizontal = 1;
place = (0,45.5);
type = Stem;
},
{
place = (5,648);
type = Stem;
},
{
place = (5,229);
type = Stem;
}
);
layerId = m01;
shapes = (
{
closed = 1;
nodes = (
(181,758,l),
(483,758,l),
(483,821,l),
(181,821,l)
);
},
{
closed = 1;
nodes = (
(309,562,l),
(409,264,l),
(208,264,l)
);
},
{
closed = 1;
nodes = (
(5,0,l),
(234,0,l),
(234,41,l),
(136,54,l),
(192,217,l),
(424,217,l),
(479,53,l),
(381,41,l),
(381,0,l),
(653,0,l),
(653,41,l),
(578,50,l),
(365,674,l),
(302,674,l),
(89,54,l),
(5,41,l)
);
}
);
width = 664;
}
);
note = Amacron;
unicode = 256;
},
{
glyphname = Abreve;
kernLeft = A;
kernRight = A;
layers = (
{
hints = (
{
horizontal = 1;
place = (674,-20);
target = down;
type = TopGhost;
},
{
horizontal = 1;
place = (721,61);
type = Stem;
},
{
horizontal = 1;
place = (217,47);
type = Stem;
},
{
horizontal = 1;
place = (0,47);
type = Stem;
},
{
horizontal = 1;
place = (0,45.5);
type = Stem;
},
{
place = (5,648);
type = Stem;
},
{
place = (5,229);
type = Stem;
}
);
layerId = m01;
shapes = (
{
closed = 1;
nodes = (
(309,562,l),
(409,264,l),
(208,264,l)
);
},
{
closed = 1;
nodes = (
(5,0,l),
(234,0,l),
(234,41,l),
(136,54,l),
(192,217,l),
(424,217,l),
(479,53,l),
(381,41,l),
(381,0,l),
(653,0,l),
(653,41,l),
(578,50,l),
(365,674,l),
(302,674,l),
(89,54,l),
(5,41,l)
);
},
{
closed = 1;
nodes = (
(191,848,l),
(200,788,o),
(245,721,o),
(335,721,cs),
(425,721,o),
(470,788,o),
(479,848,c),
(448,859,l),
(431,814,o),
(395,782,o),
(335,782,cs),
(276,782,o),
(237,814,o),
(222,859,c)
);
}
);
width = 664;
}
);
note = Abreve;
unicode = 258;
},
{
glyphname = uni1EAE;
kernLeft = A;
kernRight = A;
layers = (
{
hints = (
{
horizontal = 1;
place = (674,-20);
target = down;
type = TopGhost;
},
{
horizontal = 1;
place = (731,60);
type = Stem;
},
{
horizontal = 1;
place = (217,47);
type = Stem;
},
{
horizontal = 1;
place = (0,47);
type = Stem;
},
{
horizontal = 1;
place = (0,45.5);
type = Stem;
},
{
place = (5,648);
type = Stem;
},
{
place = (5,229);
type = Stem;
}
);
layerId = m01;
shapes = (
{
closed = 1;
nodes = (
(309,562,l),
(409,264,l),
(208,264,l)
);
},
{
closed = 1;
nodes = (
(5,0,l),
(234,0,l),
(234,41,l),
(136,54,l),
(192,217,l),
(424,217,l),
(479,53,l),
(381,41,l),
(381,0,l),
(653,0,l),
(653,41,l),
(578,50,l),
(365,674,l),
(302,674,l),
(89,54,l),
(5,41,l)
);
},
{
closed = 1;
nodes = (
(422,731,o),
(465,798,o),
(474,858,c),
(444,868,l),
(429,823,o),
(390,791,o),
(330,791,cs),
(270,791,o),
(234,823,o),
(217,869,c),
(186,858,l),
(195,798,o),
(238,731,o),
(330,731,cs)
);
},
{
closed = 1;
nodes = (
(303,852,l),
(329,832,l),
(407,912,ls),
(429,934,o),
(433,948,o),
(433,963,cs),
(433,981,o),
(415,995,o),
(398,995,cs),
(381,995,o),
(366,982,o),
(352,952,cs)
);
}
);
width = 664;
}
);
note = uni1EAE;
unicode = 7854;
},
{
glyphname = uni1EB6;
kernLeft = A;
kernRight = A;
layers = (
{
hints = (
{
horizontal = 1;
place = (674,-20);
target = down;
type = TopGhost;
},
{
horizontal = 1;
place = (721,61);
type = Stem;
},
{
horizontal = 1;
place = (217,47);
type = Stem;
},
{
horizontal = 1;
place = (0,47);
type = Stem;
},
{
horizontal = 1;
place = (0,45.5);
type = Stem;
},
{
horizontal = 1;
place = (-203,128);
type = Stem;
},
{
place = (262,134);
type = Stem;
},
{
place = (5,229);
type = Stem;
}
);
layerId = m01;
shapes = (
{
closed = 1;
nodes = (
(309,562,l),
(409,264,l),
(208,264,l)
);
},
{
closed = 1;
nodes = (
(5,0,l),
(234,0,l),
(234,41,l),
(136,54,l),
(192,217,l),
(424,217,l),
(479,53,l),
(381,41,l),
(381,0,l),
(653,0,l),
(653,41,l),
(578,50,l),
(365,674,l),
(302,674,l),
(89,54,l),
(5,41,l)
);
},
{
closed = 1;
nodes = (
(191,848,l),
(200,788,o),
(245,721,o),
(335,721,cs),
(425,721,o),
(470,788,o),
(479,848,c),
(448,859,l),
(431,814,o),
(395,782,o),
(335,782,cs),
(276,782,o),
(237,814,o),
(222,859,c)
);
},
{
closed = 1;
nodes = (
(367,-203,o),
(396,-177,o),
(396,-139,cs),
(396,-102,o),
(367,-75,o),
(329,-75,cs),
(291,-75,o),
(262,-102,o),
(262,-139,cs),
(262,-177,o),
(291,-203,o),
(329,-203,cs)
);
}
);
width = 664;
}
);
note = uni1EB6;
unicode = 7862;
},
{
glyphname = uni1EB0;
kernLeft = A;
kernRight = A;
layers = (
{
hints = (
{
horizontal = 1;
place = (674,-20);
target = down;
type = TopGhost;
},
{
horizontal = 1;
place = (731,60);
type = Stem;
},
{
horizontal = 1;
place = (217,47);
type = Stem;
},
{
horizontal = 1;
place = (0,47);
type = Stem;
},
{
horizontal = 1;
place = (0,45.5);
type = Stem;
},
{
place = (5,648);
type = Stem;
},
{
place = (5,229);
type = Stem;
}
);
layerId = m01;
shapes = (
{
closed = 1;
nodes = (
(309,562,l),
(409,264,l),
(208,264,l)
);
},
{
closed = 1;
nodes = (
(5,0,l),
(234,0,l),
(234,41,l),
(136,54,l),
(192,217,l),
(424,217,l),
(479,53,l),
(381,41,l),
(381,0,l),
(653,0,l),
(653,41,l),
(578,50,l),
(365,674,l),
(302,674,l),
(89,54,l),
(5,41,l)
);
},
{
closed = 1;
nodes = (
(422,731,o),
(465,798,o),
(474,858,c),
(443,869,l),
(426,823,o),
(390,791,o),
(330,791,cs),
(270,791,o),
(231,823,o),
(216,868,c),
(186,858,l),
(195,798,o),
(238,731,o),
(330,731,cs)
);
},
{
closed = 1;
nodes = (
(357,852,l),
(308,952,ls),
(294,982,o),
(279,995,o),
(262,995,cs),
(245,995,o),
(227,981,o),
(227,963,cs),
(227,948,o),
(231,934,o),
(253,912,cs),
(331,832,l)
);
}
);
width = 664;
}
);
note = uni1EB0;
unicode = 7856;
},
{
glyphname = uni1EB2;
kernLeft = A;
kernRight = A;
layers = (
{
hints = (
{
horizontal = 1;
place = (674,-20);
target = down;
type = TopGhost;
},
{
horizontal = 1;
place = (922,67);
type = Stem;
},
{
horizontal = 1;
place = (731,61);
type = Stem;
},
{
horizontal = 1;
place = (217,47);
type = Stem;
},
{
horizontal = 1;
place = (0,47);
type = Stem;
},
{
horizontal = 1;
place = (0,45.5);
type = Stem;
},
{
place = (355,49);
type = Stem;
},
{
place = (5,229);
type = Stem;
}
);
layerId = m01;
shapes = (
{
closed = 1;
nodes = (
(309,562,l),
(409,264,l),
(208,264,l)
);
},
{
closed = 1;
nodes = (
(5,0,l),
(234,0,l),
(234,41,l),
(136,54,l),
(192,217,l),
(424,217,l),
(479,53,l),
(381,41,l),
(381,0,l),
(653,0,l),
(653,41,l),
(578,50,l),
(365,674,l),
(302,674,l),
(89,54,l),
(5,41,l)
);
},
{
closed = 1;
nodes = (
(186,858,l),
(195,798,o),
(240,731,o),
(330,731,cs),
(420,731,o),
(465,798,o),
(474,858,c),
(443,869,l),
(426,824,o),
(390,792,o),
(330,792,cs),
(271,792,o),
(232,824,o),
(217,869,c)
);
},
{
closed = 1;
nodes = (
(311,824,l),
(369,832,o),
(404,861,o),
(404,902,cs),
(404,952,o),
(363,982,o),
(282,989,c),
(272,922,l),
(329,917,o),
(355,907,o),
(355,888,cs),
(355,872,o),
(340,863,o),
(302,855,c)
);
}
);
width = 664;
}
);
note = uni1EB2;
unicode = 7858;
},
{
glyphname = uni1EB4;
kernLeft = A;
kernRight = A;
layers = (
{
hints = (
{
horizontal = 1;
place = (674,-20);
target = down;
type = TopGhost;
},
{
horizontal = 1;
place = (910,54);
type = Stem;
},
{
horizontal = 1;
place = (864,54);
type = Stem;
},
{
horizontal = 1;
place = (731,60);
type = Stem;
},
{
horizontal = 1;
place = (217,47);
type = Stem;
},
{
horizontal = 1;
place = (0,47);
type = Stem;
},
{
horizontal = 1;
place = (0,45.5);
type = Stem;
},
{
place = (5,648);
type = Stem;
},
{
place = (5,229);
type = Stem;
}
);
layerId = m01;
shapes = (
{
closed = 1;
nodes = (
(309,562,l),
(409,264,l),
(208,264,l)
);
},
{
closed = 1;
nodes = (
(5,0,l),
(234,0,l),
(234,41,l),
(136,54,l),
(192,217,l),
(424,217,l),
(479,53,l),
(381,41,l),
(381,0,l),
(653,0,l),
(653,41,l),
(578,50,l),
(365,674,l),
(302,674,l),
(89,54,l),
(5,41,l)
);
},
{
closed = 1;
nodes = (
(191,864,l),
(203,893,o),
(223,910,o),
(253,910,cs),
(280,910,o),
(302,898,o),
(323,886,cs),
(343,874,o),
(364,864,o),
(398,864,cs),
(454,864,o),
(484,899,o),
(493,953,c),
(469,964,l),
(457,935,o),
(437,918,o),
(407,918,cs),
(380,918,o),
(359,930,o),
(337,942,cs),
(316,954,o),
(296,964,o),
(262,964,cs),
(207,964,o),
(175,928,o),
(167,874,c)
);
},
{
closed = 1;
nodes = (
(420,731,o),
(455,788,o),
(471,839,c),
(444,849,l),
(422,814,o),
(390,791,o),
(330,791,cs),
(270,791,o),
(240,814,o),
(217,850,c),
(189,839,l),
(205,788,o),
(240,731,o),
(330,731,cs)
);
}
);
width = 664;
}
);
note = uni1EB4;
unicode = 7860;
},
{
glyphname = uni01CD;
kernLeft = A;
kernRight = A;
layers = (
{
hints = (
{
horizontal = 1;
place = (674,-20);
target = down;
type = TopGhost;
},
{
horizontal = 1;
place = (729,54);
type = Stem;
},
{
horizontal = 1;
place = (217,47);
type = Stem;
},
{
horizontal = 1;
place = (0,47);
type = Stem;
},
{
horizontal = 1;
place = (0,45.5);
type = Stem;
},
{
place = (5,648);
type = Stem;
},
{
place = (5,229);
type = Stem;
}
);
layerId = m01;
shapes = (
{
closed = 1;
nodes = (
(309,562,l),
(409,264,l),
(208,264,l)
);
},
{
closed = 1;
nodes = (
(5,0,l),
(234,0,l),
(234,41,l),
(136,54,l),
(192,217,l),
(424,217,l),
(479,53,l),
(381,41,l),
(381,0,l),
(653,0,l),
(653,41,l),
(578,50,l),
(365,674,l),
(302,674,l),
(89,54,l),
(5,41,l)
);
},
{
closed = 1;
nodes = (
(215,868,l),
(191,847,l),
(293,729,l),
(367,729,l),
(469,847,l),
(445,868,l),
(330,783,l)
);
}
);
width = 664;
}
);
note = uni01CD;
unicode = 461;
},
{
glyphname = uni1EA4;
kernLeft = A;
kernRight = A;
layers = (
{
hints = (
{
horizontal = 1;
place = (674,-20);
target = down;
type = TopGhost;
},
{
horizontal = 1;
place = (217,47);
type = Stem;
},
{
horizontal = 1;
place = (0,47);
type = Stem;
},
{
horizontal = 1;
place = (0,45.5);
type = Stem;
},
{
place = (5,648);
type = Stem;
},
{
place = (5,229);
type = Stem;
}
);
layerId = m01;
shapes = (
{
closed = 1;
nodes = (
(309,562,l),
(409,264,l),
(208,264,l)
);
},
{
closed = 1;
nodes = (
(5,0,l),
(234,0,l),
(234,41,l),
(136,54,l),
(192,217,l),
(424,217,l),
(479,53,l),
(381,41,l),
(381,0,l),
(653,0,l),
(653,41,l),
(578,50,l),
(365,674,l),
(302,674,l),
(89,54,l),
(5,41,l)
);
},
{
closed = 1;
nodes = (
(201,716,l),
(330,790,l),
(459,716,l),
(478,741,l),
(347,856,l),
(313,856,l),
(182,741,l)
);
},
{
closed = 1;
nodes = (
(453,801,l),
(514,834,ls),
(554,855,o),
(560,868,o),
(560,884,cs),
(560,901,o),
(547,914,o),
(528,914,cs),
(514,914,o),
(497,906,o),
(480,883,cs),
(432,823,l)
);
}
);
width = 664;
}
);
note = uni1EA4;
unicode = 7844;
},
{
glyphname = uni1EAC;
kernLeft = A;
kernRight = A;
layers = (
{
hints = (
{
horizontal = 1;
place = (674,-20);
target = down;
type = TopGhost;
},
{
horizontal = 1;
place = (217,47);
type = Stem;
},
{
horizontal = 1;
place = (0,47);
type = Stem;
},
{
horizontal = 1;
place = (0,45.5);
type = Stem;
},
{
horizontal = 1;
place = (-203,128);
type = Stem;
},
{
place = (261,134);
type = Stem;
},
{
place = (5,229);
type = Stem;
}
);
layerId = m01;
shapes = (
{
closed = 1;
nodes = (
(309,562,l),
(409,264,l),
(208,264,l)
);
},
{
closed = 1;
nodes = (
(5,0,l),
(234,0,l),
(234,41,l),
(136,54,l),
(192,217,l),
(424,217,l),
(479,53,l),
(381,41,l),
(381,0,l),
(653,0,l),
(653,41,l),
(578,50,l),
(365,674,l),
(302,674,l),
(89,54,l),
(5,41,l)
);
},
{
closed = 1;
nodes = (
(349,837,l),
(315,837,l),
(184,722,l),
(203,697,l),
(332,771,l),
(461,697,l),
(480,722,l)
);
},
{
closed = 1;
nodes = (
(366,-203,o),
(395,-177,o),
(395,-139,cs),
(395,-102,o),
(366,-75,o),
(328,-75,cs),
(290,-75,o),
(261,-102,o),
(261,-139,cs),
(261,-177,o),
(290,-203,o),
(328,-203,cs)
);
}
);
width = 664;
}
);
note = uni1EAC;
unicode = 7852;
},
{
glyphname = uni1EA6;
kernLeft = A;
kernRight = A;
layers = (
{
hints = (
{
horizontal = 1;
place = (674,-20);
target = down;
type = TopGhost;
},
{
horizontal = 1;
place = (217,47);
type = Stem;
},
{
horizontal = 1;
place = (0,47);
type = Stem;
},
{
horizontal = 1;
place = (0,45.5);
type = Stem;
},
{
place = (5,648);
type = Stem;
},
{
place = (5,229);
type = Stem;
}
);
layerId = m01;
shapes = (
{
closed = 1;
nodes = (
(309,562,l),
(409,264,l),
(208,264,l)
);
},
{
closed = 1;
nodes = (
(5,0,l),
(234,0,l),
(234,41,l),
(136,54,l),
(192,217,l),
(424,217,l),
(479,53,l),
(381,41,l),
(381,0,l),
(653,0,l),
(653,41,l),
(578,50,l),
(365,674,l),
(302,674,l),
(89,54,l),
(5,41,l)
);
},
{
closed = 1;
nodes = (
(459,716,l),
(478,741,l),
(347,856,l),
(313,856,l),
(182,741,l),
(201,716,l),
(330,790,l)
);
},
{
closed = 1;
nodes = (
(197,803,l),
(219,825,l),
(171,883,ls),
(152,907,o),
(136,914,o),
(122,914,cs),
(104,914,o),
(90,901,o),
(90,884,cs),
(90,868,o),
(96,854,o),
(136,834,cs)
);
}
);
width = 664;
}
);
note = uni1EA6;
unicode = 7846;
},
{
glyphname = uni1EA8;
kernLeft = A;
kernRight = A;
layers = (
{
hints = (
{
horizontal = 1;
place = (674,-20);
target = down;
type = TopGhost;
},
{
horizontal = 1;
place = (884,67);
type = Stem;
},
{
horizontal = 1;
place = (217,47);
type = Stem;
},
{
horizontal = 1;
place = (0,47);
type = Stem;
},
{
horizontal = 1;
place = (0,45.5);
type = Stem;
},
{
place = (494,49);
type = Stem;
},
{
place = (5,229);
type = Stem;
}
);
layerId = m01;
shapes = (
{
closed = 1;
nodes = (
(309,562,l),
(409,264,l),
(208,264,l)
);
},
{
closed = 1;
nodes = (
(5,0,l),
(234,0,l),
(234,41,l),
(136,54,l),
(192,217,l),
(424,217,l),
(479,53,l),
(381,41,l),
(381,0,l),
(653,0,l),
(653,41,l),
(578,50,l),
(365,674,l),
(302,674,l),
(89,54,l),
(5,41,l)
);
},
{
closed = 1;
nodes = (
(201,716,l),
(330,790,l),
(459,716,l),
(478,741,l),
(347,856,l),
(313,856,l),
(182,741,l)
);
},
{
closed = 1;
nodes = (
(450,786,l),
(509,793,o),
(543,823,o),
(543,864,cs),
(543,914,o),
(503,943,o),
(421,951,c),
(411,884,l),
(468,879,o),
(494,868,o),
(494,850,cs),
(494,834,o),
(479,825,o),
(441,817,c)
);
}
);
width = 664;
}
);
note = uni1EA8;
unicode = 7848;
},
{
glyphname = uni1EAA;
kernLeft = A;
kernRight = A;
layers = (
{
hints = (
{
horizontal = 1;
place = (674,-20);
target = down;
type = TopGhost;
},
{
horizontal = 1;
place = (900,54);
type = Stem;
},
{
horizontal = 1;
place = (854,54);
type = Stem;
},
{
horizontal = 1;
place = (217,47);
type = Stem;
},
{
horizontal = 1;
place = (0,47);
type = Stem;
},
{
horizontal = 1;
place = (0,45.5);
type = Stem;
},
{
place = (5,648);
type = Stem;
},
{
place = (5,229);
type = Stem;
}
);
layerId = m01;
shapes = (
{
closed = 1;
nodes = (
(309,562,l),
(409,264,l),
(208,264,l)
);
},
{
closed = 1;
nodes = (
(5,0,l),
(234,0,l),
(234,41,l),
(136,54,l),
(192,217,l),
(424,217,l),
(479,53,l),
(381,41,l),
(381,0,l),
(653,0,l),
(653,41,l),
(578,50,l),
(365,674,l),
(302,674,l),
(89,54,l),
(5,41,l)
);
},
{
closed = 1;
nodes = (
(198,709,l),
(330,768,l),
(462,709,l),
(478,734,l),
(347,829,l),
(313,829,l),
(182,734,l)
);
},
{
closed = 1;
nodes = (
(191,854,l),
(203,883,o),
(223,900,o),
(253,900,cs),
(280,900,o),
(302,888,o),
(323,876,cs),
(343,864,o),
(364,854,o),
(398,854,cs),
(454,854,o),
(484,889,o),
(493,943,c),
(469,954,l),
(457,925,o),
(437,908,o),
(407,908,cs),
(380,908,o),
(359,920,o),
(337,932,cs),
(316,944,o),
(296,954,o),
(262,954,cs),
(207,954,o),
(175,918,o),
(167,864,c)
);
}
);
width = 664;
}
);
note = uni1EAA;
unicode = 7850;
},
{
glyphname = uni1EA0;
kernLeft = A;
kernRight = A;
layers = (
{
hints = (
{
horizontal = 1;
place = (674,-20);
target = down;
type = TopGhost;
},
{
horizontal = 1;
place = (217,47);
type = Stem;
},
{
horizontal = 1;
place = (0,47);
type = Stem;
},
{
horizontal = 1;
place = (0,45.5);
type = Stem;
},
{
horizontal = 1;
place = (-203,128);
type = Stem;
},
{
place = (261,134);
type = Stem;
},
{
place = (5,229);
type = Stem;
}
);
layerId = m01;
shapes = (
{
closed = 1;
nodes = (
(309,562,l),
(409,264,l),
(208,264,l)
);
},
{
closed = 1;
nodes = (
(5,0,l),
(234,0,l),
(234,41,l),
(136,54,l),
(192,217,l),
(424,217,l),
(479,53,l),
(381,41,l),
(381,0,l),
(653,0,l),
(653,41,l),
(578,50,l),
(365,674,l),
(302,674,l),
(89,54,l),
(5,41,l)
);
},
{
closed = 1;
nodes = (
(366,-203,o),
(395,-177,o),
(395,-139,cs),
(395,-102,o),
(366,-75,o),
(328,-75,cs),
(290,-75,o),
(261,-102,o),
(261,-139,cs),
(261,-177,o),
(290,-203,o),
(328,-203,cs)
);
}
);
width = 664;
}
);
note = uni1EA0;
unicode = 7840;
},
{
glyphname = uni1EA2;
kernLeft = A;
kernRight = A;
layers = (
{
hints = (
{
horizontal = 1;
place = (674,-20);
target = down;
type = TopGhost;
},
{
horizontal = 1;
place = (815,67);
type = Stem;
},
{
horizontal = 1;
place = (217,47);
type = Stem;
},
{
horizontal = 1;
place = (0,47);
type = Stem;
},
{
horizontal = 1;
place = (0,45.5);
type = Stem;
},
{
place = (354,49);
type = Stem;
},
{
place = (5,229);
type = Stem;
}
);
layerId = m01;
shapes = (
{
closed = 1;
nodes = (
(309,562,l),
(409,264,l),
(208,264,l)
);
},
{
closed = 1;
nodes = (
(5,0,l),
(234,0,l),
(234,41,l),
(136,54,l),
(192,217,l),
(424,217,l),
(479,53,l),
(381,41,l),
(381,0,l),
(653,0,l),
(653,41,l),
(578,50,l),
(365,674,l),
(302,674,l),
(89,54,l),
(5,41,l)
);
},
{
closed = 1;
nodes = (
(310,717,l),
(368,725,o),
(403,754,o),
(403,795,cs),
(403,845,o),
(362,875,o),
(281,882,c),
(271,815,l),
(328,810,o),
(354,800,o),
(354,781,cs),
(354,765,o),
(339,756,o),
(301,748,c)
);
}
);
width = 664;
}
);
note = uni1EA2;
unicode = 7842;
},
{
glyphname = Aring;
kernLeft = A;
kernRight = A;
layers = (
{
hints = (
{
horizontal = 1;
place = (674,-20);
target = down;
type = TopGhost;
},
{
horizontal = 1;
place = (870,37);
type = Stem;
},
{
horizontal = 1;
place = (722,35);
type = Stem;
},
{
horizontal = 1;
place = (217,47);
type = Stem;
},
{
horizontal = 1;
place = (0,47);
type = Stem;
},
{
horizontal = 1;
place = (0,45.5);
type = Stem;
},
{
place = (384,44);
type = Stem;
},
{
place = (236,44);
type = Stem;
},
{
place = (5,229);
type = Stem;
}
);
layerId = m01;
shapes = (
{
closed = 1;
nodes = (
(309,562,l),
(409,264,l),
(208,264,l)
);
},
{
closed = 1;
nodes = (
(5,0,l),
(234,0,l),
(234,41,l),
(136,54,l),
(192,217,l),
(424,217,l),
(479,53,l),
(381,41,l),
(381,0,l),
(653,0,l),
(653,41,l),
(578,50,l),
(365,674,l),
(302,674,l),
(89,54,l),
(5,41,l)
);
},
{
closed = 1;
nodes = (
(298,757,o),
(280,786,o),
(280,814,cs),
(280,843,o),
(299,870,o),
(332,870,cs),
(366,870,o),
(384,843,o),
(384,814,cs),
(384,786,o),
(365,757,o),
(332,757,cs)
);
},
{
closed = 1;
nodes = (
(381,722,o),
(428,757,o),
(428,814,cs),
(428,874,o),
(381,907,o),
(332,907,cs),
(283,907,o),
(236,872,o),
(236,814,cs),
(236,755,o),
(283,722,o),
(332,722,cs)
);
}
);
width = 664;
}
);
note = Aring;
unicode = 197;
},
{
glyphname = Aogonek;
kernLeft = A;
kernRight = A;
layers = (
{
anchors = (
{
name = top;
pos = (322,691);
}
);
hints = (
{
horizontal = 1;
place = (674,-20);
target = down;
type = TopGhost;
},
{
horizontal = 1;
place = (217,47);
type = Stem;
},
{
horizontal = 1;
place = (0,47);
type = Stem;
},
{
horizontal = 1;
place = (0,45.5);
type = Stem;
},
{
horizontal = 1;
place = (-220,56);
type = Stem;
},
{
place = (449,64);
type = Stem;
},
{
place = (5,229);
type = Stem;
}
);
layerId = m01;
shapes = (
{
closed = 1;
nodes = (
(309,562,l),
(409,264,l),
(208,264,l)
);
},
{
closed = 1;
nodes = (
(5,0,l),
(234,0,l),
(234,41,l),
(136,54,l),
(192,217,l),
(424,217,l),
(479,53,l),
(381,41,l),
(381,0,l),
(528,0,l),
(484,-30,o),
(449,-80,o),
(449,-132,cs),
(449,-187,o),
(488,-220,o),
(543,-220,cs),
(579,-220,o),
(622,-207,o),
(646,-174,c),
(633,-149,l),
(613,-161,o),
(593,-164,o),
(580,-164,cs),
(542,-164,o),
(513,-139,o),
(513,-96,cs),
(513,-62,o),
(530,-26,o),
(561,0,c),
(653,0,l),
(653,41,l),
(578,50,l),
(365,674,l),
(302,674,l),
(89,54,l),
(5,41,l)
);
}
);
width = 664;
}
);
note = Aogonek;
unicode = 260;
},
{
glyphname = AE;
kernLeft = AE;
kernRight = E;
layers = (
{
anchors = (
{
name = top;
pos = (602,691);
}
);
hints = (
{
horizontal = 1;
place = (628,41);
type = Stem;
},
{
horizontal = 1;
place = (619,50);
type = Stem;
},
{
horizontal = 1;
place = (617,52);
type = Stem;
},
{
horizontal = 1;
place = (613,56);
type = Stem;
},
{
horizontal = 1;
place = (492,177);
type = Stem;
},
{
horizontal = 1;
place = (318,47);
type = Stem;
},
{
horizontal = 1;
place = (249,46);
type = Stem;
},
{
horizontal = 1;
place = (0,178);
type = Stem;
},
{
horizontal = 1;
place = (0,50);
type = Stem;
},
{
horizontal = 1;
place = (0,46.5);
type = Stem;
},
{
place = (806,76.5);
type = Stem;
},
{
place = (786,76.5);
type = Stem;
},
{
place = (712,46);
type = Stem;
},
{
place = (458,89);
type = Stem;
},
{
place = (5,229);
type = Stem;
}
);
layerId = m01;
shapes = (
{
closed = 1;
nodes = (
(277,295,l),
(448,613,l),
(458,613,l),
(458,295,l)
);
},
{
closed = 1;
nodes = (
(5,0,l),
(234,0,l),
(234,41,l),
(147,54,l),
(252,249,l),
(458,249,l),
(458,179,o),
(457,114,o),
(456,52,c),
(368,41,l),
(368,0,l),
(879,0,l),
(886,178,l),
(828,178,l),
(806,50,l),
(549,50,l),
(547,133,o),
(547,218,o),
(547,318,c),
(699,318,l),
(712,224,l),
(758,224,l),
(758,460,l),
(712,460,l),
(698,365,l),
(547,365,l),
(547,447,o),
(547,534,o),
(549,619,c),
(786,619,l),
(808,492,l),
(866,492,l),
(859,669,l),
(318,669,l),
(318,628,l),
(395,617,l),
(88,52,l),
(5,41,l)
);
}
);
width = 920;
}
);
note = AE;
unicode = 198;
},
{
glyphname = Ccedilla;
kernLeft = C;
kernRight = C;
layers = (
{
hints = (
{
horizontal = 1;
place = (634,50);
type = Stem;
},
{
horizontal = 1;
place = (-13,48);
type = Stem;
},
{
horizontal = 1;
place = (-15,50);
type = Stem;
},
{
horizontal = 1;
place = (-220,37);
type = Stem;
},
{
place = (412,62);
type = Stem;
},
{
place = (47,109);
type = Stem;
}
);
layerId = m01;
shapes = (
{
closed = 1;
nodes = (
(254,35,o),
(156,139,o),
(156,335,cs),
(156,530,o),
(264,634,o),
(398,634,cs),
(430,634,o),
(464,627,o),
(500,607,c),
(520,491,l),
(582,491,l),
(578,636,l),
(511,675,o),
(440,684,o),
(385,684,cs),
(191,684,o),
(47,537,o),
(47,335,cs),
(47,141,o),
(168,2,o),
(351,-13,c),
(340,-86,l),
(389,-93,o),
(412,-107,o),
(412,-138,cs),
(412,-166,o),
(393,-183,o),
(354,-183,cs),
(336,-183,o),
(322,-182,o),
(306,-180,c),
(299,-211,l),
(312,-215,o),
(333,-220,o),
(362,-220,cs),
(435,-220,o),
(474,-186,o),
(474,-140,cs),
(474,-92,o),
(433,-66,o),
(382,-58,c),
(388,-15,l),
(457,-15,o),
(526,-1,o),
(588,33,c),
(592,178,l),
(530,178,l),
(510,62,l),
(471,43,o),
(429,35,o),
(391,35,cs)
);
}
);
width = 631;
}
);
note = Ccedilla;
unicode = 199;
},
{
glyphname = Cacute;
kernLeft = C;
kernRight = C;
layers = (
{
hints = (
{
horizontal = 1;
place = (634,50);
type = Stem;
},
{
horizontal = 1;
place = (-15,50);
type = Stem;
},
{
place = (47,109);
type = Stem;
}
);
layerId = m01;
shapes = (
{
closed = 1;
nodes = (
(254,35,o),
(156,139,o),
(156,335,cs),
(156,530,o),
(264,634,o),
(398,634,cs),
(430,634,o),
(464,627,o),
(500,607,c),
(520,491,l),
(582,491,l),
(578,636,l),
(511,675,o),
(440,684,o),
(385,684,cs),
(191,684,o),
(47,537,o),
(47,335,cs),
(47,129,o),
(184,-15,o),
(386,-15,cs),
(457,-15,o),
(526,-1,o),
(588,33,c),
(592,178,l),
(530,178,l),
(510,62,l),
(471,43,o),
(429,35,o),
(391,35,cs)
);
},
{
closed = 1;
nodes = (
(338,720,l),
(380,742,o),
(422,765,o),
(464,788,cs),
(502,809,o),
(514,825,o),
(514,843,cs),
(514,863,o),
(497,877,o),
(476,877,cs),
(459,877,o),
(442,867,o),
(414,839,cs),
(382,809,o),
(351,778,o),
(320,745,c)
);
}
);
width = 631;
}
);
note = Cacute;
unicode = 262;
},
{
glyphname = Ccaron;
kernLeft = C;
kernRight = C;
layers = (
{
hints = (
{
horizontal = 1;
place = (729,54);
type = Stem;
},
{
horizontal = 1;
place = (634,50);
type = Stem;
},
{
horizontal = 1;
place = (-15,50);
type = Stem;
},
{
place = (47,109);
type = Stem;
}
);
layerId = m01;
shapes = (
{
closed = 1;
nodes = (
(254,35,o),
(156,139,o),
(156,335,cs),
(156,530,o),
(264,634,o),
(398,634,cs),
(430,634,o),
(464,627,o),
(500,607,c),
(520,491,l),
(582,491,l),
(578,636,l),
(511,675,o),
(440,684,o),
(385,684,cs),
(191,684,o),
(47,537,o),
(47,335,cs),
(47,129,o),
(184,-15,o),
(386,-15,cs),
(457,-15,o),
(526,-1,o),
(588,33,c),
(592,178,l),
(530,178,l),
(510,62,l),
(471,43,o),
(429,35,o),
(391,35,cs)
);
},
{
closed = 1;
nodes = (
(271,868,l),
(247,847,l),
(349,729,l),
(423,729,l),
(525,847,l),
(501,868,l),
(386,783,l)
);
}
);
width = 631;
}
);
note = Ccaron;
unicode = 268;
},
{
glyphname = Ccircumflex;
kernLeft = C;
kernRight = C;
layers = (
{
hints = (
{
horizontal = 1;
place = (634,50);
type = Stem;
},
{
horizontal = 1;
place = (-15,50);
type = Stem;
},
{
place = (47,109);
type = Stem;
}
);
layerId = m01;
shapes = (
{
closed = 1;
nodes = (
(254,35,o),
(156,139,o),
(156,335,cs),
(156,530,o),
(264,634,o),
(398,634,cs),
(430,634,o),
(464,627,o),
(500,607,c),
(520,491,l),
(582,491,l),
(578,636,l),
(511,675,o),
(440,684,o),
(385,684,cs),
(191,684,o),
(47,537,o),
(47,335,cs),
(47,129,o),
(184,-15,o),
(386,-15,cs),
(457,-15,o),
(526,-1,o),
(588,33,c),
(592,178,l),
(530,178,l),
(510,62,l),
(471,43,o),
(429,35,o),
(391,35,cs)
);
},
{
closed = 1;
nodes = (
(395,856,l),
(361,856,l),
(230,741,l),
(249,716,l),
(378,790,l),
(507,716,l),
(526,741,l)
);
}
);
width = 631;
}
);
note = Ccircumflex;
unicode = 264;
},
{
glyphname = Cdotaccent;
kernLeft = C;
kernRight = C;
layers = (
{
hints = (
{
horizontal = 1;
place = (736,128);
type = Stem;
},
{
horizontal = 1;
place = (634,50);
type = Stem;
},
{
horizontal = 1;
place = (-15,50);
type = Stem;
},
{
place = (304,134);
type = Stem;
},
{
place = (47,109);
type = Stem;
}
);
layerId = m01;
shapes = (
{
closed = 1;
nodes = (
(254,35,o),
(156,139,o),
(156,335,cs),
(156,530,o),
(264,634,o),
(398,634,cs),
(430,634,o),
(464,627,o),
(500,607,c),
(520,491,l),
(582,491,l),
(578,636,l),
(511,675,o),
(440,684,o),
(385,684,cs),
(191,684,o),
(47,537,o),
(47,335,cs),
(47,129,o),
(184,-15,o),
(386,-15,cs),
(457,-15,o),
(526,-1,o),
(588,33,c),
(592,178,l),
(530,178,l),
(510,62,l),
(471,43,o),
(429,35,o),
(391,35,cs)
);
},
{
closed = 1;
nodes = (
(409,736,o),
(438,763,o),
(438,800,cs),
(438,838,o),
(409,864,o),
(371,864,cs),
(333,864,o),
(304,838,o),
(304,800,cs),
(304,763,o),
(333,736,o),
(371,736,cs)
);
}
);
width = 631;
}
);
note = Cdotaccent;
unicode = 266;
},
{
glyphname = Dcaron;
kernLeft = B;
kernRight = D;
layers = (
{
hints = (
{
horizontal = 1;
place = (729,54);
type = Stem;
},
{
horizontal = 1;
place = (623,46);
type = Stem;
},
{
horizontal = 1;
place = (622.5,46.5);
type = Stem;
},
{
horizontal = 1;
place = (0,47);
type = Stem;
},
{
horizontal = 1;
place = (0,46.5);
type = Stem;
},
{
place = (554,109);
type = Stem;
},
{
place = (138,95);
type = Stem;
}
);
layerId = m01;
shapes = (
{
closed = 1;
nodes = (
(138,322,ls),
(138,225,o),
(138,137,o),
(136,52,c),
(44,41,l),
(44,0,l),
(320,0,ls),
(515,0,o),
(663,118,o),
(663,334,cs),
(663,551,o),
(531,669,o),
(339,669,cs),
(44,669,l),
(44,628,l),
(136,617,l),
(138,531,o),
(138,445,o),
(138,359,cs)
);
},
{
closed = 1;
nodes = (
(233,359,ls),
(233,448,o),
(233,537,o),
(235,623,c),
(323,623,ls),
(468,623,o),
(554,522,o),
(554,334,cs),
(554,152,o),
(468,47,o),
(314,47,cs),
(235,47,l),
(233,135,o),
(233,224,o),
(233,322,cs)
);
},
{
closed = 1;
nodes = (
(232,868,l),
(208,847,l),
(310,729,l),
(384,729,l),
(486,847,l),
(462,868,l),
(347,783,l)
);
}
);
width = 710;
}
);
note = Dcaron;
unicode = 270;
},
{
glyphname = Dcroat;
kernLeft = B;
kernRight = D;
layers = (
{
hints = (
{
horizontal = 1;
place = (623,46);
type = Stem;
},
{
horizontal = 1;
place = (622.5,46.5);
type = Stem;
},
{
horizontal = 1;
place = (319,47);
type = Stem;
},
{
horizontal = 1;
place = (0,47);
type = Stem;
},
{
horizontal = 1;
place = (0,46.5);
type = Stem;
},
{
place = (554,109);
type = Stem;
},
{
place = (138,95);
type = Stem;
}
);
layerId = m01;
shapes = (
{
closed = 1;
nodes = (
(44,628,l),
(136,617,l),
(138,536,o),
(138,454,o),
(138,366,c),
(44,366,l),
(44,319,l),
(138,319,l),
(138,225,o),
(138,137,o),
(136,52,c),
(44,41,l),
(44,0,l),
(320,0,ls),
(515,0,o),
(663,118,o),
(663,334,cs),
(663,551,o),
(531,669,o),
(339,669,cs),
(44,669,l)
);
},
{
closed = 1;
nodes = (
(386,319,l),
(386,366,l),
(233,366,l),
(233,448,o),
(233,537,o),
(235,623,c),
(323,623,ls),
(468,623,o),
(554,522,o),
(554,334,cs),
(554,152,o),
(468,47,o),
(314,47,cs),
(235,47,l),
(233,131,o),
(233,218,o),
(233,319,c)
);
}
);
width = 710;
}
);
note = Dcroat;
unicode = 272;
},
{
glyphname = uni1E0C;
kernLeft = B;
kernRight = D;
layers = (
{
hints = (
{
horizontal = 1;
place = (623,46);
type = Stem;
},
{
horizontal = 1;
place = (622.5,46.5);
type = Stem;
},
{
horizontal = 1;
place = (0,47);
type = Stem;
},
{
horizontal = 1;
place = (0,46.5);
type = Stem;
},
{
horizontal = 1;
place = (-203,128);
type = Stem;
},
{
place = (554,109);
type = Stem;
},
{
place = (267,134);
type = Stem;
},
{
place = (138,95);
type = Stem;
}
);
layerId = m01;
shapes = (
{
closed = 1;
nodes = (
(138,322,ls),
(138,225,o),
(138,137,o),
(136,52,c),
(44,41,l),
(44,0,l),
(320,0,ls),
(515,0,o),
(663,118,o),
(663,334,cs),
(663,551,o),
(531,669,o),
(339,669,cs),
(44,669,l),
(44,628,l),
(136,617,l),
(138,531,o),
(138,445,o),
(138,359,cs)
);
},
{
closed = 1;
nodes = (
(233,359,ls),
(233,448,o),
(233,537,o),
(235,623,c),
(323,623,ls),
(468,623,o),
(554,522,o),
(554,334,cs),
(554,152,o),
(468,47,o),
(314,47,cs),
(235,47,l),
(233,135,o),
(233,224,o),
(233,322,cs)
);
},
{
closed = 1;
nodes = (
(372,-203,o),
(401,-177,o),
(401,-139,cs),
(401,-102,o),
(372,-75,o),
(334,-75,cs),
(296,-75,o),
(267,-102,o),
(267,-139,cs),
(267,-177,o),
(296,-203,o),
(334,-203,cs)
);
}
);
width = 710;
}
);
note = uni1E0C;
unicode = 7692;
},
{
glyphname = uni1E0E;
kernLeft = B;
kernRight = D;
layers = (
{
hints = (
{
horizontal = 1;
place = (623,46);
type = Stem;
},
{
horizontal = 1;
place = (622.5,46.5);
type = Stem;
},
{
horizontal = 1;
place = (0,47);
type = Stem;
},
{
horizontal = 1;
place = (0,46.5);
type = Stem;
},
{
horizontal = 1;
place = (-176,63);
type = Stem;
},
{
place = (554,109);
type = Stem;
},
{
place = (222,262);
type = Stem;
},
{
place = (138,95);
type = Stem;
}
);
layerId = m01;
shapes = (
{
closed = 1;
nodes = (
(138,322,ls),
(138,225,o),
(138,137,o),
(136,52,c),
(44,41,l),
(44,0,l),
(320,0,ls),
(515,0,o),
(663,118,o),
(663,334,cs),
(663,551,o),
(531,669,o),
(339,669,cs),
(44,669,l),
(44,628,l),
(136,617,l),
(138,531,o),
(138,445,o),
(138,359,cs)
);
},
{
closed = 1;
nodes = (
(233,359,ls),
(233,448,o),
(233,537,o),
(235,623,c),
(323,623,ls),
(468,623,o),
(554,522,o),
(554,334,cs),
(554,152,o),
(468,47,o),
(314,47,cs),
(235,47,l),
(233,135,o),
(233,224,o),
(233,322,cs)
);
},
{
closed = 1;
nodes = (
(222,-176,l),
(484,-176,l),
(484,-113,l),
(222,-113,l)
);
}
);
width = 710;
}
);
note = uni1E0E;
unicode = 7694;
},
{
glyphname = Egrave;
kernLeft = B;
kernRight = E;
layers = (
{
hints = (
{
horizontal = 1;
place = (622.5,46.5);
type = Stem;
},
{
horizontal = 1;
place = (619,50);
type = Stem;
},
{
horizontal = 1;
place = (492,177);
type = Stem;
},
{
horizontal = 1;
place = (318,47);
type = Stem;
},
{
horizontal = 1;
place = (0,178);
type = Stem;
},
{
horizontal = 1;
place = (0,50);
type = Stem;
},
{
horizontal = 1;
place = (0,46.5);
type = Stem;
},
{
place = (490,75.5);
type = Stem;
},
{
place = (470,75.5);
type = Stem;
},
{
place = (394,46);
type = Stem;
},
{
place = (138,95);
type = Stem;
}
);
layerId = m01;
shapes = (
{
closed = 1;
nodes = (
(138,310,ls),
(138,223,o),
(138,136,o),
(136,52,c),
(44,41,l),
(44,0,l),
(562,0,l),
(569,178,l),
(512,178,l),
(490,50,l),
(235,50,l),
(233,133,o),
(233,218,o),
(233,318,c),
(381,318,l),
(394,224,l),
(440,224,l),
(440,460,l),
(394,460,l),
(380,365,l),
(233,365,l),
(233,447,o),
(233,534,o),
(235,619,c),
(470,619,l),
(492,492,l),
(549,492,l),
(542,669,l),
(44,669,l),
(44,628,l),
(136,617,l),
(138,531,o),
(138,445,o),
(138,359,cs)
);
},
{
closed = 1;
nodes = (
(368,745,l),
(338,777,o),
(307,808,o),
(274,839,cs),
(246,867,o),
(229,877,o),
(212,877,cs),
(191,877,o),
(174,863,o),
(174,843,cs),
(174,825,o),
(186,808,o),
(224,787,cs),
(265,765,o),
(307,742,o),
(350,720,c)
);
}
);
width = 603;
}
);
note = Egrave;
unicode = 200;
},
{
glyphname = Eacute;
kernLeft = B;
kernRight = E;
layers = (
{
hints = (
{
horizontal = 1;
place = (622.5,46.5);
type = Stem;
},
{
horizontal = 1;
place = (619,50);
type = Stem;
},
{
horizontal = 1;
place = (492,177);
type = Stem;
},
{
horizontal = 1;
place = (318,47);
type = Stem;
},
{
horizontal = 1;
place = (0,178);
type = Stem;
},
{
horizontal = 1;
place = (0,50);
type = Stem;
},
{
horizontal = 1;
place = (0,46.5);
type = Stem;
},
{
place = (490,75.5);
type = Stem;
},
{
place = (470,75.5);
type = Stem;
},
{
place = (394,46);
type = Stem;
},
{
place = (138,95);
type = Stem;
}
);
layerId = m01;
shapes = (
{
closed = 1;
nodes = (
(138,310,ls),
(138,223,o),
(138,136,o),
(136,52,c),
(44,41,l),
(44,0,l),
(562,0,l),
(569,178,l),
(512,178,l),
(490,50,l),
(235,50,l),
(233,133,o),
(233,218,o),
(233,318,c),
(381,318,l),
(394,224,l),
(440,224,l),
(440,460,l),
(394,460,l),
(380,365,l),
(233,365,l),
(233,447,o),
(233,534,o),
(235,619,c),
(470,619,l),
(492,492,l),
(549,492,l),
(542,669,l),
(44,669,l),
(44,628,l),
(136,617,l),
(138,531,o),
(138,445,o),
(138,359,cs)
);
},
{
closed = 1;
nodes = (
(292,720,l),
(334,742,o),
(376,765,o),
(418,788,cs),
(456,809,o),
(468,825,o),
(468,843,cs),
(468,863,o),
(451,877,o),
(430,877,cs),
(413,877,o),
(396,867,o),
(368,839,cs),
(336,809,o),
(305,778,o),
(274,745,c)
);
}
);
width = 603;
}
);
note = Eacute;
unicode = 201;
},
{
glyphname = Ecircumflex;
kernLeft = B;
kernRight = E;
layers = (
{
hints = (
{
horizontal = 1;
place = (622.5,46.5);
type = Stem;
},
{
horizontal = 1;
place = (619,50);
type = Stem;
},
{
horizontal = 1;
place = (492,177);
type = Stem;
},
{
horizontal = 1;
place = (318,47);
type = Stem;
},
{
horizontal = 1;
place = (0,178);
type = Stem;
},
{
horizontal = 1;
place = (0,50);
type = Stem;
},
{
horizontal = 1;
place = (0,46.5);
type = Stem;
},
{
place = (490,75.5);
type = Stem;
},
{
place = (470,75.5);
type = Stem;
},
{
place = (394,46);
type = Stem;
},
{
place = (138,95);
type = Stem;
}
);
layerId = m01;
shapes = (
{
closed = 1;
nodes = (
(138,310,ls),
(138,223,o),
(138,136,o),
(136,52,c),
(44,41,l),
(44,0,l),
(562,0,l),
(569,178,l),
(512,178,l),
(490,50,l),
(235,50,l),
(233,133,o),
(233,218,o),
(233,318,c),
(381,318,l),
(394,224,l),
(440,224,l),
(440,460,l),
(394,460,l),
(380,365,l),
(233,365,l),
(233,447,o),
(233,534,o),
(235,619,c),
(470,619,l),
(492,492,l),
(549,492,l),
(542,669,l),
(44,669,l),
(44,628,l),
(136,617,l),
(138,531,o),
(138,445,o),
(138,359,cs)
);
},
{
closed = 1;
nodes = (
(358,856,l),
(324,856,l),
(193,741,l),
(212,716,l),
(341,790,l),
(470,716,l),
(489,741,l)
);
}
);
width = 603;
}
);
note = Ecircumflex;
unicode = 202;
},
{
glyphname = Ecaron;
kernLeft = B;
kernRight = E;
layers = (
{
hints = (
{
horizontal = 1;
place = (729,54);
type = Stem;
},
{
horizontal = 1;
place = (622.5,46.5);
type = Stem;
},
{
horizontal = 1;
place = (619,50);
type = Stem;
},
{
horizontal = 1;
place = (492,177);
type = Stem;
},
{
horizontal = 1;
place = (318,47);
type = Stem;
},
{
horizontal = 1;
place = (0,178);
type = Stem;
},
{
horizontal = 1;
place = (0,50);
type = Stem;
},
{
horizontal = 1;
place = (0,46.5);
type = Stem;
},
{
place = (490,75.5);
type = Stem;
},
{
place = (470,75.5);
type = Stem;
},
{
place = (394,46);
type = Stem;
},
{
place = (138,95);
type = Stem;
}
);
layerId = m01;
shapes = (
{
closed = 1;
nodes = (
(138,310,ls),
(138,223,o),
(138,136,o),
(136,52,c),
(44,41,l),
(44,0,l),
(562,0,l),
(569,178,l),
(512,178,l),
(490,50,l),
(235,50,l),
(233,133,o),
(233,218,o),
(233,318,c),
(381,318,l),
(394,224,l),
(440,224,l),
(440,460,l),
(394,460,l),
(380,365,l),
(233,365,l),
(233,447,o),
(233,534,o),
(235,619,c),
(470,619,l),
(492,492,l),
(549,492,l),
(542,669,l),
(44,669,l),
(44,628,l),
(136,617,l),
(138,531,o),
(138,445,o),
(138,359,cs)
);
},
{
closed = 1;
nodes = (
(225,868,l),
(201,847,l),
(303,729,l),
(377,729,l),
(479,847,l),
(455,868,l),
(340,783,l)
);
}
);
width = 603;
}
);
note = Ecaron;
unicode = 282;
},
{
glyphname = Edieresis;
kernLeft = B;
kernRight = E;
layers = (
{
hints = (
{
horizontal = 1;
place = (744,110);
type = Stem;
},
{
horizontal = 1;
place = (622.5,46.5);
type = Stem;
},
{
horizontal = 1;
place = (619,50);
type = Stem;
},
{
horizontal = 1;
place = (492,177);
type = Stem;
},
{
horizontal = 1;
place = (318,47);
type = Stem;
},
{
horizontal = 1;
place = (0,178);
type = Stem;
},
{
horizontal = 1;
place = (0,50);
type = Stem;
},
{
horizontal = 1;
place = (0,46.5);
type = Stem;
},
{
place = (490,75.5);
type = Stem;
},
{
place = (470,75.5);
type = Stem;
},
{
place = (394,46);
type = Stem;
},
{
place = (379,115);
type = Stem;
},
{
place = (155,115);
type = Stem;
},
{
place = (138,95);
type = Stem;
}
);
layerId = m01;
shapes = (
{
closed = 1;
nodes = (
(138,310,ls),
(138,223,o),
(138,136,o),
(136,52,c),
(44,41,l),
(44,0,l),
(562,0,l),
(569,178,l),
(512,178,l),
(490,50,l),
(235,50,l),
(233,133,o),
(233,218,o),
(233,318,c),
(381,318,l),
(394,224,l),
(440,224,l),
(440,460,l),
(394,460,l),
(380,365,l),
(233,365,l),
(233,447,o),
(233,534,o),
(235,619,c),
(470,619,l),
(492,492,l),
(549,492,l),
(542,669,l),
(44,669,l),
(44,628,l),
(136,617,l),
(138,531,o),
(138,445,o),
(138,359,cs)
);
},
{
closed = 1;
nodes = (
(245,744,o),
(270,767,o),
(270,799,cs),
(270,831,o),
(245,854,o),
(213,854,cs),
(182,854,o),
(155,831,o),
(155,799,cs),
(155,767,o),
(182,744,o),
(213,744,cs)
);
},
{
closed = 1;
nodes = (
(467,744,o),
(494,767,o),
(494,799,cs),
(494,831,o),
(467,854,o),
(436,854,cs),
(404,854,o),
(379,831,o),
(379,799,cs),
(379,767,o),
(404,744,o),
(436,744,cs)
);
}
);
width = 603;
}
);
note = Edieresis;
unicode = 203;
},
{
glyphname = Emacron;
kernLeft = B;
kernRight = E;
layers = (
{
hints = (
{
horizontal = 1;
place = (758,63);
type = Stem;
},
{
horizontal = 1;
place = (622.5,46.5);
type = Stem;
},
{
horizontal = 1;
place = (619,50);
type = Stem;
},
{
horizontal = 1;
place = (492,177);
type = Stem;
},
{
horizontal = 1;
place = (318,47);
type = Stem;
},
{
horizontal = 1;
place = (0,178);
type = Stem;
},
{
horizontal = 1;
place = (0,50);
type = Stem;
},
{
horizontal = 1;
place = (0,46.5);
type = Stem;
},
{
place = (490,75.5);
type = Stem;
},
{
place = (470,75.5);
type = Stem;
},
{
place = (394,46);
type = Stem;
},
{
place = (138,95);
type = Stem;
}
);
layerId = m01;
shapes = (
{
closed = 1;
nodes = (
(138,310,ls),
(138,223,o),
(138,136,o),
(136,52,c),
(44,41,l),
(44,0,l),
(562,0,l),
(569,178,l),
(512,178,l),
(490,50,l),
(235,50,l),
(233,133,o),
(233,218,o),
(233,318,c),
(381,318,l),
(394,224,l),
(440,224,l),
(440,460,l),
(394,460,l),
(380,365,l),
(233,365,l),
(233,447,o),
(233,534,o),
(235,619,c),
(470,619,l),
(492,492,l),
(549,492,l),
(542,669,l),
(44,669,l),
(44,628,l),
(136,617,l),
(138,531,o),
(138,445,o),
(138,359,cs)
);
},
{
closed = 1;
nodes = (
(190,758,l),
(492,758,l),
(492,821,l),
(190,821,l)
);
}
);
width = 603;
}
);
note = Emacron;
unicode = 274;
},
{
glyphname = Edotaccent;
kernLeft = B;
kernRight = E;
layers = (
{
hints = (
{
horizontal = 1;
place = (736,128);
type = Stem;
},
{
horizontal = 1;
place = (622.5,46.5);
type = Stem;
},
{
horizontal = 1;
place = (619,50);
type = Stem;
},
{
horizontal = 1;
place = (492,177);
type = Stem;
},
{
horizontal = 1;
place = (318,47);
type = Stem;
},
{
horizontal = 1;
place = (0,178);
type = Stem;
},
{
horizontal = 1;
place = (0,50);
type = Stem;
},
{
horizontal = 1;
place = (0,46.5);
type = Stem;
},
{
place = (490,75.5);
type = Stem;
},
{
place = (470,75.5);
type = Stem;
},
{
place = (394,46);
type = Stem;
},
{
place = (264,134);
type = Stem;
},
{
place = (138,95);
type = Stem;
}
);
layerId = m01;
shapes = (
{
closed = 1;
nodes = (
(138,310,ls),
(138,223,o),
(138,136,o),
(136,52,c),
(44,41,l),
(44,0,l),
(562,0,l),
(569,178,l),
(512,178,l),
(490,50,l),
(235,50,l),
(233,133,o),
(233,218,o),
(233,318,c),
(381,318,l),
(394,224,l),
(440,224,l),
(440,460,l),
(394,460,l),
(380,365,l),
(233,365,l),
(233,447,o),
(233,534,o),
(235,619,c),
(470,619,l),
(492,492,l),
(549,492,l),
(542,669,l),
(44,669,l),
(44,628,l),
(136,617,l),
(138,531,o),
(138,445,o),
(138,359,cs)
);
},
{
closed = 1;
nodes = (
(369,736,o),
(398,763,o),
(398,800,cs),
(398,838,o),
(369,864,o),
(331,864,cs),
(293,864,o),
(264,838,o),
(264,800,cs),
(264,763,o),
(293,736,o),
(331,736,cs)
);
}
);
width = 603;
}
);
note = Edotaccent;
unicode = 278;
},
{
glyphname = Eogonek;
kernLeft = B;
kernRight = E;
layers = (
{
anchors = (
{
name = top;
pos = (326,691);
}
);
hints = (
{
horizontal = 1;
place = (622.5,46.5);
type = Stem;
},
{
horizontal = 1;
place = (619,50);
type = Stem;
},
{
horizontal = 1;
place = (492,177);
type = Stem;
},
{
horizontal = 1;
place = (318,47);
type = Stem;
},
{
horizontal = 1;
place = (0,50);
type = Stem;
},
{
horizontal = 1;
place = (0,46.5);
type = Stem;
},
{
horizontal = 1;
place = (-220,56);
type = Stem;
},
{
place = (490,75.5);
type = Stem;
},
{
place = (470,75.5);
type = Stem;
},
{
place = (394,46);
type = Stem;
},
{
place = (373,64);
type = Stem;
},
{
place = (138,95);
type = Stem;
}
);
layerId = m01;
shapes = (
{
closed = 1;
nodes = (
(138,310,ls),
(138,223,o),
(138,136,o),
(136,52,c),
(44,41,l),
(44,0,l),
(452,0,l),
(408,-30,o),
(373,-80,o),
(373,-132,cs),
(373,-187,o),
(412,-220,o),
(467,-220,cs),
(503,-220,o),
(546,-207,o),
(570,-174,c),
(557,-149,l),
(537,-161,o),
(517,-164,o),
(504,-164,cs),
(466,-164,o),
(437,-139,o),
(437,-96,cs),
(437,-62,o),
(454,-26,o),
(485,0,c),
(562,0,l),
(569,178,l),
(512,178,l),
(490,50,l),
(235,50,l),
(233,133,o),
(233,218,o),
(233,318,c),
(381,318,l),
(394,224,l),
(440,224,l),
(440,460,l),
(394,460,l),
(380,365,l),
(233,365,l),
(233,447,o),
(233,534,o),
(235,619,c),
(470,619,l),
(492,492,l),
(549,492,l),
(542,669,l),
(44,669,l),
(44,628,l),
(136,617,l),
(138,531,o),
(138,445,o),
(138,359,cs)
);
}
);
width = 603;
}
);
note = Eogonek;
unicode = 280;
},
{
glyphname = Ebreve;
kernLeft = B;
kernRight = E;
layers = (
{
hints = (
{
horizontal = 1;
place = (731,61);
type = Stem;
},
{
horizontal = 1;
place = (622.5,46.5);
type = Stem;
},
{
horizontal = 1;
place = (619,50);
type = Stem;
},
{
horizontal = 1;
place = (492,177);
type = Stem;
},
{
horizontal = 1;
place = (318,47);
type = Stem;
},
{
horizontal = 1;
place = (0,178);
type = Stem;
},
{
horizontal = 1;
place = (0,50);
type = Stem;
},
{
horizontal = 1;
place = (0,46.5);
type = Stem;
},
{
place = (490,75.5);
type = Stem;
},
{
place = (470,75.5);
type = Stem;
},
{
place = (394,46);
type = Stem;
},
{
place = (138,95);
type = Stem;
}
);
layerId = m01;
shapes = (
{
closed = 1;
nodes = (
(138,310,ls),
(138,223,o),
(138,136,o),
(136,52,c),
(44,41,l),
(44,0,l),
(562,0,l),
(569,178,l),
(512,178,l),
(490,50,l),
(235,50,l),
(233,133,o),
(233,218,o),
(233,318,c),
(381,318,l),
(394,224,l),
(440,224,l),
(440,460,l),
(394,460,l),
(380,365,l),
(233,365,l),
(233,447,o),
(233,534,o),
(235,619,c),
(470,619,l),
(492,492,l),
(549,492,l),
(542,669,l),
(44,669,l),
(44,628,l),
(136,617,l),
(138,531,o),
(138,445,o),
(138,359,cs)
);
},
{
closed = 1;
nodes = (
(178,858,l),
(187,798,o),
(232,731,o),
(322,731,cs),
(412,731,o),
(457,798,o),
(466,858,c),
(435,869,l),
(418,824,o),
(382,792,o),
(322,792,cs),
(263,792,o),
(224,824,o),
(209,869,c)
);
}
);
width = 603;
}
);
note = Ebreve;
unicode = 276;
},
{
glyphname = uni1EBE;
kernLeft = B;
kernRight = E;
layers = (
{
hints = (
{
horizontal = 1;
place = (622.5,46.5);
type = Stem;
},
{
horizontal = 1;
place = (619,50);
type = Stem;
},
{
horizontal = 1;
place = (492,177);
type = Stem;
},
{
horizontal = 1;
place = (318,47);
type = Stem;
},
{
horizontal = 1;
place = (0,178);
type = Stem;
},
{
horizontal = 1;
place = (0,50);
type = Stem;
},
{
horizontal = 1;
place = (0,46.5);
type = Stem;
},
{
place = (490,75.5);
type = Stem;
},
{
place = (470,75.5);
type = Stem;
},
{
place = (394,46);
type = Stem;
},
{
place = (138,95);
type = Stem;
}
);
layerId = m01;
shapes = (
{
closed = 1;
nodes = (
(138,310,ls),
(138,223,o),
(138,136,o),
(136,52,c),
(44,41,l),
(44,0,l),
(562,0,l),
(569,178,l),
(512,178,l),
(490,50,l),
(235,50,l),
(233,133,o),
(233,218,o),
(233,318,c),
(381,318,l),
(394,224,l),
(440,224,l),
(440,460,l),
(394,460,l),
(380,365,l),
(233,365,l),
(233,447,o),
(233,534,o),
(235,619,c),
(470,619,l),
(492,492,l),
(549,492,l),
(542,669,l),
(44,669,l),
(44,628,l),
(136,617,l),
(138,531,o),
(138,445,o),
(138,359,cs)
);
},
{
closed = 1;
nodes = (
(194,716,l),
(323,790,l),
(452,716,l),
(471,741,l),
(340,856,l),
(306,856,l),
(175,741,l)
);
},
{
closed = 1;
nodes = (
(446,801,l),
(507,834,ls),
(547,855,o),
(553,868,o),
(553,884,cs),
(553,901,o),
(540,914,o),
(521,914,cs),
(507,914,o),
(490,906,o),
(473,883,cs),
(425,823,l)
);
}
);
width = 603;
}
);
note = uni1EBE;
unicode = 7870;
},
{
glyphname = uni1EC6;
kernLeft = B;
kernRight = E;
layers = (
{
hints = (
{
horizontal = 1;
place = (622.5,46.5);
type = Stem;
},
{
horizontal = 1;
place = (619,50);
type = Stem;
},
{
horizontal = 1;
place = (492,177);
type = Stem;
},
{
horizontal = 1;
place = (318,47);
type = Stem;
},
{
horizontal = 1;
place = (0,178);
type = Stem;
},
{
horizontal = 1;
place = (0,50);
type = Stem;
},
{
horizontal = 1;
place = (0,46.5);
type = Stem;
},
{
horizontal = 1;
place = (-203,128);
type = Stem;
},
{
place = (490,75.5);
type = Stem;
},
{
place = (470,75.5);
type = Stem;
},
{
place = (394,46);
type = Stem;
},
{
place = (267,134);
type = Stem;
},
{
place = (138,95);
type = Stem;
}
);
layerId = m01;
shapes = (
{
closed = 1;
nodes = (
(138,310,ls),
(138,223,o),
(138,136,o),
(136,52,c),
(44,41,l),
(44,0,l),
(562,0,l),
(569,178,l),
(512,178,l),
(490,50,l),
(235,50,l),
(233,133,o),
(233,218,o),
(233,318,c),
(381,318,l),
(394,224,l),
(440,224,l),
(440,460,l),
(394,460,l),
(380,365,l),
(233,365,l),
(233,447,o),
(233,534,o),
(235,619,c),
(470,619,l),
(492,492,l),
(549,492,l),
(542,669,l),
(44,669,l),
(44,628,l),
(136,617,l),
(138,531,o),
(138,445,o),
(138,359,cs)
);
},
{
closed = 1;
nodes = (
(358,856,l),
(324,856,l),
(193,741,l),
(212,716,l),
(341,790,l),
(470,716,l),
(489,741,l)
);
},
{
closed = 1;
nodes = (
(372,-203,o),
(401,-177,o),
(401,-139,cs),
(401,-102,o),
(372,-75,o),
(334,-75,cs),
(296,-75,o),
(267,-102,o),
(267,-139,cs),
(267,-177,o),
(296,-203,o),
(334,-203,cs)
);
}
);
width = 603;
}
);
note = uni1EC6;
unicode = 7878;
},
{
glyphname = uni1EC0;
kernLeft = B;
kernRight = E;
layers = (
{
hints = (
{
horizontal = 1;
place = (622.5,46.5);
type = Stem;
},
{
horizontal = 1;
place = (619,50);
type = Stem;
},
{
horizontal = 1;
place = (492,177);
type = Stem;
},
{
horizontal = 1;
place = (318,47);
type = Stem;
},
{
horizontal = 1;
place = (0,178);
type = Stem;
},
{
horizontal = 1;
place = (0,50);
type = Stem;
},
{
horizontal = 1;
place = (0,46.5);
type = Stem;
},
{
place = (490,75.5);
type = Stem;
},
{
place = (470,75.5);
type = Stem;
},
{
place = (394,46);
type = Stem;
},
{
place = (138,95);
type = Stem;
}
);
layerId = m01;
shapes = (
{
closed = 1;
nodes = (
(138,310,ls),
(138,223,o),
(138,136,o),
(136,52,c),
(44,41,l),
(44,0,l),
(562,0,l),
(569,178,l),
(512,178,l),
(490,50,l),
(235,50,l),
(233,133,o),
(233,218,o),
(233,318,c),
(381,318,l),
(394,224,l),
(440,224,l),
(440,460,l),
(394,460,l),
(380,365,l),
(233,365,l),
(233,447,o),
(233,534,o),
(235,619,c),
(470,619,l),
(492,492,l),
(549,492,l),
(542,669,l),
(44,669,l),
(44,628,l),
(136,617,l),
(138,531,o),
(138,445,o),
(138,359,cs)
);
},
{
closed = 1;
nodes = (
(451,716,l),
(470,741,l),
(339,856,l),
(305,856,l),
(174,741,l),
(193,716,l),
(322,790,l)
);
},
{
closed = 1;
nodes = (
(189,803,l),
(211,825,l),
(163,883,ls),
(144,907,o),
(128,914,o),
(114,914,cs),
(96,914,o),
(82,901,o),
(82,884,cs),
(82,868,o),
(88,854,o),
(128,834,cs)
);
}
);
width = 603;
}
);
note = uni1EC0;
unicode = 7872;
},
{
glyphname = uni1EC2;
kernLeft = B;
kernRight = E;
layers = (
{
hints = (
{
horizontal = 1;
place = (884,67);
type = Stem;
},
{
horizontal = 1;
place = (622.5,46.5);
type = Stem;
},
{
horizontal = 1;
place = (619,50);
type = Stem;
},
{
horizontal = 1;
place = (492,177);
type = Stem;
},
{
horizontal = 1;
place = (318,47);
type = Stem;
},
{
horizontal = 1;
place = (0,178);
type = Stem;
},
{
horizontal = 1;
place = (0,50);
type = Stem;
},
{
horizontal = 1;
place = (0,46.5);
type = Stem;
},
{
place = (490,75.5);
type = Stem;
},
{
place = (486,49);
type = Stem;
},
{
place = (470,75.5);
type = Stem;
},
{
place = (394,46);
type = Stem;
},
{
place = (138,95);
type = Stem;
}
);
layerId = m01;
shapes = (
{
closed = 1;
nodes = (
(138,310,ls),
(138,223,o),
(138,136,o),
(136,52,c),
(44,41,l),
(44,0,l),
(562,0,l),
(569,178,l),
(512,178,l),
(490,50,l),
(235,50,l),
(233,133,o),
(233,218,o),
(233,318,c),
(381,318,l),
(394,224,l),
(440,224,l),
(440,460,l),
(394,460,l),
(380,365,l),
(233,365,l),
(233,447,o),
(233,534,o),
(235,619,c),
(470,619,l),
(492,492,l),
(549,492,l),
(542,669,l),
(44,669,l),
(44,628,l),
(136,617,l),
(138,531,o),
(138,445,o),
(138,359,cs)
);
},
{
closed = 1;
nodes = (
(193,716,l),
(322,790,l),
(451,716,l),
(470,741,l),
(339,856,l),
(305,856,l),
(174,741,l)
);
},
{
closed = 1;
nodes = (
(442,786,l),
(501,793,o),
(535,823,o),
(535,864,cs),
(535,914,o),
(495,943,o),
(413,951,c),
(403,884,l),
(460,879,o),
(486,868,o),
(486,850,cs),
(486,834,o),
(471,825,o),
(433,817,c)
);
}
);
width = 603;
}
);
note = uni1EC2;
unicode = 7874;
},
{
glyphname = uni1EC4;
kernLeft = B;
kernRight = E;
layers = (
{
hints = (
{
horizontal = 1;
place = (900,54);
type = Stem;
},
{
horizontal = 1;
place = (854,54);
type = Stem;
},
{
horizontal = 1;
place = (622.5,46.5);
type = Stem;
},
{
horizontal = 1;
place = (619,50);
type = Stem;
},
{
horizontal = 1;
place = (492,177);
type = Stem;
},
{
horizontal = 1;
place = (318,47);
type = Stem;
},
{
horizontal = 1;
place = (0,178);
type = Stem;
},
{
horizontal = 1;
place = (0,50);
type = Stem;
},
{
horizontal = 1;
place = (0,46.5);
type = Stem;
},
{
place = (490,75.5);
type = Stem;
},
{
place = (470,75.5);
type = Stem;
},
{
place = (394,46);
type = Stem;
},
{
place = (138,95);
type = Stem;
}
);
layerId = m01;
shapes = (
{
closed = 1;
nodes = (
(138,310,ls),
(138,223,o),
(138,136,o),
(136,52,c),
(44,41,l),
(44,0,l),
(562,0,l),
(569,178,l),
(512,178,l),
(490,50,l),
(235,50,l),
(233,133,o),
(233,218,o),
(233,318,c),
(381,318,l),
(394,224,l),
(440,224,l),
(440,460,l),
(394,460,l),
(380,365,l),
(233,365,l),
(233,447,o),
(233,534,o),
(235,619,c),
(470,619,l),
(492,492,l),
(549,492,l),
(542,669,l),
(44,669,l),
(44,628,l),
(136,617,l),
(138,531,o),
(138,445,o),
(138,359,cs)
);
},
{
closed = 1;
nodes = (
(190,709,l),
(322,768,l),
(454,709,l),
(470,734,l),
(339,829,l),
(305,829,l),
(174,734,l)
);
},
{
closed = 1;
nodes = (
(183,854,l),
(195,883,o),
(215,900,o),
(245,900,cs),
(272,900,o),
(294,888,o),
(315,876,cs),
(335,864,o),
(356,854,o),
(390,854,cs),
(446,854,o),
(476,889,o),
(485,943,c),
(461,954,l),
(449,925,o),
(429,908,o),
(399,908,cs),
(372,908,o),
(351,920,o),
(329,932,cs),
(308,944,o),
(288,954,o),
(254,954,cs),
(199,954,o),
(167,918,o),
(159,864,c)
);
}
);
width = 603;
}
);
note = uni1EC4;
unicode = 7876;
},
{
glyphname = uni1EB8;
kernLeft = B;
kernRight = E;
layers = (
{
hints = (
{
horizontal = 1;
place = (622.5,46.5);
type = Stem;
},
{
horizontal = 1;
place = (619,50);
type = Stem;
},
{
horizontal = 1;
place = (492,177);
type = Stem;
},
{
horizontal = 1;
place = (318,47);
type = Stem;
},
{
horizontal = 1;
place = (0,178);
type = Stem;
},
{
horizontal = 1;
place = (0,50);
type = Stem;
},
{
horizontal = 1;
place = (0,46.5);
type = Stem;
},
{
horizontal = 1;
place = (-203,128);
type = Stem;
},
{
place = (490,75.5);
type = Stem;
},
{
place = (470,75.5);
type = Stem;
},
{
place = (394,46);
type = Stem;
},
{
place = (267,134);
type = Stem;
},
{
place = (138,95);
type = Stem;
}
);
layerId = m01;
shapes = (
{
closed = 1;
nodes = (
(138,310,ls),
(138,223,o),
(138,136,o),
(136,52,c),
(44,41,l),
(44,0,l),
(562,0,l),
(569,178,l),
(512,178,l),
(490,50,l),
(235,50,l),
(233,133,o),
(233,218,o),
(233,318,c),
(381,318,l),
(394,224,l),
(440,224,l),
(440,460,l),
(394,460,l),
(380,365,l),
(233,365,l),
(233,447,o),
(233,534,o),
(235,619,c),
(470,619,l),
(492,492,l),
(549,492,l),
(542,669,l),
(44,669,l),
(44,628,l),
(136,617,l),
(138,531,o),
(138,445,o),
(138,359,cs)
);
},
{
closed = 1;
nodes = (
(372,-203,o),
(401,-177,o),
(401,-139,cs),
(401,-102,o),
(372,-75,o),
(334,-75,cs),
(296,-75,o),
(267,-102,o),
(267,-139,cs),
(267,-177,o),
(296,-203,o),
(334,-203,cs)
);
}
);
width = 603;
}
);
note = uni1EB8;
unicode = 7864;
},
{
glyphname = uni1EBA;
kernLeft = B;
kernRight = E;
layers = (
{
hints = (
{
horizontal = 1;
place = (815,67);
type = Stem;
},
{
horizontal = 1;
place = (622.5,46.5);
type = Stem;
},
{
horizontal = 1;
place = (619,50);
type = Stem;
},
{
horizontal = 1;
place = (492,177);
type = Stem;
},
{
horizontal = 1;
place = (318,47);
type = Stem;
},
{
horizontal = 1;
place = (0,178);
type = Stem;
},
{
horizontal = 1;
place = (0,50);
type = Stem;
},
{
horizontal = 1;
place = (0,46.5);
type = Stem;
},
{
place = (490,75.5);
type = Stem;
},
{
place = (470,75.5);
type = Stem;
},
{
place = (394,46);
type = Stem;
},
{
place = (347,49);
type = Stem;
},
{
place = (138,95);
type = Stem;
}
);
layerId = m01;
shapes = (
{
closed = 1;
nodes = (
(138,310,ls),
(138,223,o),
(138,136,o),
(136,52,c),
(44,41,l),
(44,0,l),
(562,0,l),
(569,178,l),
(512,178,l),
(490,50,l),
(235,50,l),
(233,133,o),
(233,218,o),
(233,318,c),
(381,318,l),
(394,224,l),
(440,224,l),
(440,460,l),
(394,460,l),
(380,365,l),
(233,365,l),
(233,447,o),
(233,534,o),
(235,619,c),
(470,619,l),
(492,492,l),
(549,492,l),
(542,669,l),
(44,669,l),
(44,628,l),
(136,617,l),
(138,531,o),
(138,445,o),
(138,359,cs)
);
},
{
closed = 1;
nodes = (
(303,717,l),
(361,725,o),
(396,754,o),
(396,795,cs),
(396,845,o),
(355,875,o),
(274,882,c),
(264,815,l),
(321,810,o),
(347,800,o),
(347,781,cs),
(347,765,o),
(332,756,o),
(294,748,c)
);
}
);
width = 603;
}
);
note = uni1EBA;
unicode = 7866;
},
{
glyphname = uni1EBC;
kernLeft = B;
kernRight = E;
layers = (
{
hints = (
{
horizontal = 1;
place = (804,59);
type = Stem;
},
{
horizontal = 1;
place = (723,58);
type = Stem;
},
{
horizontal = 1;
place = (622.5,46.5);
type = Stem;
},
{
horizontal = 1;
place = (619,50);
type = Stem;
},
{
horizontal = 1;
place = (492,177);
type = Stem;
},
{
horizontal = 1;
place = (318,47);
type = Stem;
},
{
horizontal = 1;
place = (0,178);
type = Stem;
},
{
horizontal = 1;
place = (0,50);
type = Stem;
},
{
horizontal = 1;
place = (0,46.5);
type = Stem;
},
{
place = (490,75.5);
type = Stem;
},
{
place = (470,75.5);
type = Stem;
},
{
place = (394,46);
type = Stem;
},
{
place = (138,95);
type = Stem;
}
);
layerId = m01;
shapes = (
{
closed = 1;
nodes = (
(138,310,ls),
(138,223,o),
(138,136,o),
(136,52,c),
(44,41,l),
(44,0,l),
(562,0,l),
(569,178,l),
(512,178,l),
(490,50,l),
(235,50,l),
(233,133,o),
(233,218,o),
(233,318,c),
(381,318,l),
(394,224,l),
(440,224,l),
(440,460,l),
(394,460,l),
(380,365,l),
(233,365,l),
(233,447,o),
(233,534,o),
(235,619,c),
(470,619,l),
(492,492,l),
(549,492,l),
(542,669,l),
(44,669,l),
(44,628,l),
(136,617,l),
(138,531,o),
(138,445,o),
(138,359,cs)
);
},
{
closed = 1;
nodes = (
(172,725,l),
(187,774,o),
(208,804,o),
(240,804,cs),
(270,804,o),
(291,777,o),
(316,756,cs),
(338,739,o),
(361,723,o),
(398,723,cs),
(459,723,o),
(489,774,o),
(502,851,c),
(472,861,l),
(457,812,o),
(437,781,o),
(404,781,cs),
(374,781,o),
(353,809,o),
(328,829,cs),
(305,847,o),
(283,863,o),
(247,863,cs),
(186,863,o),
(154,812,o),
(142,734,c)
);
}
);
width = 603;
}
);
note = uni1EBC;
unicode = 7868;
},
{
glyphname = Gbreve;
kernLeft = C;
kernRight = G;
layers = (
{
hints = (
{
horizontal = 1;
place = (731,61);
type = Stem;
},
{
horizontal = 1;
place = (634,50);
type = Stem;
},
{
horizontal = 1;
place = (275,43);
type = Stem;
},
{
horizontal = 1;
place = (273.5,44.5);
type = Stem;
},
{
horizontal = 1;
place = (-15,51);
type = Stem;
},
{
place = (510,94);
type = Stem;
},
{
place = (47,109);
type = Stem;
}
);
layerId = m01;
shapes = (
{
closed = 1;
nodes = (
(604,88,ls),
(604,150,o),
(605,212,o),
(606,272,c),
(667,278,l),
(667,318,l),
(404,318,l),
(404,278,l),
(508,269,l),
(509,209,o),
(510,148,o),
(510,88,cs),
(510,56,l),
(475,42,o),
(443,36,o),
(403,36,cs),
(250,36,o),
(156,144,o),
(156,335,cs),
(156,526,o),
(259,634,o),
(397,634,cs),
(438,634,o),
(475,625,o),
(511,605,c),
(531,491,l),
(593,491,l),
(589,637,l),
(533,669,o),
(470,684,o),
(388,684,cs),
(184,684,o),
(47,536,o),
(47,335,cs),
(47,133,o),
(183,-15,o),
(384,-15,cs),
(467,-15,o),
(535,8,o),
(604,44,c)
);
},
{
closed = 1;
nodes = (
(238,858,l),
(247,798,o),
(292,731,o),
(382,731,cs),
(472,731,o),
(517,798,o),
(526,858,c),
(495,869,l),
(478,824,o),
(442,792,o),
(382,792,cs),
(323,792,o),
(284,824,o),
(269,869,c)
);
}
);
width = 682;
}
);
note = Gbreve;
unicode = 286;
},
{
glyphname = Gdotaccent;
kernLeft = C;
kernRight = G;
layers = (
{
hints = (
{
horizontal = 1;
place = (736,128);
type = Stem;
},
{
horizontal = 1;
place = (634,50);
type = Stem;
},
{
horizontal = 1;
place = (275,43);
type = Stem;
},
{
horizontal = 1;
place = (273.5,44.5);
type = Stem;
},
{
horizontal = 1;
place = (-15,51);
type = Stem;
},
{
place = (510,94);
type = Stem;
},
{
place = (321,134);
type = Stem;
},
{
place = (47,109);
type = Stem;
}
);
layerId = m01;
shapes = (
{
closed = 1;
nodes = (
(604,88,ls),
(604,150,o),
(605,212,o),
(606,272,c),
(667,278,l),
(667,318,l),
(404,318,l),
(404,278,l),
(508,269,l),
(509,209,o),
(510,148,o),
(510,88,cs),
(510,56,l),
(475,42,o),
(443,36,o),
(403,36,cs),
(250,36,o),
(156,144,o),
(156,335,cs),
(156,526,o),
(259,634,o),
(397,634,cs),
(438,634,o),
(475,625,o),
(511,605,c),
(531,491,l),
(593,491,l),
(589,637,l),
(533,669,o),
(470,684,o),
(388,684,cs),
(184,684,o),
(47,536,o),
(47,335,cs),
(47,133,o),
(183,-15,o),
(384,-15,cs),
(467,-15,o),
(535,8,o),
(604,44,c)
);
},
{
closed = 1;
nodes = (
(426,736,o),
(455,763,o),
(455,800,cs),
(455,838,o),
(426,864,o),
(388,864,cs),
(350,864,o),
(321,838,o),
(321,800,cs),
(321,763,o),
(350,736,o),
(388,736,cs)
);
}
);
width = 682;
}
);
note = Gdotaccent;
unicode = 288;
},
{
glyphname = uni0122;
kernLeft = C;
kernRight = G;
layers = (
{
hints = (
{
horizontal = 1;
place = (634,50);
type = Stem;
},
{
horizontal = 1;
place = (275,43);
type = Stem;
},
{
horizontal = 1;
place = (273.5,44.5);
type = Stem;
},
{
horizontal = 1;
place = (-15,51);
type = Stem;
},
{
place = (510,94);
type = Stem;
},
{
place = (342,107);
type = Stem;
},
{
place = (47,109);
type = Stem;
}
);
layerId = m01;
shapes = (
{
closed = 1;
nodes = (
(604,88,ls),
(604,150,o),
(605,212,o),
(606,272,c),
(667,278,l),
(667,318,l),
(404,318,l),
(404,278,l),
(508,269,l),
(509,209,o),
(510,148,o),
(510,88,cs),
(510,56,l),
(475,42,o),
(443,36,o),
(403,36,cs),
(250,36,o),
(156,144,o),
(156,335,cs),
(156,526,o),
(259,634,o),
(397,634,cs),
(438,634,o),
(475,625,o),
(511,605,c),
(531,491,l),
(593,491,l),
(589,637,l),
(533,669,o),
(470,684,o),
(388,684,cs),
(184,684,o),
(47,536,o),
(47,335,cs),
(47,133,o),
(183,-15,o),
(384,-15,cs),
(467,-15,o),
(535,8,o),
(604,44,c)
);
},
{
closed = 1;
nodes = (
(449,-104,o),
(447,-92,o),
(440,-71,c),
(425,-58,o),
(410,-52,o),
(394,-52,cs),
(366,-52,o),
(342,-72,o),
(342,-101,cs),
(342,-127,o),
(362,-151,o),
(389,-165,c),
(368,-193,o),
(341,-208,o),
(305,-222,c),
(315,-251,l),
(385,-228,o),
(449,-187,o),
(449,-118,cs)
);
}
);
width = 682;
}
);
note = uni0122;
unicode = 290;
},
{
glyphname = Gcaron;
kernLeft = C;
kernRight = G;
layers = (
{
hints = (
{
horizontal = 1;
place = (729,54);
type = Stem;
},
{
horizontal = 1;
place = (634,50);
type = Stem;
},
{
horizontal = 1;
place = (275,43);
type = Stem;
},
{
horizontal = 1;
place = (273.5,44.5);
type = Stem;
},
{
horizontal = 1;
place = (-15,51);
type = Stem;
},
{
place = (510,94);
type = Stem;
},
{
place = (47,109);
type = Stem;
}
);
layerId = m01;
shapes = (
{
closed = 1;
nodes = (
(604,88,ls),
(604,150,o),
(605,212,o),
(606,272,c),
(667,278,l),
(667,318,l),
(404,318,l),
(404,278,l),
(508,269,l),
(509,209,o),
(510,148,o),
(510,88,cs),
(510,56,l),
(475,42,o),
(443,36,o),
(403,36,cs),
(250,36,o),
(156,144,o),
(156,335,cs),
(156,526,o),
(259,634,o),
(397,634,cs),
(438,634,o),
(475,625,o),
(511,605,c),
(531,491,l),
(593,491,l),
(589,637,l),
(533,669,o),
(470,684,o),
(388,684,cs),
(184,684,o),
(47,536,o),
(47,335,cs),
(47,133,o),
(183,-15,o),
(384,-15,cs),
(467,-15,o),
(535,8,o),
(604,44,c)
);
},
{
closed = 1;
nodes = (
(272,868,l),
(248,847,l),
(350,729,l),
(424,729,l),
(526,847,l),
(502,868,l),
(387,783,l)
);
}
);
width = 682;
}
);
note = Gcaron;
unicode = 486;
},
{
glyphname = Gcircumflex;
kernLeft = C;
kernRight = G;
layers = (
{
hints = (
{
horizontal = 1;
place = (634,50);
type = Stem;
},
{
horizontal = 1;
place = (275,43);
type = Stem;
},
{
horizontal = 1;
place = (273.5,44.5);
type = Stem;
},
{
horizontal = 1;
place = (-15,51);
type = Stem;
},
{
place = (510,94);
type = Stem;
},
{
place = (47,109);
type = Stem;
}
);
layerId = m01;
shapes = (
{
closed = 1;
nodes = (
(604,88,ls),
(604,150,o),
(605,212,o),
(606,272,c),
(667,278,l),
(667,318,l),
(404,318,l),
(404,278,l),
(508,269,l),
(509,209,o),
(510,148,o),
(510,88,cs),
(510,56,l),
(475,42,o),
(443,36,o),
(403,36,cs),
(250,36,o),
(156,144,o),
(156,335,cs),
(156,526,o),
(259,634,o),
(397,634,cs),
(438,634,o),
(475,625,o),
(511,605,c),
(531,491,l),
(593,491,l),
(589,637,l),
(533,669,o),
(470,684,o),
(388,684,cs),
(184,684,o),
(47,536,o),
(47,335,cs),
(47,133,o),
(183,-15,o),
(384,-15,cs),
(467,-15,o),
(535,8,o),
(604,44,c)
);
},
{
closed = 1;
nodes = (
(403,856,l),
(369,856,l),
(238,741,l),
(257,716,l),
(386,790,l),
(515,716,l),
(534,741,l)
);
}
);
width = 682;
}
);
note = Gcircumflex;
unicode = 284;
},
{
glyphname = uni1E20;
kernLeft = C;
kernRight = G;
layers = (
{
hints = (
{
horizontal = 1;
place = (758,63);
type = Stem;
},
{
horizontal = 1;
place = (634,50);
type = Stem;
},
{
horizontal = 1;
place = (275,43);
type = Stem;
},
{
horizontal = 1;
place = (273.5,44.5);
type = Stem;
},
{
horizontal = 1;
place = (-15,51);
type = Stem;
},
{
place = (510,94);
type = Stem;
},
{
place = (47,109);
type = Stem;
}
);
layerId = m01;
shapes = (
{
closed = 1;
nodes = (
(604,88,ls),
(604,150,o),
(605,212,o),
(606,272,c),
(667,278,l),
(667,318,l),
(404,318,l),
(404,278,l),
(508,269,l),
(509,209,o),
(510,148,o),
(510,88,cs),
(510,56,l),
(475,42,o),
(443,36,o),
(403,36,cs),
(250,36,o),
(156,144,o),
(156,335,cs),
(156,526,o),
(259,634,o),
(397,634,cs),
(438,634,o),
(475,625,o),
(511,605,c),
(531,491,l),
(593,491,l),
(589,637,l),
(533,669,o),
(470,684,o),
(388,684,cs),
(184,684,o),
(47,536,o),
(47,335,cs),
(47,133,o),
(183,-15,o),
(384,-15,cs),
(467,-15,o),
(535,8,o),
(604,44,c)
);
},
{
closed = 1;
nodes = (
(235,758,l),
(537,758,l),
(537,821,l),
(235,821,l)
);
}
);
width = 682;
}
);
note = uni1E20;
unicode = 7712;
},
{
glyphname = uni00470303;
kernLeft = C;
kernRight = G;
layers = (
{
hints = (
{
horizontal = 1;
place = (804,59);
type = Stem;
},
{
horizontal = 1;
place = (723,58);
type = Stem;
},
{
horizontal = 1;
place = (634,50);
type = Stem;
},
{
horizontal = 1;
place = (275,43);
type = Stem;
},
{
horizontal = 1;
place = (273.5,44.5);
type = Stem;
},
{
horizontal = 1;
place = (-15,51);
type = Stem;
},
{
place = (510,94);
type = Stem;
},
{
place = (47,109);
type = Stem;
}
);
layerId = m01;
shapes = (
{
closed = 1;
nodes = (
(604,88,ls),
(604,150,o),
(605,212,o),
(606,272,c),
(667,278,l),
(667,318,l),
(404,318,l),
(404,278,l),
(508,269,l),
(509,209,o),
(510,148,o),
(510,88,cs),
(510,56,l),
(475,42,o),
(443,36,o),
(403,36,cs),
(250,36,o),
(156,144,o),
(156,335,cs),
(156,526,o),
(259,634,o),
(397,634,cs),
(438,634,o),
(475,625,o),
(511,605,c),
(531,491,l),
(593,491,l),
(589,637,l),
(533,669,o),
(470,684,o),
(388,684,cs),
(184,684,o),
(47,536,o),
(47,335,cs),
(47,133,o),
(183,-15,o),
(384,-15,cs),
(467,-15,o),
(535,8,o),
(604,44,c)
);
},
{
closed = 1;
nodes = (
(236,725,l),
(251,774,o),
(272,804,o),
(304,804,cs),
(334,804,o),
(355,777,o),
(380,756,cs),
(402,739,o),
(425,723,o),
(462,723,cs),
(523,723,o),
(553,774,o),
(566,851,c),
(536,861,l),
(521,812,o),
(501,781,o),
(468,781,cs),
(438,781,o),
(417,809,o),
(392,829,cs),
(369,847,o),
(347,863,o),
(311,863,cs),
(250,863,o),
(218,812,o),
(206,734,c)
);
}
);
width = 682;
}
);
note = uni00470303;
},
{
glyphname = Hbar;
kernLeft = B;
kernRight = H;
layers = (
{
hints = (
{
horizontal = 1;
place = (623,46);
type = Stem;
},
{
horizontal = 1;
place = (622.5,46.5);
type = Stem;
},
{
horizontal = 1;
place = (466,46);
type = Stem;
},
{
horizontal = 1;
place = (299,47);
type = Stem;
},
{
horizontal = 1;
place = (0,46.5);
type = Stem;
},
{
horizontal = 1;
place = (0,46);
type = Stem;
},
{
place = (556,94);
type = Stem;
},
{
place = (555,95);
type = Stem;
},
{
place = (138,95);
type = Stem;
},
{
place = (137,97);
type = Stem;
}
);
layerId = m01;
shapes = (
{
closed = 1;
nodes = (
(138,310,ls),
(138,223,o),
(138,136,o),
(136,52,c),
(44,41,l),
(44,0,l),
(326,0,l),
(326,41,l),
(235,51,l),
(233,129,o),
(233,209,o),
(233,299,c),
(556,299,l),
(556,208,o),
(556,128,o),
(554,52,c),
(462,41,l),
(462,0,l),
(744,0,l),
(744,41,l),
(652,52,l),
(650,138,o),
(650,224,o),
(650,310,cs),
(650,359,ls),
(650,395,o),
(650,431,o),
(650,466,c),
(759,466,l),
(759,512,l),
(650,512,l),
(651,547,o),
(651,583,o),
(652,617,c),
(744,628,l),
(744,669,l),
(462,669,l),
(462,628,l),
(554,617,l),
(555,582,o),
(555,547,o),
(556,512,c),
(233,512,l),
(234,547,o),
(234,583,o),
(235,618,c),
(326,628,l),
(326,669,l),
(44,669,l),
(44,628,l),
(136,617,l),
(137,582,o),
(137,547,o),
(138,512,c),
(30,512,l),
(30,466,l),
(138,466,l),
(138,430,o),
(138,395,o),
(138,359,cs)
);
},
{
closed = 1;
nodes = (
(233,360,ls),
(233,395,o),
(233,431,o),
(233,466,c),
(556,466,l),
(556,431,o),
(556,395,o),
(556,360,cs),
(556,346,l),
(233,346,l)
);
}
);
width = 788;
}
);
note = Hbar;
unicode = 294;
},
{
glyphname = uni1E2A;
kernLeft = B;
kernRight = H;
layers = (
{
hints = (
{
horizontal = 1;
place = (623,46);
type = Stem;
},
{
horizontal = 1;
place = (622.5,46.5);
type = Stem;
},
{
horizontal = 1;
place = (319,47);
type = Stem;
},
{
horizontal = 1;
place = (0,46.5);
type = Stem;
},
{
horizontal = 1;
place = (0,46);
type = Stem;
},
{
horizontal = 1;
place = (-227,66);
type = Stem;
},
{
place = (556,94);
type = Stem;
},
{
place = (242,84);
type = Stem;
},
{
place = (138,95);
type = Stem;
}
);
layerId = m01;
shapes = (
{
closed = 1;
nodes = (
(138,310,ls),
(138,223,o),
(138,136,o),
(136,52,c),
(44,41,l),
(44,0,l),
(326,0,l),
(326,41,l),
(235,51,l),
(233,133,o),
(233,217,o),
(233,319,c),
(556,319,l),
(556,226,o),
(556,137,o),
(554,52,c),
(462,41,l),
(462,0,l),
(744,0,l),
(744,41,l),
(652,52,l),
(650,138,o),
(650,224,o),
(650,310,cs),
(650,359,ls),
(650,446,o),
(650,533,o),
(652,617,c),
(744,628,l),
(744,669,l),
(462,669,l),
(462,628,l),
(554,617,l),
(556,536,o),
(556,454,o),
(556,366,c),
(233,366,l),
(233,446,o),
(233,533,o),
(235,618,c),
(326,628,l),
(326,669,l),
(44,669,l),
(44,628,l),
(136,617,l),
(138,531,o),
(138,445,o),
(138,359,cs)
);
},
{
closed = 1;
nodes = (
(242,-79,l),
(251,-156,o),
(301,-227,o),
(393,-227,cs),
(485,-227,o),
(535,-156,o),
(544,-79,c),
(514,-68,l),
(494,-120,o),
(459,-161,o),
(393,-161,cs),
(327,-161,o),
(292,-120,o),
(272,-68,c)
);
}
);
width = 789;
}
);
note = uni1E2A;
unicode = 7722;
},
{
glyphname = Hcircumflex;
kernLeft = B;
kernRight = H;
layers = (
{
hints = (
{
horizontal = 1;
place = (623,46);
type = Stem;
},
{
horizontal = 1;
place = (622.5,46.5);
type = Stem;
},
{
horizontal = 1;
place = (319,47);
type = Stem;
},
{
horizontal = 1;
place = (0,46.5);
type = Stem;
},
{
horizontal = 1;
place = (0,46);
type = Stem;
},
{
place = (556,94);
type = Stem;
},
{
place = (138,95);
type = Stem;
}
);
layerId = m01;
shapes = (
{
closed = 1;
nodes = (
(138,310,ls),
(138,223,o),
(138,136,o),
(136,52,c),
(44,41,l),
(44,0,l),
(326,0,l),
(326,41,l),
(235,51,l),
(233,133,o),
(233,217,o),
(233,319,c),
(556,319,l),
(556,226,o),
(556,137,o),
(554,52,c),
(462,41,l),
(462,0,l),
(744,0,l),
(744,41,l),
(652,52,l),
(650,138,o),
(650,224,o),
(650,310,cs),
(650,359,ls),
(650,446,o),
(650,533,o),
(652,617,c),
(744,628,l),
(744,669,l),
(462,669,l),
(462,628,l),
(554,617,l),
(556,536,o),
(556,454,o),
(556,366,c),
(233,366,l),
(233,446,o),
(233,533,o),
(235,618,c),
(326,628,l),
(326,669,l),
(44,669,l),
(44,628,l),
(136,617,l),
(138,531,o),
(138,445,o),
(138,359,cs)
);
},
{
closed = 1;
nodes = (
(411,856,l),
(377,856,l),
(246,741,l),
(265,716,l),
(394,790,l),
(523,716,l),
(542,741,l)
);
}
);
width = 789;
}
);
note = Hcircumflex;
unicode = 292;
},
{
glyphname = uni1E24;
kernLeft = B;
kernRight = H;
layers = (
{
hints = (
{
horizontal = 1;
place = (623,46);
type = Stem;
},
{
horizontal = 1;
place = (622.5,46.5);
type = Stem;
},
{
horizontal = 1;
place = (319,47);
type = Stem;
},
{
horizontal = 1;
place = (0,46.5);
type = Stem;
},
{
horizontal = 1;
place = (0,46);
type = Stem;
},
{
horizontal = 1;
place = (-203,128);
type = Stem;
},
{
place = (556,94);
type = Stem;
},
{
place = (326,134);
type = Stem;
},
{
place = (138,95);
type = Stem;
}
);
layerId = m01;
shapes = (
{
closed = 1;
nodes = (
(138,310,ls),
(138,223,o),
(138,136,o),
(136,52,c),
(44,41,l),
(44,0,l),
(326,0,l),
(326,41,l),
(235,51,l),
(233,133,o),
(233,217,o),
(233,319,c),
(556,319,l),
(556,226,o),
(556,137,o),
(554,52,c),
(462,41,l),
(462,0,l),
(744,0,l),
(744,41,l),
(652,52,l),
(650,138,o),
(650,224,o),
(650,310,cs),
(650,359,ls),
(650,446,o),
(650,533,o),
(652,617,c),
(744,628,l),
(744,669,l),
(462,669,l),
(462,628,l),
(554,617,l),
(556,536,o),
(556,454,o),
(556,366,c),
(233,366,l),
(233,446,o),
(233,533,o),
(235,618,c),
(326,628,l),
(326,669,l),
(44,669,l),
(44,628,l),
(136,617,l),
(138,531,o),
(138,445,o),
(138,359,cs)
);
},
{
closed = 1;
nodes = (
(431,-203,o),
(460,-177,o),
(460,-139,cs),
(460,-102,o),
(431,-75,o),
(393,-75,cs),
(355,-75,o),
(326,-102,o),
(326,-139,cs),
(326,-177,o),
(355,-203,o),
(393,-203,cs)
);
}
);
width = 789;
}
);
note = uni1E24;
unicode = 7716;
},
{
glyphname = Igrave;
kernLeft = B;
kernRight = H;
layers = (
{
hints = (
{
horizontal = 1;
place = (622.5,46.5);
type = Stem;
},
{
horizontal = 1;
place = (0,46.5);
type = Stem;
},
{
place = (138,95);
type = Stem;
}
);
layerId = m01;
shapes = (
{
closed = 1;
nodes = (
(138,310,ls),
(138,223,o),
(138,136,o),
(136,52,c),
(44,41,l),
(44,0,l),
(327,0,l),
(327,41,l),
(235,52,l),
(233,138,o),
(233,224,o),
(233,310,cs),
(233,359,ls),
(233,446,o),
(233,533,o),
(235,617,c),
(327,628,l),
(327,669,l),
(44,669,l),
(44,628,l),
(136,617,l),
(138,531,o),
(138,445,o),
(138,359,cs)
);
},
{
closed = 1;
nodes = (
(252,745,l),
(222,777,o),
(191,808,o),
(158,839,cs),
(130,867,o),
(113,877,o),
(96,877,cs),
(75,877,o),
(58,863,o),
(58,843,cs),
(58,825,o),
(70,808,o),
(108,787,cs),
(149,765,o),
(191,742,o),
(234,720,c)
);
}
);
width = 371;
}
);
note = Igrave;
unicode = 204;
},
{
glyphname = Iacute;
kernLeft = B;
kernRight = H;
layers = (
{
hints = (
{
horizontal = 1;
place = (622.5,46.5);
type = Stem;
},
{
horizontal = 1;
place = (0,46.5);
type = Stem;
},
{
place = (138,95);
type = Stem;
}
);
layerId = m01;
shapes = (
{
closed = 1;
nodes = (
(138,310,ls),
(138,223,o),
(138,136,o),
(136,52,c),
(44,41,l),
(44,0,l),
(327,0,l),
(327,41,l),
(235,52,l),
(233,138,o),
(233,224,o),
(233,310,cs),
(233,359,ls),
(233,446,o),
(233,533,o),
(235,617,c),
(327,628,l),
(327,669,l),
(44,669,l),
(44,628,l),
(136,617,l),
(138,531,o),
(138,445,o),
(138,359,cs)
);
},
{
closed = 1;
nodes = (
(156,720,l),
(198,742,o),
(240,765,o),
(282,788,cs),
(320,809,o),
(332,825,o),
(332,843,cs),
(332,863,o),
(315,877,o),
(294,877,cs),
(277,877,o),
(260,867,o),
(232,839,cs),
(200,809,o),
(169,778,o),
(138,745,c)
);
}
);
width = 371;
}
);
note = Iacute;
unicode = 205;
},
{
glyphname = Icircumflex;
kernLeft = B;
kernRight = H;
layers = (
{
hints = (
{
horizontal = 1;
place = (622.5,46.5);
type = Stem;
},
{
horizontal = 1;
place = (0,46.5);
type = Stem;
},
{
place = (138,95);
type = Stem;
}
);
layerId = m01;
shapes = (
{
closed = 1;
nodes = (
(138,310,ls),
(138,223,o),
(138,136,o),
(136,52,c),
(44,41,l),
(44,0,l),
(327,0,l),
(327,41,l),
(235,52,l),
(233,138,o),
(233,224,o),
(233,310,cs),
(233,359,ls),
(233,446,o),
(233,533,o),
(235,617,c),
(327,628,l),
(327,669,l),
(44,669,l),
(44,628,l),
(136,617,l),
(138,531,o),
(138,445,o),
(138,359,cs)
);
},
{
closed = 1;
nodes = (
(202,856,l),
(168,856,l),
(37,741,l),
(56,716,l),
(185,790,l),
(314,716,l),
(333,741,l)
);
}
);
width = 371;
}
);
note = Icircumflex;
unicode = 206;
},
{
glyphname = Idieresis;
kernLeft = B;
kernRight = H;
layers = (
{
hints = (
{
horizontal = 1;
place = (744,110);
type = Stem;
},
{
horizontal = 1;
place = (622.5,46.5);
type = Stem;
},
{
horizontal = 1;
place = (0,46.5);
type = Stem;
},
{
place = (240,115);
type = Stem;
},
{
place = (138,95);
type = Stem;
},
{
place = (16,115);
type = Stem;
}
);
layerId = m01;
shapes = (
{
closed = 1;
nodes = (
(138,310,ls),
(138,223,o),
(138,136,o),
(136,52,c),
(44,41,l),
(44,0,l),
(327,0,l),
(327,41,l),
(235,52,l),
(233,138,o),
(233,224,o),
(233,310,cs),
(233,359,ls),
(233,446,o),
(233,533,o),
(235,617,c),
(327,628,l),
(327,669,l),
(44,669,l),
(44,628,l),
(136,617,l),
(138,531,o),
(138,445,o),
(138,359,cs)
);
},
{
closed = 1;
nodes = (
(106,744,o),
(131,767,o),
(131,799,cs),
(131,831,o),
(106,854,o),
(74,854,cs),
(43,854,o),
(16,831,o),
(16,799,cs),
(16,767,o),
(43,744,o),
(74,744,cs)
);
},
{
closed = 1;
nodes = (
(328,744,o),
(355,767,o),
(355,799,cs),
(355,831,o),
(328,854,o),
(297,854,cs),
(265,854,o),
(240,831,o),
(240,799,cs),
(240,767,o),
(265,744,o),
(297,744,cs)
);
}
);
width = 371;
}
);
note = Idieresis;
unicode = 207;
},
{
glyphname = Imacron;
kernLeft = B;
kernRight = H;
layers = (
{
hints = (
{
horizontal = 1;
place = (758,63);
type = Stem;
},
{
horizontal = 1;
place = (622.5,46.5);
type = Stem;
},
{
horizontal = 1;
place = (0,46.5);
type = Stem;
},
{
place = (138,95);
type = Stem;
}
);
layerId = m01;
shapes = (
{
closed = 1;
nodes = (
(138,310,ls),
(138,223,o),
(138,136,o),
(136,52,c),
(44,41,l),
(44,0,l),
(327,0,l),
(327,41,l),
(235,52,l),
(233,138,o),
(233,224,o),
(233,310,cs),
(233,359,ls),
(233,446,o),
(233,533,o),
(235,617,c),
(327,628,l),
(327,669,l),
(44,669,l),
(44,628,l),
(136,617,l),
(138,531,o),
(138,445,o),
(138,359,cs)
);
},
{
closed = 1;
nodes = (
(35,758,l),
(337,758,l),
(337,821,l),
(35,821,l)
);
}
);
width = 371;
}
);
note = Imacron;
unicode = 298;
},
{
glyphname = Idotaccent;
kernLeft = B;
kernRight = H;
layers = (
{
hints = (
{
horizontal = 1;
place = (736,128);
type = Stem;
},
{
horizontal = 1;
place = (622.5,46.5);
type = Stem;
},
{
horizontal = 1;
place = (0,46.5);
type = Stem;
},
{
place = (138,95);
type = Stem;
},
{
place = (119,134);
type = Stem;
}
);
layerId = m01;
shapes = (
{
closed = 1;
nodes = (
(138,310,ls),
(138,223,o),
(138,136,o),
(136,52,c),
(44,41,l),
(44,0,l),
(327,0,l),
(327,41,l),
(235,52,l),
(233,138,o),
(233,224,o),
(233,310,cs),
(233,359,ls),
(233,446,o),
(233,533,o),
(235,617,c),
(327,628,l),
(327,669,l),
(44,669,l),
(44,628,l),
(136,617,l),
(138,531,o),
(138,445,o),
(138,359,cs)
);
},
{
closed = 1;
nodes = (
(224,736,o),
(253,763,o),
(253,800,cs),
(253,838,o),
(224,864,o),
(186,864,cs),
(148,864,o),
(119,838,o),
(119,800,cs),
(119,763,o),
(148,736,o),
(186,736,cs)
);
}
);
width = 371;
}
);
note = Idotaccent;
unicode = 304;
},
{
glyphname = Iogonek;
kernLeft = B;
kernRight = H;
layers = (
{
anchors = (
{
name = top;
pos = (185,691);
}
);
hints = (
{
horizontal = 1;
place = (622.5,46.5);
type = Stem;
},
{
horizontal = 1;
place = (0,46.5);
type = Stem;
},
{
horizontal = 1;
place = (-220,56);
type = Stem;
},
{
place = (138,95);
type = Stem;
},
{
place = (110,64);
type = Stem;
}
);
layerId = m01;
shapes = (
{
closed = 1;
nodes = (
(110,-187,o),
(149,-220,o),
(204,-220,cs),
(240,-220,o),
(283,-207,o),
(307,-174,c),
(294,-149,l),
(274,-161,o),
(254,-164,o),
(241,-164,cs),
(203,-164,o),
(174,-139,o),
(174,-96,cs),
(174,-62,o),
(191,-26,o),
(222,0,c),
(327,0,l),
(327,41,l),
(235,52,l),
(233,138,o),
(233,224,o),
(233,310,cs),
(233,359,ls),
(233,446,o),
(233,533,o),
(235,617,c),
(327,628,l),
(327,669,l),
(44,669,l),
(44,628,l),
(136,617,l),
(138,531,o),
(138,445,o),
(138,359,cs),
(138,310,ls),
(138,223,o),
(138,136,o),
(136,52,c),
(44,41,l),
(44,0,l),
(189,0,l),
(145,-30,o),
(110,-80,o),
(110,-132,cs)
);
}
);
width = 371;
}
);
note = Iogonek;
unicode = 302;
},
{
glyphname = uni01CF;
kernLeft = B;
kernRight = H;
layers = (
{
hints = (
{
horizontal = 1;
place = (729,54);
type = Stem;
},
{
horizontal = 1;
place = (622.5,46.5);
type = Stem;
},
{
horizontal = 1;
place = (0,46.5);
type = Stem;
},
{
place = (138,95);
type = Stem;
}
);
layerId = m01;
shapes = (
{
closed = 1;
nodes = (
(138,310,ls),
(138,223,o),
(138,136,o),
(136,52,c),
(44,41,l),
(44,0,l),
(327,0,l),
(327,41,l),
(235,52,l),
(233,138,o),
(233,224,o),
(233,310,cs),
(233,359,ls),
(233,446,o),
(233,533,o),
(235,617,c),
(327,628,l),
(327,669,l),
(44,669,l),
(44,628,l),
(136,617,l),
(138,531,o),
(138,445,o),
(138,359,cs)
);
},
{
closed = 1;
nodes = (
(70,868,l),
(46,847,l),
(148,729,l),
(222,729,l),
(324,847,l),
(300,868,l),
(185,783,l)
);
}
);
width = 371;
}
);
note = uni01CF;
unicode = 463;
},
{
glyphname = uni1ECA;
kernLeft = B;
kernRight = H;
layers = (
{
hints = (
{
horizontal = 1;
place = (622.5,46.5);
type = Stem;
},
{
horizontal = 1;
place = (0,46.5);
type = Stem;
},
{
horizontal = 1;
place = (-203,128);
type = Stem;
},
{
place = (138,95);
type = Stem;
},
{
place = (119,134);
type = Stem;
}
);
layerId = m01;
shapes = (
{
closed = 1;
nodes = (
(138,310,ls),
(138,223,o),
(138,136,o),
(136,52,c),
(44,41,l),
(44,0,l),
(327,0,l),
(327,41,l),
(235,52,l),
(233,138,o),
(233,224,o),
(233,310,cs),
(233,359,ls),
(233,446,o),
(233,533,o),
(235,617,c),
(327,628,l),
(327,669,l),
(44,669,l),
(44,628,l),
(136,617,l),
(138,531,o),
(138,445,o),
(138,359,cs)
);
},
{
closed = 1;
nodes = (
(224,-203,o),
(253,-177,o),
(253,-139,cs),
(253,-102,o),
(224,-75,o),
(186,-75,cs),
(148,-75,o),
(119,-102,o),
(119,-139,cs),
(119,-177,o),
(148,-203,o),
(186,-203,cs)
);
}
);
width = 371;
}
);
note = uni1ECA;
unicode = 7882;
},
{
glyphname = uni1EC8;
kernLeft = B;
kernRight = H;
layers = (
{
hints = (
{
horizontal = 1;
place = (815,67);
type = Stem;
},
{
horizontal = 1;
place = (622.5,46.5);
type = Stem;
},
{
horizontal = 1;
place = (0,46.5);
type = Stem;
},
{
place = (210,49);
type = Stem;
},
{
place = (138,95);
type = Stem;
}
);
layerId = m01;
shapes = (
{
closed = 1;
nodes = (
(138,310,ls),
(138,223,o),
(138,136,o),
(136,52,c),
(44,41,l),
(44,0,l),
(327,0,l),
(327,41,l),
(235,52,l),
(233,138,o),
(233,224,o),
(233,310,cs),
(233,359,ls),
(233,446,o),
(233,533,o),
(235,617,c),
(327,628,l),
(327,669,l),
(44,669,l),
(44,628,l),
(136,617,l),
(138,531,o),
(138,445,o),
(138,359,cs)
);
},
{
closed = 1;
nodes = (
(166,717,l),
(224,725,o),
(259,754,o),
(259,795,cs),
(259,845,o),
(218,875,o),
(137,882,c),
(127,815,l),
(184,810,o),
(210,800,o),
(210,781,cs),
(210,765,o),
(195,756,o),
(157,748,c)
);
}
);
width = 371;
}
);
note = uni1EC8;
unicode = 7880;
},
{
glyphname = Itilde;
kernLeft = B;
kernRight = H;
layers = (
{
hints = (
{
horizontal = 1;
place = (804,59);
type = Stem;
},
{
horizontal = 1;
place = (723,58);
type = Stem;
},
{
horizontal = 1;
place = (622.5,46.5);
type = Stem;
},
{
horizontal = 1;
place = (0,46.5);
type = Stem;
},
{
place = (138,95);
type = Stem;
}
);
layerId = m01;
shapes = (
{
closed = 1;
nodes = (
(138,310,ls),
(138,223,o),
(138,136,o),
(136,52,c),
(44,41,l),
(44,0,l),
(327,0,l),
(327,41,l),
(235,52,l),
(233,138,o),
(233,224,o),
(233,310,cs),
(233,359,ls),
(233,446,o),
(233,533,o),
(235,617,c),
(327,628,l),
(327,669,l),
(44,669,l),
(44,628,l),
(136,617,l),
(138,531,o),
(138,445,o),
(138,359,cs)
);
},
{
closed = 1;
nodes = (
(35,725,l),
(50,774,o),
(71,804,o),
(103,804,cs),
(133,804,o),
(154,777,o),
(179,756,cs),
(201,739,o),
(224,723,o),
(261,723,cs),
(322,723,o),
(352,774,o),
(365,851,c),
(335,861,l),
(320,812,o),
(300,781,o),
(267,781,cs),
(237,781,o),
(216,809,o),
(191,829,cs),
(168,847,o),
(146,863,o),
(110,863,cs),
(49,863,o),
(17,812,o),
(5,734,c)
);
}
);
width = 371;
}
);
note = Itilde;
unicode = 296;
},
{
glyphname = Jcircumflex;
kernLeft = J;
kernRight = J;
layers = (
{
hints = (
{
horizontal = 1;
place = (622.5,46.5);
type = Stem;
},
{
horizontal = 1;
place = (-163,99);
type = Stem;
},
{
place = (158,88);
type = Stem;
}
);
layerId = m01;
shapes = (
{
closed = 1;
nodes = (
(47,628,l),
(149,617,l),
(153,169,o),
(158,67,o),
(158,7,cs),
(158,-51,o),
(148,-87,o),
(119,-115,c),
(94,-95,ls),
(65,-73,o),
(44,-64,o),
(19,-64,cs),
(-13,-64,o),
(-37,-77,o),
(-43,-114,c),
(-33,-152,o),
(6,-163,o),
(44,-163,cs),
(128,-163,o),
(212,-114,o),
(232,-14,cs),
(243,37,o),
(246,90,o),
(246,204,cs),
(246,360,ls),
(246,447,o),
(246,533,o),
(248,617,c),
(340,628,l),
(340,669,l),
(47,669,l)
);
},
{
closed = 1;
nodes = (
(216,856,l),
(182,856,l),
(51,741,l),
(70,716,l),
(199,790,l),
(328,716,l),
(347,741,l)
);
}
);
width = 374;
}
);
note = Jcircumflex;
unicode = 308;
},
{
glyphname = uni0136;
kernLeft = B;
kernRight = K;
layers = (
{
hints = (
{
horizontal = 1;
place = (628,41);
type = Stem;
},
{
horizontal = 1;
place = (622.5,46.5);
type = Stem;
},
{
horizontal = 1;
place = (0,46.5);
type = Stem;
},
{
horizontal = 1;
place = (0,46);
type = Stem;
},
{
place = (417,230);
type = Stem;
},
{
place = (308,107);
type = Stem;
},
{
place = (138,91);
type = Stem;
}
);
layerId = m01;
shapes = (
{
closed = 1;
nodes = (
(138,310,ls),
(138,223,o),
(138,136,o),
(136,52,c),
(44,41,l),
(44,0,l),
(326,0,l),
(326,41,l),
(231,52,l),
(229,114,o),
(229,175,o),
(229,229,c),
(328,348,l),
(487,51,l),
(405,41,l),
(405,0,l),
(662,0,l),
(662,41,l),
(585,51,l),
(383,414,l),
(550,615,l),
(647,628,l),
(647,669,l),
(417,669,l),
(417,628,l),
(489,614,l),
(229,296,l),
(229,359,ls),
(229,446,o),
(229,532,o),
(231,617,c),
(326,628,l),
(326,669,l),
(44,669,l),
(44,628,l),
(136,617,l),
(138,531,o),
(138,445,o),
(138,359,cs)
);
},
{
closed = 1;
nodes = (
(415,-104,o),
(413,-92,o),
(406,-71,c),
(391,-58,o),
(376,-52,o),
(360,-52,cs),
(332,-52,o),
(308,-72,o),
(308,-101,cs),
(308,-127,o),
(328,-151,o),
(355,-165,c),
(334,-193,o),
(307,-208,o),
(271,-222,c),
(281,-251,l),
(351,-228,o),
(415,-187,o),
(415,-118,cs)
);
}
);
width = 667;
}
);
note = uni0136;
unicode = 310;
},
{
glyphname = Lacute;
kernLeft = B;
kernRight = L;
layers = (
{
hints = (
{
horizontal = 1;
place = (622.5,46.5);
type = Stem;
},
{
horizontal = 1;
place = (0,188);
type = Stem;
},
{
horizontal = 1;
place = (0,50);
type = Stem;
},
{
horizontal = 1;
place = (0,46.5);
type = Stem;
},
{
place = (462,85);
type = Stem;
},
{
place = (138,95);
type = Stem;
}
);
layerId = m01;
shapes = (
{
closed = 1;
nodes = (
(138,309,ls),
(138,224,o),
(138,138,o),
(136,52,c),
(44,41,l),
(44,0,l),
(542,0,l),
(552,188,l),
(491,188,l),
(462,50,l),
(235,50,l),
(233,135,o),
(233,219,o),
(233,290,cs),
(233,359,ls),
(233,445,o),
(233,531,o),
(235,617,c),
(327,628,l),
(327,669,l),
(44,669,l),
(44,628,l),
(136,617,l),
(138,533,o),
(138,446,o),
(138,359,cs)
);
},
{
closed = 1;
nodes = (
(204,720,l),
(246,742,o),
(288,765,o),
(330,788,cs),
(368,809,o),
(380,825,o),
(380,843,cs),
(380,863,o),
(363,877,o),
(342,877,cs),
(325,877,o),
(308,867,o),
(280,839,cs),
(248,809,o),
(217,778,o),
(186,745,c)
);
}
);
width = 596;
}
);
note = Lacute;
unicode = 313;
},
{
glyphname = Lcaron;
kernLeft = B;
kernRight = L;
layers = (
{
hints = (
{
horizontal = 1;
place = (622.5,46.5);
type = Stem;
},
{
horizontal = 1;
place = (0,188);
type = Stem;
},
{
horizontal = 1;
place = (0,50);
type = Stem;
},
{
horizontal = 1;
place = (0,46.5);
type = Stem;
},
{
place = (462,85);
type = Stem;
},
{
place = (431.5,83.5);
type = Stem;
},
{
place = (138,95);
type = Stem;
}
);
layerId = m01;
shapes = (
{
closed = 1;
nodes = (
(464,739,o),
(449,735,o),
(433,727,c),
(430,517,l),
(462,517,l),
(481,571,ls),
(498,618,o),
(515,673,o),
(515,702,cs),
(515,725,o),
(505,739,o),
(479,739,cs)
);
},
{
closed = 1;
nodes = (
(138,309,ls),
(138,224,o),
(138,138,o),
(136,52,c),
(44,41,l),
(44,0,l),
(542,0,l),
(552,188,l),
(491,188,l),
(462,50,l),
(235,50,l),
(233,135,o),
(233,219,o),
(233,290,cs),
(233,359,ls),
(233,445,o),
(233,531,o),
(235,617,c),
(327,628,l),
(327,669,l),
(44,669,l),
(44,628,l),
(136,617,l),
(138,533,o),
(138,446,o),
(138,359,cs)
);
}
);
width = 596;
}
);
note = Lcaron;
unicode = 317;
},
{
glyphname = uni013B;
kernLeft = B;
kernRight = L;
layers = (
{
hints = (
{
horizontal = 1;
place = (622.5,46.5);
type = Stem;
},
{
horizontal = 1;
place = (0,188);
type = Stem;
},
{
horizontal = 1;
place = (0,50);
type = Stem;
},
{
horizontal = 1;
place = (0,46.5);
type = Stem;
},
{
place = (462,85);
type = Stem;
},
{
place = (258,107);
type = Stem;
},
{
place = (138,95);
type = Stem;
}
);
layerId = m01;
shapes = (
{
closed = 1;
nodes = (
(138,309,ls),
(138,224,o),
(138,138,o),
(136,52,c),
(44,41,l),
(44,0,l),
(542,0,l),
(552,188,l),
(491,188,l),
(462,50,l),
(235,50,l),
(233,135,o),
(233,219,o),
(233,290,cs),
(233,359,ls),
(233,445,o),
(233,531,o),
(235,617,c),
(327,628,l),
(327,669,l),
(44,669,l),
(44,628,l),
(136,617,l),
(138,533,o),
(138,446,o),
(138,359,cs)
);
},
{
closed = 1;
nodes = (
(365,-104,o),
(363,-92,o),
(356,-71,c),
(341,-58,o),
(326,-52,o),
(310,-52,cs),
(282,-52,o),
(258,-72,o),
(258,-101,cs),
(258,-127,o),
(278,-151,o),
(305,-165,c),
(284,-193,o),
(257,-208,o),
(221,-222,c),
(231,-251,l),
(301,-228,o),
(365,-187,o),
(365,-118,cs)
);
}
);
width = 596;
}
);
note = uni013B;
unicode = 315;
},
{
glyphname = Ldot;
kernLeft = B;
layers = (
{
hints = (
{
horizontal = 1;
place = (622.5,46.5);
type = Stem;
},
{
horizontal = 1;
place = (310,143);
type = Stem;
},
{
horizontal = 1;
place = (0,188);
type = Stem;
},
{
horizontal = 1;
place = (0,50);
type = Stem;
},
{
horizontal = 1;
place = (0,46.5);
type = Stem;
},
{
place = (462,85);
type = Stem;
},
{
place = (400,142);
type = Stem;
},
{
place = (138,95);
type = Stem;
}
);
layerId = m01;
shapes = (
{
closed = 1;
nodes = (
(138,309,ls),
(138,224,o),
(138,138,o),
(136,52,c),
(44,41,l),
(44,0,l),
(542,0,l),
(552,188,l),
(491,188,l),
(462,50,l),
(235,50,l),
(233,135,o),
(233,219,o),
(233,290,cs),
(233,359,ls),
(233,445,o),
(233,531,o),
(235,617,c),
(327,628,l),
(327,669,l),
(44,669,l),
(44,628,l),
(136,617,l),
(138,533,o),
(138,446,o),
(138,359,cs)
);
},
{
closed = 1;
nodes = (
(511,310,o),
(542,342,o),
(542,381,cs),
(542,421,o),
(511,453,o),
(471,453,cs),
(431,453,o),
(400,421,o),
(400,381,cs),
(400,342,o),
(431,310,o),
(471,310,cs)
);
}
);
width = 596;
}
);
note = Ldot;
unicode = 319;
},
{
glyphname = uni1E36;
kernLeft = B;
kernRight = L;
layers = (
{
hints = (
{
horizontal = 1;
place = (622.5,46.5);
type = Stem;
},
{
horizontal = 1;
place = (0,188);
type = Stem;
},
{
horizontal = 1;
place = (0,50);
type = Stem;
},
{
horizontal = 1;
place = (0,46.5);
type = Stem;
},
{
horizontal = 1;
place = (-203,128);
type = Stem;
},
{
place = (462,85);
type = Stem;
},
{
place = (275,134);
type = Stem;
},
{
place = (138,95);
type = Stem;
}
);
layerId = m01;
shapes = (
{
closed = 1;
nodes = (
(138,309,ls),
(138,224,o),
(138,138,o),
(136,52,c),
(44,41,l),
(44,0,l),
(542,0,l),
(552,188,l),
(491,188,l),
(462,50,l),
(235,50,l),
(233,135,o),
(233,219,o),
(233,290,cs),
(233,359,ls),
(233,445,o),
(233,531,o),
(235,617,c),
(327,628,l),
(327,669,l),
(44,669,l),
(44,628,l),
(136,617,l),
(138,533,o),
(138,446,o),
(138,359,cs)
);
},
{
closed = 1;
nodes = (
(380,-203,o),
(409,-177,o),
(409,-139,cs),
(409,-102,o),
(380,-75,o),
(342,-75,cs),
(304,-75,o),
(275,-102,o),
(275,-139,cs),
(275,-177,o),
(304,-203,o),
(342,-203,cs)
);
}
);
width = 596;
}
);
note = uni1E36;
unicode = 7734;
},
{
glyphname = uni1E38;
kernLeft = B;
kernRight = L;
layers = (
{
hints = (
{
horizontal = 1;
place = (758,63);
type = Stem;
},
{
horizontal = 1;
place = (622.5,46.5);
type = Stem;
},
{
horizontal = 1;
place = (0,188);
type = Stem;
},
{
horizontal = 1;
place = (0,50);
type = Stem;
},
{
horizontal = 1;
place = (0,46.5);
type = Stem;
},
{
horizontal = 1;
place = (-203,128);
type = Stem;
},
{
place = (462,85);
type = Stem;
},
{
place = (275,134);
type = Stem;
},
{
place = (138,95);
type = Stem;
}
);
layerId = m01;
shapes = (
{
closed = 1;
nodes = (
(138,309,ls),
(138,224,o),
(138,138,o),
(136,52,c),
(44,41,l),
(44,0,l),
(542,0,l),
(552,188,l),
(491,188,l),
(462,50,l),
(235,50,l),
(233,135,o),
(233,219,o),
(233,290,cs),
(233,359,ls),
(233,445,o),
(233,531,o),
(235,617,c),
(327,628,l),
(327,669,l),
(44,669,l),
(44,628,l),
(136,617,l),
(138,533,o),
(138,446,o),
(138,359,cs)
);
},
{
closed = 1;
nodes = (
(380,-203,o),
(409,-177,o),
(409,-139,cs),
(409,-102,o),
(380,-75,o),
(342,-75,cs),
(304,-75,o),
(275,-102,o),
(275,-139,cs),
(275,-177,o),
(304,-203,o),
(342,-203,cs)
);
},
{
closed = 1;
nodes = (
(37,758,l),
(339,758,l),
(339,821,l),
(37,821,l)
);
}
);
width = 596;
}
);
note = uni1E38;
unicode = 7736;
},
{
glyphname = uni1E3A;
kernLeft = B;
kernRight = L;
layers = (
{
hints = (
{
horizontal = 1;
place = (622.5,46.5);
type = Stem;
},
{
horizontal = 1;
place = (0,188);
type = Stem;
},
{
horizontal = 1;
place = (0,50);
type = Stem;
},
{
horizontal = 1;
place = (0,46.5);
type = Stem;
},
{
horizontal = 1;
place = (-176,63);
type = Stem;
},
{
place = (462,85);
type = Stem;
},
{
place = (198,262);
type = Stem;
},
{
place = (138,95);
type = Stem;
}
);
layerId = m01;
shapes = (
{
closed = 1;
nodes = (
(138,309,ls),
(138,224,o),
(138,138,o),
(136,52,c),
(44,41,l),
(44,0,l),
(542,0,l),
(552,188,l),
(491,188,l),
(462,50,l),
(235,50,l),
(233,135,o),
(233,219,o),
(233,290,cs),
(233,359,ls),
(233,445,o),
(233,531,o),
(235,617,c),
(327,628,l),
(327,669,l),
(44,669,l),
(44,628,l),
(136,617,l),
(138,533,o),
(138,446,o),
(138,359,cs)
);
},
{
closed = 1;
nodes = (
(198,-176,l),
(460,-176,l),
(460,-113,l),
(198,-113,l)
);
}
);
width = 596;
}
);
note = uni1E3A;
unicode = 7738;
},
{
glyphname = Lslash;
kernLeft = B;
kernRight = L;
layers = (
{
hints = (
{
horizontal = 1;
place = (622.5,46.5);
type = Stem;
},
{
horizontal = 1;
place = (0,188);
type = Stem;
},
{
horizontal = 1;
place = (0,50);
type = Stem;
},
{
horizontal = 1;
place = (0,46.5);
type = Stem;
},
{
place = (462,85);
type = Stem;
},
{
place = (138,95);
type = Stem;
}
);
layerId = m01;
shapes = (
{
closed = 1;
nodes = (
(138,318,l),
(44,265,l),
(44,214,l),
(138,267,l),
(138,195,o),
(138,123,o),
(136,52,c),
(44,41,l),
(44,0,l),
(542,0,l),
(552,188,l),
(491,188,l),
(462,50,l),
(235,50,l),
(233,135,o),
(233,219,o),
(233,290,cs),
(233,315,l),
(396,409,l),
(396,460,l),
(233,367,l),
(233,445,o),
(233,531,o),
(235,617,c),
(327,628,l),
(327,669,l),
(44,669,l),
(44,628,l),
(136,617,l),
(138,533,o),
(138,446,o),
(138,359,cs)
);
}
);
width = 596;
}
);
note = Lslash;
unicode = 321;
},
{
glyphname = uni1E3E;
kernLeft = M;
kernRight = H;
layers = (
{
hints = (
{
horizontal = 1;
place = (622.5,46.5);
type = Stem;
},
{
horizontal = 1;
place = (0,46.5);
type = Stem;
},
{
place = (671,92);
type = Stem;
},
{
place = (129,52);
type = Stem;
}
);
layerId = m01;
shapes = (
{
closed = 1;
nodes = (
(39,0,l),
(263,0,l),
(263,41,l),
(181,54,l),
(181,369,l),
(175,558,l),
(404,0,l),
(454,0,l),
(671,558,l),
(671,309,ls),
(671,223,o),
(671,136,o),
(669,52,c),
(585,41,l),
(585,0,l),
(857,0,l),
(857,41,l),
(765,52,l),
(763,138,o),
(763,224,o),
(763,310,cs),
(763,359,ls),
(763,446,o),
(763,533,o),
(765,617,c),
(857,628,l),
(857,669,l),
(660,669,l),
(448,119,l),
(224,669,l),
(39,669,l),
(39,628,l),
(129,617,l),
(129,54,l),
(39,41,l)
);
},
{
closed = 1;
nodes = (
(422,710,l),
(464,732,o),
(506,755,o),
(548,778,cs),
(586,799,o),
(598,815,o),
(598,833,cs),
(598,853,o),
(581,867,o),
(560,867,cs),
(543,867,o),
(526,857,o),
(498,829,cs),
(466,799,o),
(435,768,o),
(404,735,c)
);
}
);
width = 902;
}
);
note = uni1E3E;
unicode = 7742;
},
{
glyphname = uni1E42;
kernLeft = M;
kernRight = H;
layers = (
{
hints = (
{
horizontal = 1;
place = (622.5,46.5);
type = Stem;
},
{
horizontal = 1;
place = (0,46.5);
type = Stem;
},
{
horizontal = 1;
place = (-203,128);
type = Stem;
},
{
place = (671,92);
type = Stem;
},
{
place = (360,134);
type = Stem;
},
{
place = (129,52);
type = Stem;
}
);
layerId = m01;
shapes = (
{
closed = 1;
nodes = (
(39,0,l),
(263,0,l),
(263,41,l),
(181,54,l),
(181,369,l),
(175,558,l),
(404,0,l),
(454,0,l),
(671,558,l),
(671,309,ls),
(671,223,o),
(671,136,o),
(669,52,c),
(585,41,l),
(585,0,l),
(857,0,l),
(857,41,l),
(765,52,l),
(763,138,o),
(763,224,o),
(763,310,cs),
(763,359,ls),
(763,446,o),
(763,533,o),
(765,617,c),
(857,628,l),
(857,669,l),
(660,669,l),
(448,119,l),
(224,669,l),
(39,669,l),
(39,628,l),
(129,617,l),
(129,54,l),
(39,41,l)
);
},
{
closed = 1;
nodes = (
(465,-203,o),
(494,-177,o),
(494,-139,cs),
(494,-102,o),
(465,-75,o),
(427,-75,cs),
(389,-75,o),
(360,-102,o),
(360,-139,cs),
(360,-177,o),
(389,-203,o),
(427,-203,cs)
);
}
);
width = 902;
}
);
note = uni1E42;
unicode = 7746;
},
{
glyphname = Nacute;
kernLeft = M;
kernRight = N;
layers = (
{
hints = (
{
horizontal = 1;
place = (628,41);
type = Stem;
},
{
horizontal = 1;
place = (624,45);
type = Stem;
},
{
horizontal = 1;
place = (0,41);
type = Stem;
},
{
horizontal = 1;
place = (-7,21);
target = up;
type = BottomGhost;
},
{
place = (559,51);
type = Stem;
},
{
place = (454,156);
type = Stem;
},
{
place = (124,157);
type = Stem;
},
{
place = (124,51);
type = Stem;
}
);
layerId = m01;
shapes = (
{
closed = 1;
nodes = (
(454,628,l),
(559,615,l),
(559,173,l),
(198,669,l),
(44,669,l),
(44,628,l),
(115,620,l),
(124,608,l),
(124,53,l),
(39,41,l),
(39,0,l),
(281,0,l),
(281,41,l),
(175,55,l),
(175,538,l),
(575,-7,l),
(610,-7,l),
(610,615,l),
(695,628,l),
(695,669,l),
(454,669,l)
);
},
{
closed = 1;
nodes = (
(328,706,l),
(370,728,o),
(412,751,o),
(454,774,cs),
(492,795,o),
(504,811,o),
(504,829,cs),
(504,849,o),
(487,863,o),
(466,863,cs),
(449,863,o),
(432,853,o),
(404,825,cs),
(372,795,o),
(341,764,o),
(310,731,c)
);
}
);
width = 735;
}
);
note = Nacute;
unicode = 323;
},
{
glyphname = Ncaron;
kernLeft = M;
kernRight = N;
layers = (
{
hints = (
{
horizontal = 1;
place = (719,54);
type = Stem;
},
{
horizontal = 1;
place = (628,41);
type = Stem;
},
{
horizontal = 1;
place = (624,45);
type = Stem;
},
{
horizontal = 1;
place = (0,41);
type = Stem;
},
{
horizontal = 1;
place = (-7,21);
target = up;
type = BottomGhost;
},
{
place = (559,51);
type = Stem;
},
{
place = (454,156);
type = Stem;
},
{
place = (124,157);
type = Stem;
},
{
place = (124,51);
type = Stem;
}
);
layerId = m01;
shapes = (
{
closed = 1;
nodes = (
(454,628,l),
(559,615,l),
(559,173,l),
(198,669,l),
(44,669,l),
(44,628,l),
(115,620,l),
(124,608,l),
(124,53,l),
(39,41,l),
(39,0,l),
(281,0,l),
(281,41,l),
(175,55,l),
(175,538,l),
(575,-7,l),
(610,-7,l),
(610,615,l),
(695,628,l),
(695,669,l),
(454,669,l)
);
},
{
closed = 1;
nodes = (
(258,858,l),
(234,837,l),
(336,719,l),
(410,719,l),
(512,837,l),
(488,858,l),
(373,773,l)
);
}
);
width = 735;
}
);
note = Ncaron;
unicode = 327;
},
{
glyphname = uni01F8;
kernLeft = M;
kernRight = N;
layers = (
{
hints = (
{
horizontal = 1;
place = (628,41);
type = Stem;
},
{
horizontal = 1;
place = (624,45);
type = Stem;
},
{
horizontal = 1;
place = (0,41);
type = Stem;
},
{
horizontal = 1;
place = (-7,21);
target = up;
type = BottomGhost;
},
{
place = (559,51);
type = Stem;
},
{
place = (454,156);
type = Stem;
},
{
place = (124,157);
type = Stem;
},
{
place = (124,51);
type = Stem;
}
);
layerId = m01;
shapes = (
{
closed = 1;
nodes = (
(454,628,l),
(559,615,l),
(559,173,l),
(198,669,l),
(44,669,l),
(44,628,l),
(115,620,l),
(124,608,l),
(124,53,l),
(39,41,l),
(39,0,l),
(281,0,l),
(281,41,l),
(175,55,l),
(175,538,l),
(575,-7,l),
(610,-7,l),
(610,615,l),
(695,628,l),
(695,669,l),
(454,669,l)
);
},
{
closed = 1;
nodes = (
(404,745,l),
(374,777,o),
(343,808,o),
(310,839,cs),
(282,867,o),
(265,877,o),
(248,877,cs),
(227,877,o),
(210,863,o),
(210,843,cs),
(210,825,o),
(222,808,o),
(260,787,cs),
(301,765,o),
(343,742,o),
(386,720,c)
);
}
);
width = 735;
}
);
note = uni01F8;
unicode = 504;
},
{
glyphname = Ntilde;
kernLeft = M;
kernRight = N;
layers = (
{
hints = (
{
horizontal = 1;
place = (794,59);
type = Stem;
},
{
horizontal = 1;
place = (713,58);
type = Stem;
},
{
horizontal = 1;
place = (628,41);
type = Stem;
},
{
horizontal = 1;
place = (624,45);
type = Stem;
},
{
horizontal = 1;
place = (0,41);
type = Stem;
},
{
horizontal = 1;
place = (-7,21);
target = up;
type = BottomGhost;
},
{
place = (559,51);
type = Stem;
},
{
place = (454,156);
type = Stem;
},
{
place = (124,157);
type = Stem;
},
{
place = (124,51);
type = Stem;
}
);
layerId = m01;
shapes = (
{
closed = 1;
nodes = (
(454,628,l),
(559,615,l),
(559,173,l),
(198,669,l),
(44,669,l),
(44,628,l),
(115,620,l),
(124,608,l),
(124,53,l),
(39,41,l),
(39,0,l),
(281,0,l),
(281,41,l),
(175,55,l),
(175,538,l),
(575,-7,l),
(610,-7,l),
(610,615,l),
(695,628,l),
(695,669,l),
(454,669,l)
);
},
{
closed = 1;
nodes = (
(226,715,l),
(241,764,o),
(262,794,o),
(294,794,cs),
(324,794,o),
(345,767,o),
(370,746,cs),
(392,729,o),
(415,713,o),
(452,713,cs),
(513,713,o),
(543,764,o),
(556,841,c),
(526,851,l),
(511,802,o),
(491,771,o),
(458,771,cs),
(428,771,o),
(407,799,o),
(382,819,cs),
(359,837,o),
(337,853,o),
(301,853,cs),
(240,853,o),
(208,802,o),
(196,724,c)
);
}
);
width = 735;
}
);
note = Ntilde;
unicode = 209;
},
{
glyphname = uni0145;
kernLeft = M;
kernRight = N;
layers = (
{
hints = (
{
horizontal = 1;
place = (628,41);
type = Stem;
},
{
horizontal = 1;
place = (624,45);
type = Stem;
},
{
horizontal = 1;
place = (0,41);
type = Stem;
},
{
horizontal = 1;
place = (-7,21);
target = up;
type = BottomGhost;
},
{
place = (559,51);
type = Stem;
},
{
place = (454,156);
type = Stem;
},
{
place = (339,107);
type = Stem;
},
{
place = (124,157);
type = Stem;
},
{
place = (124,51);
type = Stem;
}
);
layerId = m01;
shapes = (
{
closed = 1;
nodes = (
(454,628,l),
(559,615,l),
(559,173,l),
(198,669,l),
(44,669,l),
(44,628,l),
(115,620,l),
(124,608,l),
(124,53,l),
(39,41,l),
(39,0,l),
(281,0,l),
(281,41,l),
(175,55,l),
(175,538,l),
(575,-7,l),
(610,-7,l),
(610,615,l),
(695,628,l),
(695,669,l),
(454,669,l)
);
},
{
closed = 1;
nodes = (
(446,-94,o),
(444,-82,o),
(437,-61,c),
(422,-48,o),
(407,-42,o),
(391,-42,cs),
(363,-42,o),
(339,-62,o),
(339,-91,cs),
(339,-117,o),
(359,-141,o),
(386,-155,c),
(365,-183,o),
(338,-198,o),
(302,-212,c),
(312,-241,l),
(382,-218,o),
(446,-177,o),
(446,-108,cs)
);
}
);
width = 735;
}
);
note = uni0145;
unicode = 325;
},
{
glyphname = uni1E44;
kernLeft = M;
kernRight = N;
layers = (
{
hints = (
{
horizontal = 1;
place = (717,128);
type = Stem;
},
{
horizontal = 1;
place = (628,41);
type = Stem;
},
{
horizontal = 1;
place = (624,45);
type = Stem;
},
{
horizontal = 1;
place = (0,41);
type = Stem;
},
{
horizontal = 1;
place = (-7,21);
target = up;
type = BottomGhost;
},
{
place = (559,51);
type = Stem;
},
{
place = (454,156);
type = Stem;
},
{
place = (300,134);
type = Stem;
},
{
place = (124,157);
type = Stem;
},
{
place = (124,51);
type = Stem;
}
);
layerId = m01;
shapes = (
{
closed = 1;
nodes = (
(454,628,l),
(559,615,l),
(559,173,l),
(198,669,l),
(44,669,l),
(44,628,l),
(115,620,l),
(124,608,l),
(124,53,l),
(39,41,l),
(39,0,l),
(281,0,l),
(281,41,l),
(175,55,l),
(175,538,l),
(575,-7,l),
(610,-7,l),
(610,615,l),
(695,628,l),
(695,669,l),
(454,669,l)
);
},
{
closed = 1;
nodes = (
(405,717,o),
(434,744,o),
(434,781,cs),
(434,819,o),
(405,845,o),
(367,845,cs),
(329,845,o),
(300,819,o),
(300,781,cs),
(300,744,o),
(329,717,o),
(367,717,cs)
);
}
);
width = 735;
}
);
note = uni1E44;
unicode = 7748;
},
{
glyphname = uni1E46;
kernLeft = M;
kernRight = N;
layers = (
{
hints = (
{
horizontal = 1;
place = (628,41);
type = Stem;
},
{
horizontal = 1;
place = (624,45);
type = Stem;
},
{
horizontal = 1;
place = (0,41);
type = Stem;
},
{
horizontal = 1;
place = (-203,128);
type = Stem;
},
{
horizontal = 1;
place = (-7,21);
target = up;
type = BottomGhost;
},
{
place = (559,51);
type = Stem;
},
{
place = (454,156);
type = Stem;
},
{
place = (315,134);
type = Stem;
},
{
place = (124,157);
type = Stem;
},
{
place = (124,51);
type = Stem;
}
);
layerId = m01;
shapes = (
{
closed = 1;
nodes = (
(454,628,l),
(559,615,l),
(559,173,l),
(198,669,l),
(44,669,l),
(44,628,l),
(115,620,l),
(124,608,l),
(124,53,l),
(39,41,l),
(39,0,l),
(281,0,l),
(281,41,l),
(175,55,l),
(175,538,l),
(575,-7,l),
(610,-7,l),
(610,615,l),
(695,628,l),
(695,669,l),
(454,669,l)
);
},
{
closed = 1;
nodes = (
(420,-203,o),
(449,-177,o),
(449,-139,cs),
(449,-102,o),
(420,-75,o),
(382,-75,cs),
(344,-75,o),
(315,-102,o),
(315,-139,cs),
(315,-177,o),
(344,-203,o),
(382,-203,cs)
);
}
);
width = 735;
}
);
note = uni1E46;
unicode = 7750;
},
{
glyphname = uni1E48;
kernLeft = M;
kernRight = N;
layers = (
{
hints = (
{
horizontal = 1;
place = (628,41);
type = Stem;
},
{
horizontal = 1;
place = (624,45);
type = Stem;
},
{
horizontal = 1;
place = (0,41);
type = Stem;
},
{
horizontal = 1;
place = (-176,63);
type = Stem;
},
{
horizontal = 1;
place = (-7,21);
target = up;
type = BottomGhost;
},
{
place = (559,51);
type = Stem;
},
{
place = (454,156);
type = Stem;
},
{
place = (241,262);
type = Stem;
},
{
place = (124,157);
type = Stem;
},
{
place = (124,51);
type = Stem;
}
);
layerId = m01;
shapes = (
{
closed = 1;
nodes = (
(241,-176,l),
(503,-176,l),
(503,-113,l),
(241,-113,l)
);
},
{
closed = 1;
nodes = (
(454,628,l),
(559,615,l),
(559,173,l),
(198,669,l),
(44,669,l),
(44,628,l),
(115,620,l),
(124,608,l),
(124,53,l),
(39,41,l),
(39,0,l),
(281,0,l),
(281,41,l),
(175,55,l),
(175,538,l),
(575,-7,l),
(610,-7,l),
(610,615,l),
(695,628,l),
(695,669,l),
(454,669,l)
);
}
);
width = 735;
}
);
note = uni1E48;
unicode = 7752;
},
{
glyphname = Ograve;
kernLeft = C;
kernRight = O;
layers = (
{
hints = (
{
horizontal = 1;
place = (634,50);
type = Stem;
},
{
horizontal = 1;
place = (-15,50);
type = Stem;
},
{
place = (550,110);
type = Stem;
},
{
place = (47,109);
type = Stem;
}
);
layerId = m01;
shapes = (
{
closed = 1;
nodes = (
(156,485,o),
(215,634,o),
(354,634,cs),
(493,634,o),
(550,485,o),
(550,335,cs),
(550,184,o),
(493,35,o),
(354,35,cs),
(215,35,o),
(156,184,o),
(156,335,cs)
);
},
{
closed = 1;
nodes = (
(199,684,o),
(47,554,o),
(47,335,cs),
(47,106,o),
(198,-15,o),
(354,-15,cs),
(509,-15,o),
(660,115,o),
(660,335,cs),
(660,563,o),
(508,684,o),
(354,684,cs)
);
},
{
closed = 1;
nodes = (
(419,745,l),
(389,777,o),
(358,808,o),
(325,839,cs),
(297,867,o),
(280,877,o),
(263,877,cs),
(242,877,o),
(225,863,o),
(225,843,cs),
(225,825,o),
(237,808,o),
(275,787,cs),
(316,765,o),
(358,742,o),
(401,720,c)
);
}
);
width = 707;
}
);
note = Ograve;
unicode = 210;
},
{
glyphname = Oacute;
kernLeft = C;
kernRight = O;
layers = (
{
hints = (
{
horizontal = 1;
place = (634,50);
type = Stem;
},
{
horizontal = 1;
place = (-15,50);
type = Stem;
},
{
place = (550,110);
type = Stem;
},
{
place = (47,109);
type = Stem;
}
);
layerId = m01;
shapes = (
{
closed = 1;
nodes = (
(156,485,o),
(215,634,o),
(354,634,cs),
(493,634,o),
(550,485,o),
(550,335,cs),
(550,184,o),
(493,35,o),
(354,35,cs),
(215,35,o),
(156,184,o),
(156,335,cs)
);
},
{
closed = 1;
nodes = (
(199,684,o),
(47,554,o),
(47,335,cs),
(47,106,o),
(198,-15,o),
(354,-15,cs),
(509,-15,o),
(660,115,o),
(660,335,cs),
(660,563,o),
(508,684,o),
(354,684,cs)
);
},
{
closed = 1;
nodes = (
(325,720,l),
(367,742,o),
(409,765,o),
(451,788,cs),
(489,809,o),
(501,825,o),
(501,843,cs),
(501,863,o),
(484,877,o),
(463,877,cs),
(446,877,o),
(429,867,o),
(401,839,cs),
(369,809,o),
(338,778,o),
(307,745,c)
);
}
);
width = 707;
}
);
note = Oacute;
unicode = 211;
},
{
glyphname = uni014E;
kernLeft = C;
kernRight = O;
layers = (
{
hints = (
{
horizontal = 1;
place = (741,61);
type = Stem;
},
{
horizontal = 1;
place = (634,50);
type = Stem;
},
{
horizontal = 1;
place = (-15,50);
type = Stem;
},
{
place = (550,110);
type = Stem;
},
{
place = (47,109);
type = Stem;
}
);
layerId = m01;
shapes = (
{
closed = 1;
nodes = (
(156,485,o),
(215,634,o),
(354,634,cs),
(493,634,o),
(550,485,o),
(550,335,cs),
(550,184,o),
(493,35,o),
(354,35,cs),
(215,35,o),
(156,184,o),
(156,335,cs)
);
},
{
closed = 1;
nodes = (
(199,684,o),
(47,554,o),
(47,335,cs),
(47,106,o),
(198,-15,o),
(354,-15,cs),
(509,-15,o),
(660,115,o),
(660,335,cs),
(660,563,o),
(508,684,o),
(354,684,cs)
);
},
{
closed = 1;
nodes = (
(210,868,l),
(219,808,o),
(264,741,o),
(354,741,cs),
(444,741,o),
(489,808,o),
(498,868,c),
(467,879,l),
(450,834,o),
(414,802,o),
(354,802,cs),
(295,802,o),
(256,834,o),
(241,879,c)
);
}
);
width = 707;
}
);
note = uni014E;
unicode = 334;
},
{
glyphname = Ocircumflex;
kernLeft = C;
kernRight = O;
layers = (
{
hints = (
{
horizontal = 1;
place = (634,50);
type = Stem;
},
{
horizontal = 1;
place = (-15,50);
type = Stem;
},
{
place = (550,110);
type = Stem;
},
{
place = (47,109);
type = Stem;
}
);
layerId = m01;
shapes = (
{
closed = 1;
nodes = (
(156,485,o),
(215,634,o),
(354,634,cs),
(493,634,o),
(550,485,o),
(550,335,cs),
(550,184,o),
(493,35,o),
(354,35,cs),
(215,35,o),
(156,184,o),
(156,335,cs)
);
},
{
closed = 1;
nodes = (
(199,684,o),
(47,554,o),
(47,335,cs),
(47,106,o),
(198,-15,o),
(354,-15,cs),
(509,-15,o),
(660,115,o),
(660,335,cs),
(660,563,o),
(508,684,o),
(354,684,cs)
);
},
{
closed = 1;
nodes = (
(371,856,l),
(337,856,l),
(206,741,l),
(225,716,l),
(354,790,l),
(483,716,l),
(502,741,l)
);
}
);
width = 707;
}
);
note = Ocircumflex;
unicode = 212;
},
{
glyphname = Otilde;
kernLeft = C;
kernRight = O;
layers = (
{
hints = (
{
horizontal = 1;
place = (804,59);
type = Stem;
},
{
horizontal = 1;
place = (723,58);
type = Stem;
},
{
horizontal = 1;
place = (634,50);
type = Stem;
},
{
horizontal = 1;
place = (-15,50);
type = Stem;
},
{
place = (550,110);
type = Stem;
},
{
place = (47,109);
type = Stem;
}
);
layerId = m01;
shapes = (
{
closed = 1;
nodes = (
(156,485,o),
(215,634,o),
(354,634,cs),
(493,634,o),
(550,485,o),
(550,335,cs),
(550,184,o),
(493,35,o),
(354,35,cs),
(215,35,o),
(156,184,o),
(156,335,cs)
);
},
{
closed = 1;
nodes = (
(199,684,o),
(47,554,o),
(47,335,cs),
(47,106,o),
(198,-15,o),
(354,-15,cs),
(509,-15,o),
(660,115,o),
(660,335,cs),
(660,563,o),
(508,684,o),
(354,684,cs)
);
},
{
closed = 1;
nodes = (
(204,725,l),
(219,774,o),
(240,804,o),
(272,804,cs),
(302,804,o),
(323,777,o),
(348,756,cs),
(370,739,o),
(393,723,o),
(430,723,cs),
(491,723,o),
(521,774,o),
(534,851,c),
(504,861,l),
(489,812,o),
(469,781,o),
(436,781,cs),
(406,781,o),
(385,809,o),
(360,829,cs),
(337,847,o),
(315,863,o),
(279,863,cs),
(218,863,o),
(186,812,o),
(174,734,c)
);
}
);
width = 707;
}
);
note = Otilde;
unicode = 213;
},
{
glyphname = Odieresis;
kernLeft = C;
kernRight = O;
layers = (
{
hints = (
{
horizontal = 1;
place = (744,110);
type = Stem;
},
{
horizontal = 1;
place = (634,50);
type = Stem;
},
{
horizontal = 1;
place = (-15,50);
type = Stem;
},
{
place = (550,110);
type = Stem;
},
{
place = (408,115);
type = Stem;
},
{
place = (184,115);
type = Stem;
},
{
place = (47,109);
type = Stem;
}
);
layerId = m01;
shapes = (
{
closed = 1;
nodes = (
(156,485,o),
(215,634,o),
(354,634,cs),
(493,634,o),
(550,485,o),
(550,335,cs),
(550,184,o),
(493,35,o),
(354,35,cs),
(215,35,o),
(156,184,o),
(156,335,cs)
);
},
{
closed = 1;
nodes = (
(199,684,o),
(47,554,o),
(47,335,cs),
(47,106,o),
(198,-15,o),
(354,-15,cs),
(509,-15,o),
(660,115,o),
(660,335,cs),
(660,563,o),
(508,684,o),
(354,684,cs)
);
},
{
closed = 1;
nodes = (
(274,744,o),
(299,767,o),
(299,799,cs),
(299,831,o),
(274,854,o),
(242,854,cs),
(211,854,o),
(184,831,o),
(184,799,cs),
(184,767,o),
(211,744,o),
(242,744,cs)
);
},
{
closed = 1;
nodes = (
(496,744,o),
(523,767,o),
(523,799,cs),
(523,831,o),
(496,854,o),
(465,854,cs),
(433,854,o),
(408,831,o),
(408,799,cs),
(408,767,o),
(433,744,o),
(465,744,cs)
);
}
);
width = 707;
}
);
note = Odieresis;
unicode = 214;
},
{
glyphname = Omacron;
kernLeft = C;
kernRight = O;
layers = (
{
hints = (
{
horizontal = 1;
place = (758,63);
type = Stem;
},
{
horizontal = 1;
place = (634,50);
type = Stem;
},
{
horizontal = 1;
place = (-15,50);
type = Stem;
},
{
place = (550,110);
type = Stem;
},
{
place = (47,109);
type = Stem;
}
);
layerId = m01;
shapes = (
{
closed = 1;
nodes = (
(156,485,o),
(215,634,o),
(354,634,cs),
(493,634,o),
(550,485,o),
(550,335,cs),
(550,184,o),
(493,35,o),
(354,35,cs),
(215,35,o),
(156,184,o),
(156,335,cs)
);
},
{
closed = 1;
nodes = (
(199,684,o),
(47,554,o),
(47,335,cs),
(47,106,o),
(198,-15,o),
(354,-15,cs),
(509,-15,o),
(660,115,o),
(660,335,cs),
(660,563,o),
(508,684,o),
(354,684,cs)
);
},
{
closed = 1;
nodes = (
(203,758,l),
(505,758,l),
(505,821,l),
(203,821,l)
);
}
);
width = 707;
}
);
note = Omacron;
unicode = 332;
},
{
glyphname = Ohungarumlaut;
kernLeft = C;
kernRight = O;
layers = (
{
hints = (
{
horizontal = 1;
place = (634,50);
type = Stem;
},
{
horizontal = 1;
place = (-15,50);
type = Stem;
},
{
place = (550,110);
type = Stem;
},
{
place = (47,109);
type = Stem;
}
);
layerId = m01;
shapes = (
{
closed = 1;
nodes = (
(156,485,o),
(215,634,o),
(354,634,cs),
(493,634,o),
(550,485,o),
(550,335,cs),
(550,184,o),
(493,35,o),
(354,35,cs),
(215,35,o),
(156,184,o),
(156,335,cs)
);
},
{
closed = 1;
nodes = (
(199,684,o),
(47,554,o),
(47,335,cs),
(47,106,o),
(198,-15,o),
(354,-15,cs),
(509,-15,o),
(660,115,o),
(660,335,cs),
(660,563,o),
(508,684,o),
(354,684,cs)
);
},
{
closed = 1;
nodes = (
(257,729,l),
(283,711,l),
(379,810,ls),
(395,827,o),
(401,842,o),
(401,854,cs),
(401,874,o),
(384,888,o),
(365,888,cs),
(349,888,o),
(328,877,o),
(313,846,cs)
);
},
{
closed = 1;
nodes = (
(409,729,l),
(435,711,l),
(531,810,ls),
(547,827,o),
(553,842,o),
(553,854,cs),
(553,874,o),
(537,888,o),
(518,888,cs),
(501,888,o),
(480,877,o),
(465,846,cs)
);
}
);
width = 707;
}
);
note = Ohungarumlaut;
unicode = 336;
},
{
glyphname = uni01D1;
kernLeft = C;
kernRight = O;
layers = (
{
hints = (
{
horizontal = 1;
place = (729,54);
type = Stem;
},
{
horizontal = 1;
place = (634,50);
type = Stem;
},
{
horizontal = 1;
place = (-15,50);
type = Stem;
},
{
place = (550,110);
type = Stem;
},
{
place = (47,109);
type = Stem;
}
);
layerId = m01;
shapes = (
{
closed = 1;
nodes = (
(156,485,o),
(215,634,o),
(354,634,cs),
(493,634,o),
(550,485,o),
(550,335,cs),
(550,184,o),
(493,35,o),
(354,35,cs),
(215,35,o),
(156,184,o),
(156,335,cs)
);
},
{
closed = 1;
nodes = (
(199,684,o),
(47,554,o),
(47,335,cs),
(47,106,o),
(198,-15,o),
(354,-15,cs),
(509,-15,o),
(660,115,o),
(660,335,cs),
(660,563,o),
(508,684,o),
(354,684,cs)
);
},
{
closed = 1;
nodes = (
(239,868,l),
(215,847,l),
(317,729,l),
(391,729,l),
(493,847,l),
(469,868,l),
(354,783,l)
);
}
);
width = 707;
}
);
note = uni01D1;
unicode = 465;
},
{
glyphname = uni1ED0;
kernLeft = C;
kernRight = O;
layers = (
{
hints = (
{
horizontal = 1;
place = (634,50);
type = Stem;
},
{
horizontal = 1;
place = (-15,50);
type = Stem;
},
{
place = (550,110);
type = Stem;
},
{
place = (47,109);
type = Stem;
}
);
layerId = m01;
shapes = (
{
closed = 1;
nodes = (
(156,485,o),
(215,634,o),
(354,634,cs),
(493,634,o),
(550,485,o),
(550,335,cs),
(550,184,o),
(493,35,o),
(354,35,cs),
(215,35,o),
(156,184,o),
(156,335,cs)
);
},
{
closed = 1;
nodes = (
(199,684,o),
(47,554,o),
(47,335,cs),
(47,106,o),
(198,-15,o),
(354,-15,cs),
(509,-15,o),
(660,115,o),
(660,335,cs),
(660,563,o),
(508,684,o),
(354,684,cs)
);
},
{
closed = 1;
nodes = (
(485,801,l),
(546,834,ls),
(586,855,o),
(592,868,o),
(592,884,cs),
(592,901,o),
(579,914,o),
(560,914,cs),
(546,914,o),
(529,906,o),
(512,883,cs),
(464,823,l)
);
},
{
closed = 1;
nodes = (
(233,716,l),
(362,790,l),
(491,716,l),
(510,741,l),
(379,856,l),
(345,856,l),
(214,741,l)
);
}
);
width = 707;
}
);
note = uni1ED0;
unicode = 7888;
},
{
glyphname = uni1ED8;
kernLeft = C;
kernRight = O;
layers = (
{
hints = (
{
horizontal = 1;
place = (634,50);
type = Stem;
},
{
horizontal = 1;
place = (-15,50);
type = Stem;
},
{
horizontal = 1;
place = (-203,128);
type = Stem;
},
{
place = (550,110);
type = Stem;
},
{
place = (286,134);
type = Stem;
},
{
place = (47,109);
type = Stem;
}
);
layerId = m01;
shapes = (
{
closed = 1;
nodes = (
(391,-203,o),
(420,-177,o),
(420,-139,cs),
(420,-102,o),
(391,-75,o),
(353,-75,cs),
(315,-75,o),
(286,-102,o),
(286,-139,cs),
(286,-177,o),
(315,-203,o),
(353,-203,cs)
);
},
{
closed = 1;
nodes = (
(156,485,o),
(215,634,o),
(354,634,cs),
(493,634,o),
(550,485,o),
(550,335,cs),
(550,184,o),
(493,35,o),
(354,35,cs),
(215,35,o),
(156,184,o),
(156,335,cs)
);
},
{
closed = 1;
nodes = (
(199,684,o),
(47,554,o),
(47,335,cs),
(47,106,o),
(198,-15,o),
(354,-15,cs),
(509,-15,o),
(660,115,o),
(660,335,cs),
(660,563,o),
(508,684,o),
(354,684,cs)
);
},
{
closed = 1;
nodes = (
(371,856,l),
(337,856,l),
(206,741,l),
(225,716,l),
(354,790,l),
(483,716,l),
(502,741,l)
);
}
);
width = 707;
}
);
note = uni1ED8;
unicode = 7896;
},
{
glyphname = uni1ED2;
kernLeft = C;
kernRight = O;
layers = (
{
hints = (
{
horizontal = 1;
place = (634,50);
type = Stem;
},
{
horizontal = 1;
place = (-15,50);
type = Stem;
},
{
place = (550,110);
type = Stem;
},
{
place = (47,109);
type = Stem;
}
);
layerId = m01;
shapes = (
{
closed = 1;
nodes = (
(156,485,o),
(215,634,o),
(354,634,cs),
(493,634,o),
(550,485,o),
(550,335,cs),
(550,184,o),
(493,35,o),
(354,35,cs),
(215,35,o),
(156,184,o),
(156,335,cs)
);
},
{
closed = 1;
nodes = (
(199,684,o),
(47,554,o),
(47,335,cs),
(47,106,o),
(198,-15,o),
(354,-15,cs),
(509,-15,o),
(660,115,o),
(660,335,cs),
(660,563,o),
(508,684,o),
(354,684,cs)
);
},
{
closed = 1;
nodes = (
(220,803,l),
(242,825,l),
(194,883,ls),
(175,907,o),
(159,914,o),
(145,914,cs),
(127,914,o),
(113,901,o),
(113,884,cs),
(113,868,o),
(119,854,o),
(159,834,cs)
);
},
{
closed = 1;
nodes = (
(482,716,l),
(501,741,l),
(370,856,l),
(336,856,l),
(205,741,l),
(224,716,l),
(353,790,l)
);
}
);
width = 707;
}
);
note = uni1ED2;
unicode = 7890;
},
{
glyphname = uni1ED4;
kernLeft = C;
kernRight = O;
layers = (
{
hints = (
{
horizontal = 1;
place = (884,67);
type = Stem;
},
{
horizontal = 1;
place = (634,50);
type = Stem;
},
{
horizontal = 1;
place = (-15,50);
type = Stem;
},
{
place = (550,110);
type = Stem;
},
{
place = (517,49);
type = Stem;
},
{
place = (47,109);
type = Stem;
}
);
layerId = m01;
shapes = (
{
closed = 1;
nodes = (
(156,485,o),
(215,634,o),
(354,634,cs),
(493,634,o),
(550,485,o),
(550,335,cs),
(550,184,o),
(493,35,o),
(354,35,cs),
(215,35,o),
(156,184,o),
(156,335,cs)
);
},
{
closed = 1;
nodes = (
(199,684,o),
(47,554,o),
(47,335,cs),
(47,106,o),
(198,-15,o),
(354,-15,cs),
(509,-15,o),
(660,115,o),
(660,335,cs),
(660,563,o),
(508,684,o),
(354,684,cs)
);
},
{
closed = 1;
nodes = (
(224,716,l),
(353,790,l),
(482,716,l),
(501,741,l),
(370,856,l),
(336,856,l),
(205,741,l)
);
},
{
closed = 1;
nodes = (
(473,786,l),
(532,793,o),
(566,823,o),
(566,864,cs),
(566,914,o),
(526,943,o),
(444,951,c),
(434,884,l),
(491,879,o),
(517,868,o),
(517,850,cs),
(517,834,o),
(502,825,o),
(464,817,c)
);
}
);
width = 707;
}
);
note = uni1ED4;
unicode = 7892;
},
{
glyphname = uni1ED6;
kernLeft = C;
kernRight = O;
layers = (
{
hints = (
{
horizontal = 1;
place = (900,54);
type = Stem;
},
{
horizontal = 1;
place = (854,54);
type = Stem;
},
{
horizontal = 1;
place = (634,50);
type = Stem;
},
{
horizontal = 1;
place = (-15,50);
type = Stem;
},
{
place = (550,110);
type = Stem;
},
{
place = (47,109);
type = Stem;
}
);
layerId = m01;
shapes = (
{
closed = 1;
nodes = (
(156,485,o),
(215,634,o),
(354,634,cs),
(493,634,o),
(550,485,o),
(550,335,cs),
(550,184,o),
(493,35,o),
(354,35,cs),
(215,35,o),
(156,184,o),
(156,335,cs)
);
},
{
closed = 1;
nodes = (
(199,684,o),
(47,554,o),
(47,335,cs),
(47,106,o),
(198,-15,o),
(354,-15,cs),
(509,-15,o),
(660,115,o),
(660,335,cs),
(660,563,o),
(508,684,o),
(354,684,cs)
);
},
{
closed = 1;
nodes = (
(221,709,l),
(353,768,l),
(485,709,l),
(501,734,l),
(370,829,l),
(336,829,l),
(205,734,l)
);
},
{
closed = 1;
nodes = (
(214,854,l),
(226,883,o),
(246,900,o),
(276,900,cs),
(303,900,o),
(325,888,o),
(346,876,cs),
(366,864,o),
(387,854,o),
(421,854,cs),
(477,854,o),
(507,889,o),
(516,943,c),
(492,954,l),
(480,925,o),
(460,908,o),
(430,908,cs),
(403,908,o),
(382,920,o),
(360,932,cs),
(339,944,o),
(319,954,o),
(285,954,cs),
(230,954,o),
(198,918,o),
(190,864,c)
);
}
);
width = 707;
}
);
note = uni1ED6;
unicode = 7894;
},
{
glyphname = uni1ECC;
kernLeft = C;
kernRight = O;
layers = (
{
hints = (
{
horizontal = 1;
place = (634,50);
type = Stem;
},
{
horizontal = 1;
place = (-15,50);
type = Stem;
},
{
horizontal = 1;
place = (-203,128);
type = Stem;
},
{
place = (550,110);
type = Stem;
},
{
place = (286,134);
type = Stem;
},
{
place = (47,109);
type = Stem;
}
);
layerId = m01;
shapes = (
{
closed = 1;
nodes = (
(156,485,o),
(215,634,o),
(354,634,cs),
(493,634,o),
(550,485,o),
(550,335,cs),
(550,184,o),
(493,35,o),
(354,35,cs),
(215,35,o),
(156,184,o),
(156,335,cs)
);
},
{
closed = 1;
nodes = (
(199,684,o),
(47,554,o),
(47,335,cs),
(47,106,o),
(198,-15,o),
(354,-15,cs),
(509,-15,o),
(660,115,o),
(660,335,cs),
(660,563,o),
(508,684,o),
(354,684,cs)
);
},
{
closed = 1;
nodes = (
(391,-203,o),
(420,-177,o),
(420,-139,cs),
(420,-102,o),
(391,-75,o),
(353,-75,cs),
(315,-75,o),
(286,-102,o),
(286,-139,cs),
(286,-177,o),
(315,-203,o),
(353,-203,cs)
);
}
);
width = 707;
}
);
note = uni1ECC;
unicode = 7884;
},
{
glyphname = uni1ECE;
kernLeft = C;
kernRight = O;
layers = (
{
hints = (
{
horizontal = 1;
place = (815,67);
type = Stem;
},
{
horizontal = 1;
place = (634,50);
type = Stem;
},
{
horizontal = 1;
place = (-15,50);
type = Stem;
},
{
place = (550,110);
type = Stem;
},
{
place = (378,49);
type = Stem;
},
{
place = (47,109);
type = Stem;
}
);
layerId = m01;
shapes = (
{
closed = 1;
nodes = (
(156,485,o),
(215,634,o),
(354,634,cs),
(493,634,o),
(550,485,o),
(550,335,cs),
(550,184,o),
(493,35,o),
(354,35,cs),
(215,35,o),
(156,184,o),
(156,335,cs)
);
},
{
closed = 1;
nodes = (
(199,684,o),
(47,554,o),
(47,335,cs),
(47,106,o),
(198,-15,o),
(354,-15,cs),
(509,-15,o),
(660,115,o),
(660,335,cs),
(660,563,o),
(508,684,o),
(354,684,cs)
);
},
{
closed = 1;
nodes = (
(334,717,l),
(392,725,o),
(427,754,o),
(427,795,cs),
(427,845,o),
(386,875,o),
(305,882,c),
(295,815,l),
(352,810,o),
(378,800,o),
(378,781,cs),
(378,765,o),
(363,756,o),
(325,748,c)
);
}
);
width = 707;
}
);
note = uni1ECE;
unicode = 7886;
},
{
glyphname = Ohorn;
kernLeft = C;
kernRight = O;
layers = (
{
anchors = (
{
name = bottom;
pos = (353,-22);
},
{
name = top;
pos = (352,691);
}
);
hints = (
{
horizontal = 1;
place = (634,50);
type = Stem;
},
{
horizontal = 1;
place = (-15,50);
type = Stem;
},
{
place = (596,64);
type = Stem;
},
{
place = (550,110);
type = Stem;
},
{
place = (47,109);
type = Stem;
}
);
layerId = m01;
shapes = (
{
closed = 1;
nodes = (
(156,485,o),
(215,634,o),
(354,634,cs),
(493,634,o),
(550,485,o),
(550,335,cs),
(550,184,o),
(493,35,o),
(354,35,cs),
(215,35,o),
(156,184,o),
(156,335,cs)
);
},
{
closed = 1;
nodes = (
(199,684,o),
(47,554,o),
(47,335,cs),
(47,106,o),
(198,-15,o),
(354,-15,cs),
(509,-15,o),
(660,115,o),
(660,335,cs),
(660,446,o),
(624,531,o),
(569,590,c),
(623,614,o),
(660,663,o),
(660,730,cs),
(660,748,o),
(655,766,o),
(646,785,c),
(633,796,o),
(620,797,o),
(610,797,cs),
(586,797,o),
(571,777,o),
(571,761,cs),
(571,733,o),
(596,713,o),
(596,683,cs),
(596,648,o),
(580,626,o),
(546,612,c),
(492,660,o),
(423,684,o),
(354,684,cs)
);
}
);
width = 707;
}
);
note = Ohorn;
unicode = 416;
},
{
glyphname = uni1EDA;
kernLeft = C;
kernRight = O;
layers = (
{
hints = (
{
horizontal = 1;
place = (634,50);
type = Stem;
},
{
horizontal = 1;
place = (-15,50);
type = Stem;
},
{
place = (596,64);
type = Stem;
},
{
place = (550,110);
type = Stem;
},
{
place = (47,109);
type = Stem;
}
);
layerId = m01;
shapes = (
{
closed = 1;
nodes = (
(156,485,o),
(215,634,o),
(354,634,cs),
(493,634,o),
(550,485,o),
(550,335,cs),
(550,184,o),
(493,35,o),
(354,35,cs),
(215,35,o),
(156,184,o),
(156,335,cs)
);
},
{
closed = 1;
nodes = (
(199,684,o),
(47,554,o),
(47,335,cs),
(47,106,o),
(198,-15,o),
(354,-15,cs),
(509,-15,o),
(660,115,o),
(660,335,cs),
(660,446,o),
(624,531,o),
(569,590,c),
(623,614,o),
(660,663,o),
(660,730,cs),
(660,748,o),
(655,766,o),
(646,785,c),
(633,796,o),
(620,797,o),
(610,797,cs),
(586,797,o),
(571,777,o),
(571,761,cs),
(571,733,o),
(596,713,o),
(596,683,cs),
(596,648,o),
(580,626,o),
(546,612,c),
(492,660,o),
(423,684,o),
(354,684,cs)
);
},
{
closed = 1;
nodes = (
(304,720,l),
(346,742,o),
(388,765,o),
(430,788,cs),
(468,809,o),
(480,825,o),
(480,843,cs),
(480,863,o),
(463,877,o),
(442,877,cs),
(425,877,o),
(408,867,o),
(380,839,cs),
(348,809,o),
(317,778,o),
(286,745,c)
);
}
);
width = 707;
}
);
note = uni1EDA;
unicode = 7898;
},
{
glyphname = uni1EE2;
kernLeft = C;
kernRight = O;
layers = (
{
hints = (
{
horizontal = 1;
place = (634,50);
type = Stem;
},
{
horizontal = 1;
place = (-15,50);
type = Stem;
},
{
horizontal = 1;
place = (-203,128);
type = Stem;
},
{
place = (596,64);
type = Stem;
},
{
place = (550,110);
type = Stem;
},
{
place = (286,134);
type = Stem;
},
{
place = (47,109);
type = Stem;
}
);
layerId = m01;
shapes = (
{
closed = 1;
nodes = (
(391,-203,o),
(420,-177,o),
(420,-139,cs),
(420,-102,o),
(391,-75,o),
(353,-75,cs),
(315,-75,o),
(286,-102,o),
(286,-139,cs),
(286,-177,o),
(315,-203,o),
(353,-203,cs)
);
},
{
closed = 1;
nodes = (
(156,485,o),
(215,634,o),
(354,634,cs),
(493,634,o),
(550,485,o),
(550,335,cs),
(550,184,o),
(493,35,o),
(354,35,cs),
(215,35,o),
(156,184,o),
(156,335,cs)
);
},
{
closed = 1;
nodes = (
(199,684,o),
(47,554,o),
(47,335,cs),
(47,106,o),
(198,-15,o),
(354,-15,cs),
(509,-15,o),
(660,115,o),
(660,335,cs),
(660,446,o),
(624,531,o),
(569,590,c),
(623,614,o),
(660,663,o),
(660,730,cs),
(660,748,o),
(655,766,o),
(646,785,c),
(633,796,o),
(620,797,o),
(610,797,cs),
(586,797,o),
(571,777,o),
(571,761,cs),
(571,733,o),
(596,713,o),
(596,683,cs),
(596,648,o),
(580,626,o),
(546,612,c),
(492,660,o),
(423,684,o),
(354,684,cs)
);
}
);
width = 707;
}
);
note = uni1EE2;
unicode = 7906;
},
{
glyphname = uni1EDC;
kernLeft = C;
kernRight = O;
layers = (
{
hints = (
{
horizontal = 1;
place = (634,50);
type = Stem;
},
{
horizontal = 1;
place = (-15,50);
type = Stem;
},
{
place = (596,64);
type = Stem;
},
{
place = (550,110);
type = Stem;
},
{
place = (47,109);
type = Stem;
}
);
layerId = m01;
shapes = (
{
closed = 1;
nodes = (
(156,485,o),
(215,634,o),
(354,634,cs),
(493,634,o),
(550,485,o),
(550,335,cs),
(550,184,o),
(493,35,o),
(354,35,cs),
(215,35,o),
(156,184,o),
(156,335,cs)
);
},
{
closed = 1;
nodes = (
(199,684,o),
(47,554,o),
(47,335,cs),
(47,106,o),
(198,-15,o),
(354,-15,cs),
(509,-15,o),
(660,115,o),
(660,335,cs),
(660,446,o),
(624,531,o),
(569,590,c),
(623,614,o),
(660,663,o),
(660,730,cs),
(660,748,o),
(655,766,o),
(646,785,c),
(633,796,o),
(620,797,o),
(610,797,cs),
(586,797,o),
(571,777,o),
(571,761,cs),
(571,733,o),
(596,713,o),
(596,683,cs),
(596,648,o),
(580,626,o),
(546,612,c),
(492,660,o),
(423,684,o),
(354,684,cs)
);
},
{
closed = 1;
nodes = (
(420,745,l),
(390,777,o),
(359,808,o),
(326,839,cs),
(298,867,o),
(281,877,o),
(264,877,cs),
(243,877,o),
(226,863,o),
(226,843,cs),
(226,825,o),
(238,808,o),
(276,787,cs),
(317,765,o),
(359,742,o),
(402,720,c)
);
}
);
width = 707;
}
);
note = uni1EDC;
unicode = 7900;
},
{
glyphname = uni1EDE;
kernLeft = C;
kernRight = O;
layers = (
{
hints = (
{
horizontal = 1;
place = (815,67);
type = Stem;
},
{
horizontal = 1;
place = (634,50);
type = Stem;
},
{
horizontal = 1;
place = (-15,50);
type = Stem;
},
{
place = (596,64);
type = Stem;
},
{
place = (550,110);
type = Stem;
},
{
place = (378,49);
type = Stem;
},
{
place = (47,109);
type = Stem;
}
);
layerId = m01;
shapes = (
{
closed = 1;
nodes = (
(156,485,o),
(215,634,o),
(354,634,cs),
(493,634,o),
(550,485,o),
(550,335,cs),
(550,184,o),
(493,35,o),
(354,35,cs),
(215,35,o),
(156,184,o),
(156,335,cs)
);
},
{
closed = 1;
nodes = (
(199,684,o),
(47,554,o),
(47,335,cs),
(47,106,o),
(198,-15,o),
(354,-15,cs),
(509,-15,o),
(660,115,o),
(660,335,cs),
(660,446,o),
(624,531,o),
(569,590,c),
(623,614,o),
(660,663,o),
(660,730,cs),
(660,748,o),
(655,766,o),
(646,785,c),
(633,796,o),
(620,797,o),
(610,797,cs),
(586,797,o),
(571,777,o),
(571,761,cs),
(571,733,o),
(596,713,o),
(596,683,cs),
(596,648,o),
(580,626,o),
(546,612,c),
(492,660,o),
(423,684,o),
(354,684,cs)
);
},
{
closed = 1;
nodes = (
(334,717,l),
(392,725,o),
(427,754,o),
(427,795,cs),
(427,845,o),
(386,875,o),
(305,882,c),
(295,815,l),
(352,810,o),
(378,800,o),
(378,781,cs),
(378,765,o),
(363,756,o),
(325,748,c)
);
}
);
width = 707;
}
);
note = uni1EDE;
unicode = 7902;
},
{
glyphname = uni1EE0;
kernLeft = C;
kernRight = O;
layers = (
{
hints = (
{
horizontal = 1;
place = (804,59);
type = Stem;
},
{
horizontal = 1;
place = (723,58);
type = Stem;
},
{
horizontal = 1;
place = (634,50);
type = Stem;
},
{
horizontal = 1;
place = (-15,50);
type = Stem;
},
{
place = (596,64);
type = Stem;
},
{
place = (550,110);
type = Stem;
},
{
place = (47,109);
type = Stem;
}
);
layerId = m01;
shapes = (
{
closed = 1;
nodes = (
(156,485,o),
(215,634,o),
(354,634,cs),
(493,634,o),
(550,485,o),
(550,335,cs),
(550,184,o),
(493,35,o),
(354,35,cs),
(215,35,o),
(156,184,o),
(156,335,cs)
);
},
{
closed = 1;
nodes = (
(199,684,o),
(47,554,o),
(47,335,cs),
(47,106,o),
(198,-15,o),
(354,-15,cs),
(509,-15,o),
(660,115,o),
(660,335,cs),
(660,446,o),
(624,531,o),
(569,590,c),
(623,614,o),
(660,663,o),
(660,730,cs),
(660,748,o),
(655,766,o),
(646,785,c),
(633,796,o),
(620,797,o),
(610,797,cs),
(586,797,o),
(571,777,o),
(571,761,cs),
(571,733,o),
(596,713,o),
(596,683,cs),
(596,648,o),
(580,626,o),
(546,612,c),
(492,660,o),
(423,684,o),
(354,684,cs)
);
},
{
closed = 1;
nodes = (
(196,725,l),
(211,774,o),
(232,804,o),
(264,804,cs),
(294,804,o),
(315,777,o),
(340,756,cs),
(362,739,o),
(385,723,o),
(422,723,cs),
(483,723,o),
(513,774,o),
(526,851,c),
(496,861,l),
(481,812,o),
(461,781,o),
(428,781,cs),
(398,781,o),
(377,809,o),
(352,829,cs),
(329,847,o),
(307,863,o),
(271,863,cs),
(210,863,o),
(178,812,o),
(166,734,c)
);
}
);
width = 707;
}
);
note = uni1EE0;
unicode = 7904;
},
{
glyphname = Oslash;
kernLeft = C;
kernRight = O;
layers = (
{
anchors = (
{
name = top;
pos = (353,691);
}
);
hints = (
{
horizontal = 1;
place = (634,50);
type = Stem;
},
{
horizontal = 1;
place = (-15,50);
type = Stem;
},
{
place = (560,100);
type = Stem;
},
{
place = (47,99);
type = Stem;
}
);
layerId = m01;
shapes = (
{
closed = 1;
nodes = (
(646,656,l),
(604,690,l),
(543,615,l),
(489,661,o),
(422,684,o),
(354,684,cs),
(199,684,o),
(47,554,o),
(47,335,cs),
(47,235,o),
(76,156,o),
(121,98,c),
(52,13,l),
(95,-21,l),
(159,58,l),
(214,10,o),
(284,-15,o),
(354,-15,cs),
(509,-15,o),
(660,115,o),
(660,335,cs),
(660,438,o),
(629,519,o),
(581,577,c)
);
},
{
closed = 1;
nodes = (
(146,485,o),
(207,634,o),
(354,634,cs),
(418,634,o),
(465,605,o),
(499,561,c),
(176,165,l),
(156,216,o),
(146,275,o),
(146,335,cs)
);
},
{
closed = 1;
nodes = (
(560,184,o),
(500,35,o),
(354,35,cs),
(287,35,o),
(238,66,o),
(205,114,c),
(527,510,l),
(550,459,o),
(560,397,o),
(560,335,cs)
);
}
);
width = 707;
}
);
note = Oslash;
unicode = 216;
},
{
glyphname = OE;
kernLeft = C;
kernRight = E;
layers = (
{
anchors = (
{
name = top;
pos = (517,691);
}
);
hints = (
{
horizontal = 1;
place = (634,50);
type = Stem;
},
{
horizontal = 1;
place = (619,50);
type = Stem;
},
{
horizontal = 1;
place = (492,177);
type = Stem;
},
{
horizontal = 1;
place = (318,47);
type = Stem;
},
{
horizontal = 1;
place = (0,178);
type = Stem;
},
{
horizontal = 1;
place = (0,50);
type = Stem;
},
{
horizontal = 1;
place = (-15,50);
type = Stem;
},
{
place = (824,75.5);
type = Stem;
},
{
place = (804,75.5);
type = Stem;
},
{
place = (727,46);
type = Stem;
},
{
place = (472,95);
type = Stem;
},
{
place = (47,109);
type = Stem;
}
);
layerId = m01;
shapes = (
{
closed = 1;
nodes = (
(156,490,o),
(220,634,o),
(390,634,cs),
(421,634,o),
(444,632,o),
(470,624,c),
(472,536,o),
(472,447,o),
(472,359,cs),
(472,310,ls),
(472,221,o),
(472,132,o),
(470,45,c),
(444,37,o),
(422,35,o),
(389,35,cs),
(220,35,o),
(156,180,o),
(156,335,cs)
);
},
{
closed = 1;
nodes = (
(846,178,l),
(824,50,l),
(569,50,l),
(567,133,o),
(567,218,o),
(567,318,c),
(714,318,l),
(727,224,l),
(773,224,l),
(773,460,l),
(727,460,l),
(713,365,l),
(567,365,l),
(567,447,o),
(567,534,o),
(569,619,c),
(804,619,l),
(826,492,l),
(883,492,l),
(876,669,l),
(510,669,l),
(457,679,o),
(413,684,o),
(382,684,cs),
(199,684,o),
(47,557,o),
(47,335,cs),
(47,112,o),
(199,-15,o),
(382,-15,cs),
(414,-15,o),
(457,-10,o),
(510,0,c),
(896,0,l),
(903,178,l)
);
}
);
width = 938;
}
);
note = OE;
unicode = 338;
},
{
glyphname = Racute;
kernLeft = B;
kernRight = R;
layers = (
{
hints = (
{
horizontal = 1;
place = (623,46);
type = Stem;
},
{
horizontal = 1;
place = (622.5,46.5);
type = Stem;
},
{
horizontal = 1;
place = (310,45);
type = Stem;
},
{
horizontal = 1;
place = (0,46.5);
type = Stem;
},
{
horizontal = 1;
place = (-10,55.5);
type = Stem;
},
{
place = (468,99);
type = Stem;
},
{
place = (138,95);
type = Stem;
}
);
layerId = m01;
shapes = (
{
closed = 1;
nodes = (
(301,720,l),
(343,742,o),
(385,765,o),
(427,788,cs),
(465,809,o),
(477,825,o),
(477,843,cs),
(477,863,o),
(460,877,o),
(439,877,cs),
(422,877,o),
(405,867,o),
(377,839,cs),
(345,809,o),
(314,778,o),
(283,745,c)
);
},
{
closed = 1;
nodes = (
(138,310,ls),
(138,223,o),
(138,136,o),
(136,52,c),
(44,41,l),
(44,0,l),
(327,0,l),
(327,41,l),
(235,52,l),
(233,132,o),
(233,214,o),
(233,310,c),
(282,310,ls),
(363,310,o),
(400,295,o),
(419,214,cs),
(459,54,ls),
(471,6,o),
(499,-10,o),
(562,-10,cs),
(593,-10,o),
(617,-6,o),
(637,0,c),
(637,41,l),
(560,50,l),
(517,198,ls),
(494,277,o),
(458,313,o),
(399,325,c),
(511,345,o),
(567,416,o),
(567,494,cs),
(567,604,o),
(477,669,o),
(324,669,cs),
(44,669,l),
(44,628,l),
(136,617,l),
(138,531,o),
(138,445,o),
(138,359,cs)
);
},
{
closed = 1;
nodes = (
(321,623,ls),
(424,623,o),
(468,577,o),
(468,493,cs),
(468,413,o),
(418,355,o),
(310,355,cs),
(233,355,l),
(233,450,o),
(233,535,o),
(235,623,c)
);
}
);
width = 651;
}
);
note = Racute;
unicode = 340;
},
{
glyphname = Rcaron;
kernLeft = B;
kernRight = R;
layers = (
{
hints = (
{
horizontal = 1;
place = (729,54);
type = Stem;
},
{
horizontal = 1;
place = (623,46);
type = Stem;
},
{
horizontal = 1;
place = (622.5,46.5);
type = Stem;
},
{
horizontal = 1;
place = (310,45);
type = Stem;
},
{
horizontal = 1;
place = (0,46.5);
type = Stem;
},
{
horizontal = 1;
place = (-10,55.5);
type = Stem;
},
{
place = (468,99);
type = Stem;
},
{
place = (138,95);
type = Stem;
}
);
layerId = m01;
shapes = (
{
closed = 1;
nodes = (
(138,310,ls),
(138,223,o),
(138,136,o),
(136,52,c),
(44,41,l),
(44,0,l),
(327,0,l),
(327,41,l),
(235,52,l),
(233,132,o),
(233,214,o),
(233,310,c),
(282,310,ls),
(363,310,o),
(400,295,o),
(419,214,cs),
(459,54,ls),
(471,6,o),
(499,-10,o),
(562,-10,cs),
(593,-10,o),
(617,-6,o),
(637,0,c),
(637,41,l),
(560,50,l),
(517,198,ls),
(494,277,o),
(458,313,o),
(399,325,c),
(511,345,o),
(567,416,o),
(567,494,cs),
(567,604,o),
(477,669,o),
(324,669,cs),
(44,669,l),
(44,628,l),
(136,617,l),
(138,531,o),
(138,445,o),
(138,359,cs)
);
},
{
closed = 1;
nodes = (
(321,623,ls),
(424,623,o),
(468,577,o),
(468,493,cs),
(468,413,o),
(418,355,o),
(310,355,cs),
(233,355,l),
(233,450,o),
(233,535,o),
(235,623,c)
);
},
{
closed = 1;
nodes = (
(206,868,l),
(182,847,l),
(284,729,l),
(358,729,l),
(460,847,l),
(436,868,l),
(321,783,l)
);
}
);
width = 651;
}
);
note = Rcaron;
unicode = 344;
},
{
glyphname = uni0156;
kernLeft = B;
kernRight = R;
layers = (
{
hints = (
{
horizontal = 1;
place = (623,46);
type = Stem;
},
{
horizontal = 1;
place = (622.5,46.5);
type = Stem;
},
{
horizontal = 1;
place = (310,45);
type = Stem;
},
{
horizontal = 1;
place = (0,46.5);
type = Stem;
},
{
horizontal = 1;
place = (-10,55.5);
type = Stem;
},
{
place = (468,99);
type = Stem;
},
{
place = (306,107);
type = Stem;
},
{
place = (138,95);
type = Stem;
}
);
layerId = m01;
shapes = (
{
closed = 1;
nodes = (
(138,310,ls),
(138,223,o),
(138,136,o),
(136,52,c),
(44,41,l),
(44,0,l),
(327,0,l),
(327,41,l),
(235,52,l),
(233,132,o),
(233,214,o),
(233,310,c),
(282,310,ls),
(363,310,o),
(400,295,o),
(419,214,cs),
(459,54,ls),
(471,6,o),
(499,-10,o),
(562,-10,cs),
(593,-10,o),
(617,-6,o),
(637,0,c),
(637,41,l),
(560,50,l),
(517,198,ls),
(494,277,o),
(458,313,o),
(399,325,c),
(511,345,o),
(567,416,o),
(567,494,cs),
(567,604,o),
(477,669,o),
(324,669,cs),
(44,669,l),
(44,628,l),
(136,617,l),
(138,531,o),
(138,445,o),
(138,359,cs)
);
},
{
closed = 1;
nodes = (
(321,623,ls),
(424,623,o),
(468,577,o),
(468,493,cs),
(468,413,o),
(418,355,o),
(310,355,cs),
(233,355,l),
(233,450,o),
(233,535,o),
(235,623,c)
);
},
{
closed = 1;
nodes = (
(413,-94,o),
(411,-82,o),
(404,-61,c),
(389,-48,o),
(374,-42,o),
(358,-42,cs),
(330,-42,o),
(306,-62,o),
(306,-91,cs),
(306,-117,o),
(326,-141,o),
(353,-155,c),
(332,-183,o),
(305,-198,o),
(269,-212,c),
(279,-241,l),
(349,-218,o),
(413,-177,o),
(413,-108,cs)
);
}
);
width = 651;
}
);
note = uni0156;
unicode = 342;
},
{
glyphname = uni1E5A;
kernLeft = B;
kernRight = R;
layers = (
{
hints = (
{
horizontal = 1;
place = (623,46);
type = Stem;
},
{
horizontal = 1;
place = (622.5,46.5);
type = Stem;
},
{
horizontal = 1;
place = (310,45);
type = Stem;
},
{
horizontal = 1;
place = (0,46.5);
type = Stem;
},
{
horizontal = 1;
place = (-10,55.5);
type = Stem;
},
{
horizontal = 1;
place = (-203,128);
type = Stem;
},
{
place = (468,99);
type = Stem;
},
{
place = (293,134);
type = Stem;
},
{
place = (138,95);
type = Stem;
}
);
layerId = m01;
shapes = (
{
closed = 1;
nodes = (
(138,310,ls),
(138,223,o),
(138,136,o),
(136,52,c),
(44,41,l),
(44,0,l),
(327,0,l),
(327,41,l),
(235,52,l),
(233,132,o),
(233,214,o),
(233,310,c),
(282,310,ls),
(363,310,o),
(400,295,o),
(419,214,cs),
(459,54,ls),
(471,6,o),
(499,-10,o),
(562,-10,cs),
(593,-10,o),
(617,-6,o),
(637,0,c),
(637,41,l),
(560,50,l),
(517,198,ls),
(494,277,o),
(458,313,o),
(399,325,c),
(511,345,o),
(567,416,o),
(567,494,cs),
(567,604,o),
(477,669,o),
(324,669,cs),
(44,669,l),
(44,628,l),
(136,617,l),
(138,531,o),
(138,445,o),
(138,359,cs)
);
},
{
closed = 1;
nodes = (
(321,623,ls),
(424,623,o),
(468,577,o),
(468,493,cs),
(468,413,o),
(418,355,o),
(310,355,cs),
(233,355,l),
(233,450,o),
(233,535,o),
(235,623,c)
);
},
{
closed = 1;
nodes = (
(398,-203,o),
(427,-177,o),
(427,-139,cs),
(427,-102,o),
(398,-75,o),
(360,-75,cs),
(322,-75,o),
(293,-102,o),
(293,-139,cs),
(293,-177,o),
(322,-203,o),
(360,-203,cs)
);
}
);
width = 651;
}
);
note = uni1E5A;
unicode = 7770;
},
{
glyphname = uni1E5C;
kernLeft = B;
kernRight = R;
layers = (
{
hints = (
{
horizontal = 1;
place = (758,63);
type = Stem;
},
{
horizontal = 1;
place = (623,46);
type = Stem;
},
{
horizontal = 1;
place = (622.5,46.5);
type = Stem;
},
{
horizontal = 1;
place = (310,45);
type = Stem;
},
{
horizontal = 1;
place = (0,46.5);
type = Stem;
},
{
horizontal = 1;
place = (-10,55.5);
type = Stem;
},
{
horizontal = 1;
place = (-203,128);
type = Stem;
},
{
place = (468,99);
type = Stem;
},
{
place = (293,134);
type = Stem;
},
{
place = (138,95);
type = Stem;
}
);
layerId = m01;
shapes = (
{
closed = 1;
nodes = (
(138,310,ls),
(138,223,o),
(138,136,o),
(136,52,c),
(44,41,l),
(44,0,l),
(327,0,l),
(327,41,l),
(235,52,l),
(233,132,o),
(233,214,o),
(233,310,c),
(282,310,ls),
(363,310,o),
(400,295,o),
(419,214,cs),
(459,54,ls),
(471,6,o),
(499,-10,o),
(562,-10,cs),
(593,-10,o),
(617,-6,o),
(637,0,c),
(637,41,l),
(560,50,l),
(517,198,ls),
(494,277,o),
(458,313,o),
(399,325,c),
(511,345,o),
(567,416,o),
(567,494,cs),
(567,604,o),
(477,669,o),
(324,669,cs),
(44,669,l),
(44,628,l),
(136,617,l),
(138,531,o),
(138,445,o),
(138,359,cs)
);
},
{
closed = 1;
nodes = (
(398,-203,o),
(427,-177,o),
(427,-139,cs),
(427,-102,o),
(398,-75,o),
(360,-75,cs),
(322,-75,o),
(293,-102,o),
(293,-139,cs),
(293,-177,o),
(322,-203,o),
(360,-203,cs)
);
},
{
closed = 1;
nodes = (
(321,623,ls),
(424,623,o),
(468,577,o),
(468,493,cs),
(468,413,o),
(418,355,o),
(310,355,cs),
(233,355,l),
(233,450,o),
(233,535,o),
(235,623,c)
);
},
{
closed = 1;
nodes = (
(178,758,l),
(480,758,l),
(480,821,l),
(178,821,l)
);
}
);
width = 651;
}
);
note = uni1E5C;
unicode = 7772;
},
{
glyphname = uni1E5E;
kernLeft = B;
kernRight = R;
layers = (
{
hints = (
{
horizontal = 1;
place = (623,46);
type = Stem;
},
{
horizontal = 1;
place = (622.5,46.5);
type = Stem;
},
{
horizontal = 1;
place = (310,45);
type = Stem;
},
{
horizontal = 1;
place = (0,46.5);
type = Stem;
},
{
horizontal = 1;
place = (-10,55.5);
type = Stem;
},
{
horizontal = 1;
place = (-176,63);
type = Stem;
},
{
place = (468,99);
type = Stem;
},
{
place = (214,262);
type = Stem;
},
{
place = (138,95);
type = Stem;
}
);
layerId = m01;
shapes = (
{
closed = 1;
nodes = (
(138,310,ls),
(138,223,o),
(138,136,o),
(136,52,c),
(44,41,l),
(44,0,l),
(327,0,l),
(327,41,l),
(235,52,l),
(233,132,o),
(233,214,o),
(233,310,c),
(282,310,ls),
(363,310,o),
(400,295,o),
(419,214,cs),
(459,54,ls),
(471,6,o),
(499,-10,o),
(562,-10,cs),
(593,-10,o),
(617,-6,o),
(637,0,c),
(637,41,l),
(560,50,l),
(517,198,ls),
(494,277,o),
(458,313,o),
(399,325,c),
(511,345,o),
(567,416,o),
(567,494,cs),
(567,604,o),
(477,669,o),
(324,669,cs),
(44,669,l),
(44,628,l),
(136,617,l),
(138,531,o),
(138,445,o),
(138,359,cs)
);
},
{
closed = 1;
nodes = (
(321,623,ls),
(424,623,o),
(468,577,o),
(468,493,cs),
(468,413,o),
(418,355,o),
(310,355,cs),
(233,355,l),
(233,450,o),
(233,535,o),
(235,623,c)
);
},
{
closed = 1;
nodes = (
(214,-176,l),
(476,-176,l),
(476,-113,l),
(214,-113,l)
);
}
);
width = 651;
}
);
note = uni1E5E;
unicode = 7774;
},
{
glyphname = Sacute;
kernLeft = S;
kernRight = S;
layers = (
{
hints = (
{
horizontal = 1;
place = (634,50);
type = Stem;
},
{
horizontal = 1;
place = (-15,50);
type = Stem;
},
{
place = (387,85);
type = Stem;
},
{
place = (53,84);
type = Stem;
}
);
layerId = m01;
shapes = (
{
closed = 1;
nodes = (
(189,35,o),
(159,43,o),
(128,60,c),
(108,178,l),
(46,178,l),
(40,38,l),
(86,8,o),
(160,-15,o),
(235,-15,cs),
(374,-15,o),
(472,57,o),
(472,175,cs),
(472,270,o),
(421,328,o),
(290,379,cs),
(250,394,ls),
(178,422,o),
(137,459,o),
(137,521,cs),
(137,595,o),
(196,634,o),
(272,634,cs),
(303,634,o),
(328,628,o),
(354,614,c),
(375,501,l),
(436,501,l),
(442,632,l),
(399,664,o),
(345,684,o),
(278,684,cs),
(150,684,o),
(53,614,o),
(53,499,cs),
(53,397,o),
(122,338,o),
(225,298,cs),
(264,282,ls),
(349,249,o),
(387,220,o),
(387,156,cs),
(387,79,o),
(326,35,o),
(232,35,cs)
);
},
{
closed = 1;
nodes = (
(238,720,l),
(280,742,o),
(322,765,o),
(364,788,cs),
(402,809,o),
(414,825,o),
(414,843,cs),
(414,863,o),
(397,877,o),
(376,877,cs),
(359,877,o),
(342,867,o),
(314,839,cs),
(282,809,o),
(251,778,o),
(220,745,c)
);
}
);
width = 512;
}
);
note = Sacute;
unicode = 346;
},
{
glyphname = Scaron;
kernLeft = S;
kernRight = S;
layers = (
{
hints = (
{
horizontal = 1;
place = (729,54);
type = Stem;
},
{
horizontal = 1;
place = (634,50);
type = Stem;
},
{
horizontal = 1;
place = (-15,50);
type = Stem;
},
{
place = (387,85);
type = Stem;
},
{
place = (53,84);
type = Stem;
}
);
layerId = m01;
shapes = (
{
closed = 1;
nodes = (
(189,35,o),
(159,43,o),
(128,60,c),
(108,178,l),
(46,178,l),
(40,38,l),
(86,8,o),
(160,-15,o),
(235,-15,cs),
(374,-15,o),
(472,57,o),
(472,175,cs),
(472,270,o),
(421,328,o),
(290,379,cs),
(250,394,ls),
(178,422,o),
(137,459,o),
(137,521,cs),
(137,595,o),
(196,634,o),
(272,634,cs),
(303,634,o),
(328,628,o),
(354,614,c),
(375,501,l),
(436,501,l),
(442,632,l),
(399,664,o),
(345,684,o),
(278,684,cs),
(150,684,o),
(53,614,o),
(53,499,cs),
(53,397,o),
(122,338,o),
(225,298,cs),
(264,282,ls),
(349,249,o),
(387,220,o),
(387,156,cs),
(387,79,o),
(326,35,o),
(232,35,cs)
);
},
{
closed = 1;
nodes = (
(156,868,l),
(132,847,l),
(234,729,l),
(308,729,l),
(410,847,l),
(386,868,l),
(271,783,l)
);
}
);
width = 512;
}
);
note = Scaron;
unicode = 352;
},
